<?xml version="1.0" encoding="UTF-8" standalone="no"?>
<svg
   xmlns:osb="http://www.openswatchbook.org/uri/2009/osb"
   xmlns:dc="http://purl.org/dc/elements/1.1/"
   xmlns:cc="http://creativecommons.org/ns#"
   xmlns:rdf="http://www.w3.org/1999/02/22-rdf-syntax-ns#"
   xmlns:svg="http://www.w3.org/2000/svg"
   xmlns="http://www.w3.org/2000/svg"
   xmlns:sodipodi="http://sodipodi.sourceforge.net/DTD/sodipodi-0.dtd"
   xmlns:inkscape="http://www.inkscape.org/namespaces/inkscape"
   inkscape:version="1.0 (4035a4f, 2020-05-01)"
   sodipodi:docname="logo.svg"
   viewBox="0 0 499.99999 130"
   height="130"
   width="500"
   id="svg78"
   version="1.1">
  <metadata
     id="metadata84">
    <rdf:RDF>
      <cc:Work
         rdf:about="">
        <dc:format>image/svg+xml</dc:format>
        <dc:type
           rdf:resource="http://purl.org/dc/dcmitype/StillImage" />
        <dc:title></dc:title>
      </cc:Work>
    </rdf:RDF>
  </metadata>
  <defs
     id="defs82">
    <linearGradient
       osb:paint="solid"
       id="linearGradient1020">
      <stop
         id="stop1018"
         offset="0"
         style="stop-color:#81623e;stop-opacity:1;" />
    </linearGradient>
  </defs>
  <sodipodi:namedview
     inkscape:current-layer="g86"
     inkscape:window-maximized="1"
     inkscape:window-y="23"
     inkscape:window-x="0"
     inkscape:cy="79.207318"
     inkscape:cx="285.84364"
     inkscape:zoom="1.2216981"
     showgrid="false"
     id="namedview80"
     inkscape:window-height="789"
     inkscape:window-width="1440"
     inkscape:pageshadow="2"
     inkscape:pageopacity="0"
     guidetolerance="10"
     gridtolerance="10"
     objecttolerance="10"
     borderopacity="1"
     bordercolor="#666666"
     pagecolor="#ffffff" />
  <g
     id="g86"
     inkscape:label="Image"
     inkscape:groupmode="layer">
    <path
       id="path955"
       d="m 479.56496,54.535844 c 1.01622,2.173998 1.98456,4.068754 2.25942,6.509301 0.18993,1.685593 0.3845,3.432976 0.22284,5.132156 -0.0967,1.01219 -0.21104,2.032426 -0.52255,3.004301 -0.18368,0.573298 -0.39243,1.128143 -0.7356,1.627315 -2.56879,3.735479 -8.30453,-0.57468 -10.48717,-2.75396 -0.5777,-0.57668 -1.17714,-1.139412 -1.71667,-1.752407 -0.71521,-0.812239 -1.3895,-1.657468 -2.06353,-2.503617 -1.00266,-1.258257 -3.64732,-3.899864 -4.90029,-1.125969 -0.40297,0.891977 0.16054,1.693767 0.6956,2.377879 1.13458,1.450406 2.29625,2.874372 3.51432,4.255836 3.0853,3.499703 7.22035,6.886621 12.10632,6.884735 2.47108,-0.0011 4.8905,-0.817608 6.25053,-3.004128 0.59475,-0.956188 0.99961,-2.039869 1.2732,-3.129408 0.93794,-3.734745 0.8873,-8.028839 9.1e-4,-11.766693 -0.32786,-1.382975 -0.76885,-2.718495 -1.37759,-4.005682 -0.2035,-0.430214 -0.82253,-1.114051 -0.69903,-1.616001 0.15576,-0.633447 1.2369,-1.198843 1.6817,-1.643393 1.02361,-1.023776 1.91848,-2.254025 2.65103,-3.500091 2.35427,-4.004661 3.1871,-8.929108 2.87292,-13.519083 -0.1422,-2.075046 -0.35213,-4.174372 -1.44492,-6.008475 -2.13656,-3.585957 -6.23505,-4.008984 -9.95746,-3.050614 -6.81139,1.753716 -12.91667,6.883031 -18.52618,10.900446 -1.84002,1.317859 -3.65974,2.662505 -5.50778,3.969856 -0.75216,0.532234 -1.83055,1.021187 -2.14618,1.949867 -0.46429,1.366063 0.56498,3.180605 2.14618,2.81221 1.66552,-0.388042 3.39181,-2.130243 4.75674,-3.115762 5.75181,-4.15297 11.49134,-9.049896 18.15067,-11.68799 3.02666,-1.199073 6.91778,-2.25843 8.08285,1.852108 1.24456,4.391061 0.19332,10.117153 -2.03931,14.019796 -0.83734,1.463475 -2.09133,3.235629 -3.6541,3.996227 -0.67202,0.327229 -1.77745,-0.425955 -2.51464,-0.480074 -2.37772,-0.174389 -6.99427,0.713358 -7.46895,3.618908 -0.23752,1.453992 0.99873,2.085048 2.21156,2.30135 2.33436,0.41644 4.6429,0.180262 6.8847,-0.548944 M 432.74885,37.690136 c -3.72443,0.495071 -7.23708,1.753227 -10.38958,3.827769 -2.34444,1.542682 -4.52407,3.271871 -6.50927,5.257087 -1.56339,1.563352 -3.05011,3.152985 -4.43126,4.8818 -7.02654,8.796445 -14.01893,23.228537 -5.29672,33.171949 1.67869,1.913654 3.68991,3.492407 5.84756,4.828805 2.80645,1.73794 5.93156,3.009429 9.13783,3.791972 4.09361,0.999405 8.34186,1.264675 12.51775,0.731592 15.9003,-2.029414 26.22799,-18.145935 24.76368,-33.511572 -1.12972,-11.855123 -13.00216,-24.659137 -25.63999,-22.979402 m -0.50068,2.110727 c 1.12197,-0.134146 2.28014,-0.0416 3.37972,0.190019 0.87579,0.184521 1.73737,0.513853 2.50363,0.977892 5.59907,3.390658 3.13831,11.082321 0.96269,15.820346 -3.49821,7.618531 -10.28142,14.203196 -17.73644,17.931117 -3.04058,1.52056 -6.21469,2.727578 -9.63855,2.962101 -0.86208,0.0593 -1.78707,-0.03411 -2.62869,-0.22511 -6.53089,-1.482864 -3.87192,-9.58354 -1.84538,-13.783373 3.41477,-7.077186 8.05681,-13.797478 14.23787,-18.751517 3.12548,-2.505143 6.72203,-4.637906 10.76515,-5.121475 m -49.94552,37.016498 c -0.58961,1.035163 -1.34932,1.970478 -1.94973,3.004303 -2.53766,4.370062 -5.48257,11.466938 -2.49796,16.272914 3.22072,5.186552 10.31368,2.017081 14.33672,-0.163944 0.89586,-0.485608 1.77814,-1.028133 2.62871,-1.588856 1.01783,-0.671171 2.01608,-1.361162 3.00425,-2.074639 1.40966,-1.017859 3.90734,-2.346845 4.69944,-3.933585 0.92305,-1.848869 -1.76497,-3.158021 -3.19734,-2.317903 -4.38291,2.57039 -7.91963,6.22298 -12.76807,8.099768 -1.61575,0.625517 -4.36329,1.492507 -5.44105,-0.399341 -0.78835,-1.383879 -0.42671,-3.298498 -0.0816,-4.756576 0.72355,-3.052894 1.98947,-5.930045 3.77294,-8.512063 0.69752,-1.009801 1.57392,-2.263151 2.62555,-2.928666 0.52033,-0.329332 1.2854,-0.271816 1.87768,-0.383493 0.99357,-0.187414 1.97978,-0.515409 2.87904,-0.976266 1.53699,-0.787843 4.12562,-2.807199 1.99107,-4.529222 -1.59463,-1.286396 -4.92402,-0.09327 -6.49743,0.713603 -0.56538,0.289923 -1.13542,0.794377 -1.75245,0.953048 -1.68247,0.432474 -4.64013,-0.797659 -6.13367,-1.518415 -2.96231,-1.429479 -7.71277,-5.028322 -4.44828,-8.583151 1.2556,-1.367415 3.4195,-1.753169 5.19933,-1.773794 4.21959,-0.04879 9.40199,1.075865 13.1435,3.043883 1.6699,0.878246 5.10351,5.163677 6.58222,1.962159 0.55184,-1.194913 -0.1242,-2.183628 -0.94934,-3.003122 -1.52533,-1.515019 -3.41993,-2.514298 -5.38253,-3.344688 -1.48323,-0.627703 -3.05805,-1.099125 -4.63146,-1.43892 -5.36306,-1.15788 -13.30585,-2.67805 -17.34108,2.279486 -5.67922,6.977715 3.3127,15.285494 10.33108,15.89748 m 54.32676,26.161949 0.12508,0.12508 z"
       style="fill:#81623e;stroke:none;stroke-width:0.125;stroke-opacity:1;stroke-miterlimit:4;stroke-dasharray:none" />
    <text
       id="text963"
       y="55.239094"
       x="250.25914"
       style="font-style:normal;font-variant:normal;font-weight:normal;font-stretch:normal;font-size:61.41120000000000090px;line-height:1.05;font-family:Papyrus;-inkscape-font-specification:Papyrus;text-align:center;text-anchor:middle;fill:#de8073;fill-opacity:1;stroke-width:1.43933;stroke:#81623e;stroke-opacity:1;"
       xml:space="preserve"><tspan
         style="font-style:normal;font-variant:normal;font-weight:bold;font-stretch:normal;font-size:61.41120000000000090px;font-family:Noteworthy;-inkscape-font-specification:'Noteworthy Bold';stroke-width:1.43933;fill:#de8073;fill-opacity:1;stroke:#81623e;stroke-opacity:1;"
         y="55.239094"
         x="250.25914"
         id="tspan961"
         sodipodi:role="line">Meninas</tspan><tspan
         style="font-style:normal;font-variant:normal;font-weight:bold;font-stretch:normal;font-size:61.41120000000000090px;font-family:Noteworthy;-inkscape-font-specification:'Noteworthy Bold';stroke-width:1.43933;fill:#de8073;fill-opacity:1;stroke:#81623e;stroke-opacity:1;"
         id="tspan965"
         y="122.11439"
         x="250.25914"
         sodipodi:role="line">Doceiras</tspan></text>
    <path
       style="fill:#81623e;stroke:none;stroke-width:0.125172"
       d="m 20.43519,54.535988 c -1.016186,2.173854 -1.984543,4.068769 -2.259437,6.509157 -0.189896,1.685593 -0.384544,3.433149 -0.222811,5.132156 0.09621,1.01219 0.211046,2.032426 0.522486,3.004301 0.183755,0.573298 0.392431,1.128143 0.735665,1.627315 2.568749,3.735479 8.304472,-0.57468 10.487169,-2.75396 0.577698,-0.57668 1.177158,-1.139412 1.716666,-1.752392 0.715137,-0.812254 1.389467,-1.657468 2.063547,-2.503632 1.002654,-1.258257 3.647268,-3.899864 4.900289,-1.125955 0.402945,0.891963 -0.160609,1.693767 -0.695608,2.377865 -1.134603,1.450406 -2.296243,2.874372 -3.514337,4.256009 -3.085361,3.499545 -7.22032,6.886461 -12.106336,6.884562 -2.471102,-0.0011 -4.890523,-0.817608 -6.250567,-3.004128 -0.594706,-0.956188 -0.999527,-2.039869 -1.273171,-3.129394 -0.937942,-3.734759 -0.887249,-8.028681 -0.0011,-11.766707 0.327839,-1.382975 0.76884,-2.71848 1.377574,-4.005682 0.203536,-0.430214 0.822527,-1.114051 0.699108,-1.616001 -0.155849,-0.633447 -1.236991,-1.198699 -1.681752,-1.643378 -1.023564,-1.023778 -1.918452,-2.25404 -2.650992,-3.500077 -2.3543136,-4.00469 -3.1871198,-8.929121 -2.8729213,-13.519098 0.1421985,-2.075045 0.352124,-4.174372 1.4449133,-6.008467 2.136511,-3.585965 6.235045,-4.008991 9.957425,-3.050622 6.811354,1.753716 12.916725,6.883033 18.526143,10.900445 1.840101,1.317874 3.659784,2.662505 5.507772,3.969859 0.752178,0.532233 1.830578,1.021186 2.146269,1.949866 0.464282,1.366048 -0.565043,3.180605 -2.146269,2.812195 -1.665477,-0.388027 -3.391794,-2.130229 -4.756716,-3.115749 -5.75174,-4.152968 -11.491343,-9.049895 -18.150605,-11.687989 -3.02665,-1.199078 -6.917769,-2.258434 -8.082907,1.852108 -1.244511,4.391062 -0.193279,10.117155 2.039371,14.019782 0.83731,1.463576 2.091324,3.235629 3.654032,3.996227 0.672083,0.327229 1.777518,-0.425941 2.514675,-0.479929 2.377725,-0.174518 6.994246,0.713213 7.468913,3.618763 0.237582,1.453992 -0.998668,2.085048 -2.211498,2.30135 -2.334411,0.41644 -4.642919,0.180262 -6.884709,-0.5488 M 67.251254,37.690165 c 3.724504,0.495056 7.23709,1.753213 10.389658,3.827753 2.344438,1.542669 4.524013,3.271858 6.50919,5.257061 1.56346,1.563466 3.050176,3.152998 4.431255,4.881829 7.026537,8.796444 14.018913,23.228521 5.296727,33.171933 -1.678623,1.913711 -3.689835,3.492407 -5.847507,4.828818 -2.806461,1.737941 -5.931625,3.009416 -9.13789,3.791959 -4.093536,0.999405 -8.341779,1.264657 -12.517673,0.731574 C 50.474702,92.151723 40.147012,76.035189 41.611321,60.669554 42.741051,48.814429 54.61342,36.010416 67.251254,37.690165 m 0.500711,2.110711 c -1.121968,-0.134145 -2.2801,-0.04159 -3.379773,0.19002 -0.875733,0.184522 -1.737329,0.513853 -2.503536,0.977891 -5.59915,3.390645 -3.138302,11.082308 -0.962735,15.820333 3.498191,7.618675 10.281387,14.20321 17.736402,17.931117 3.040665,1.520574 6.214767,2.727736 9.638611,2.962101 0.862094,0.0593 1.787016,-0.03411 2.628698,-0.22511 6.530847,-1.482835 3.871849,-9.583526 1.845361,-13.783373 C 89.340171,56.596669 84.698117,49.876377 78.517149,44.922338 75.39162,42.417208 71.795045,40.284446 67.751965,39.800876 M 117.6975,76.817361 c 0.5896,1.035177 1.34931,1.970494 1.94975,3.004316 2.53763,4.370049 5.48253,11.466925 2.49794,16.272901 -3.22071,5.186552 -10.31364,2.017081 -14.33671,-0.163797 -0.89589,-0.485755 -1.77813,-1.02828 -2.62871,-1.589003 -1.01781,-0.671171 -2.01609,-1.361162 -3.00423,-2.074639 -1.40974,-1.017731 -3.907394,-2.346831 -4.69951,-3.933585 -0.923049,-1.848869 1.764987,-3.158021 3.19739,-2.317903 4.38293,2.57039 7.91967,6.222989 12.76801,8.09975 1.61578,0.625581 4.36335,1.492653 5.4411,-0.399323 0.78835,-1.383879 0.4267,-3.29844 0.0816,-4.756576 -0.72355,-3.052894 -1.98952,-5.930045 -3.77291,-8.51205 -0.69761,-1.009814 -1.57398,-2.263164 -2.62559,-2.928649 -0.52035,-0.329362 -1.28542,-0.271846 -1.87764,-0.383523 -0.99365,-0.187414 -1.97979,-0.515236 -2.87906,-0.976266 -1.53704,-0.787843 -4.1257,-2.807199 -1.99106,-4.529222 1.59463,-1.286396 4.92394,-0.09327 6.49742,0.713603 0.56541,0.289923 1.13534,0.794377 1.75247,0.953048 1.68238,0.432474 4.64012,-0.797645 6.13363,-1.518415 2.96231,-1.429465 7.71277,-5.028192 4.4483,-8.583151 -1.25563,-1.367415 -3.41952,-1.753155 -5.19933,-1.773794 -4.21958,-0.04879 -9.40202,1.076038 -13.14354,3.043883 -1.66986,0.878433 -5.10347,5.163704 -6.582177,1.962173 -0.551898,-1.194913 0.124172,-2.183642 0.949337,-3.003122 1.52528,-1.515018 3.41996,-2.51427 5.38247,-3.344688 1.48323,-0.627717 3.05807,-1.099139 4.63154,-1.438777 5.36307,-1.158037 13.30582,-2.678207 17.34104,2.279342 5.67921,6.977716 -3.31272,15.285481 -10.33108,15.897467 m -54.326723,26.161939 -0.12518,0.12508 z"
       id="path955-4" />
  </g>
</svg>
