<?xml version="1.0" encoding="UTF-8" standalone="no"?>
<svg
   xmlns:dc="http://purl.org/dc/elements/1.1/"
   xmlns:cc="http://creativecommons.org/ns#"
   xmlns:rdf="http://www.w3.org/1999/02/22-rdf-syntax-ns#"
   xmlns:svg="http://www.w3.org/2000/svg"
   xmlns="http://www.w3.org/2000/svg"
   id="svg8"
   version="1.1"
   viewBox="0 0 192 117"
   height="117mm"
   width="192mm">
  <defs
     id="defs2" />
  <metadata
     id="metadata5">
    <rdf:RDF>
      <cc:Work
         rdf:about="">
        <dc:format>image/svg+xml</dc:format>
        <dc:type
           rdf:resource="http://purl.org/dc/dcmitype/StillImage" />
        <dc:title></dc:title>
      </cc:Work>
    </rdf:RDF>
  </metadata>
  <g
     id="layer1">
    <path
       id="path851"
       d="m 3.8271354,115.88787 c -0.623973,-0.56594 -1.15112,-1.10009 -1.171437,-1.18701 -0.05757,-0.24627 1.081044,-2.46849 1.641695,-3.2041 0.277129,-0.36361 0.7383809,-0.90142 1.0250029,-1.19513 0.636223,-0.65195 0.817667,-1.18845 0.588195,-1.73922 -0.248643,-0.59678 -1.3197159,-1.48399 -2.4866999,-2.05981 -0.58324,-0.28779 -1.042121,-0.59943 -1.048808,-0.71228 -0.0065,-0.11034 -0.11794,-0.98996 -0.247556,-1.95471 l -0.235669,-1.75412 0.585097,-0.30195 c 0.713991,-0.3685 1.103533,-0.83283 1.1042,-1.31621 5.74e-4,-0.41574 -0.338507,-0.825907 -1.208087,-1.461347 l -0.608123,-0.44439 0.16628,-1.43029 c 0.682296,-5.86889 0.58494,-13.04401 -0.2422,-17.85022 -0.202432,-1.17626 -0.22525,-1.135 0.971777,-1.75746 1.420258,-0.73854 1.429726,-1.34974 0.03384,-2.1852 -0.504866,-0.30219 -0.947693,-0.62765 -0.984058,-0.72326 -0.03636,-0.0956 0.02125,-5.25287 0.12795,-11.46056 0.106741,-6.20768 0.198141,-12.27967 0.203112,-13.4933 l 0.0091,-2.2066 1.003345,-0.771 c 0.551839,-0.42405 1.003444,-0.8431 1.003565,-0.93123 1.22e-4,-0.0881 -0.686493,-0.64412 -1.525813,-1.23554 -1.359127,-0.9577 -1.519737,-1.11215 -1.468463,-1.41214 0.146517,-0.85727 0.344907,-4.23837 0.423286,-7.2139 0.08687,-3.29813 -0.06647,-7.33242 -0.387799,-10.20234 -0.11138897,-0.99486 -0.11861997,-1.4781 -0.02317,-1.54868 0.07631,-0.0564 0.483621,-0.23441 0.905144,-0.3955 0.99931,-0.38193 1.749952,-1.16243 1.626184,-1.69086 -0.112122,-0.47872 -0.469413,-0.86607 -1.47495,-1.5991 -0.602532,-0.43924 -0.871091,-0.73598 -0.999992,-1.10496 -0.23336307,-0.66798 -0.21534807,-3.28713 0.02457,-3.57238 0.09508,-0.11304 0.589002,-0.41819 1.097603,-0.67813 1.126311,-0.57564 1.715072,-1.22519 1.711519,-1.88824 -0.0032,-0.59622 -0.426517,-1.61988 -1.305141,-3.15607 -0.942672,-1.6481599 -0.925426,-2.2171799 0.09936,-3.2785199 l 0.53837,-0.55758 0.907983,0.0665 c 0.8205729,0.0601 1.0660969,0.15503 2.5504279,0.98663 0.903346,0.50609 1.717971,0.92123 1.810278,0.92252 0.327288,0.005 1.082995,-0.66549 2.1750777,-1.92861 0.608474,-0.70378 1.215304,-1.33902 1.348509,-1.41163 0.405867,-0.22127 1.672721,-0.45801 2.407602,-0.44991 0.628963,0.007 0.725625,0.0492 1.020338,0.44653 0.179055,0.24138 0.512322,0.81612 0.740594,1.2772 0.228274,0.46107 0.564558,0.93846 0.747302,1.06087 0.681069,0.45621 1.530973,-0.11109 2.346075,-1.56599 0.291116,-0.51961 0.578246,-1.01893 0.638067,-1.10958 0.08606,-0.13041 0.637227,-0.1029 2.640014,0.13172 6.813117,0.79816 13.403859,1.18934 19.769255,1.17335 6.063317,-0.0152 9.766038,-0.23096 14.97453,-0.87243 l 2.266276,-0.27911 1.603358,1.60981 c 0.881845,0.88541 1.656297,1.61057 1.721011,1.61147 0.06471,9.1e-4 0.910072,-0.49776 1.878582,-1.10813 l 1.760897,-1.10978 10.549452,-0.11585 c 22.81824,-0.25056 35.078107,-0.59653 47.684107,-1.34565 l 3.59028,-0.21335 2.25493,1.70198 c 1.24021,0.93609 2.30627,1.7027 2.36904,1.70358 0.0628,8.8e-4 0.61405,-0.60778 1.22505,-1.35258 0.61101,-0.74479 1.14706,-1.39622 1.19122,-1.4476 0.0442,-0.0514 1.07195,0.005 2.28399,0.12593 8.77356,0.87327 18.05246,0.83832 30.33484,-0.11426 2.02148,-0.15678 3.87035,-0.31713 4.10861,-0.35632 0.9926,-0.16331 2.5884,-1.38004 4.04501,-3.08414 l 0.63701,-0.74524996 1.38652,0.63077996 c 0.99669,0.45344 1.61194,0.64939 2.18825,0.69696 0.75881,0.0626 0.87967,0.0273 2.25749,-0.66073 1.20721,-0.60277996 1.57222,-0.72524996 2.13789,-0.71731996 0.66718,0.009 0.70021,0.0291 1.50825,0.89880996 l 0.82614,0.88923 -0.52504,1.07527 c -0.60048,1.22976 -0.75487,1.85571 -0.56271,2.28144 0.0754,0.16704 0.53608,0.50645 1.04901,0.77288 1.04152,0.54096 2.46788,1.88054 2.68612,2.5227 0.13345,0.39268 0.0934,0.4924 -0.59123,1.4724899 -0.66554,0.95274 -0.74639,1.14682 -0.86256,2.07059 -0.12009,0.95497 -0.10581,1.07259 0.2262,1.86326 0.21067,0.50172 0.38019,1.20035 0.41805,1.72287 l 0.0636,0.87892 -1.01976,0.90087 c -0.58522,0.51699 -1.01992,1.00812 -1.02011,1.15257 -2e-4,0.13844 0.42775,0.71066 0.95098,1.27161 l 0.95133,1.01992 -0.0849,0.6891 c -0.57762,4.68649 -0.47089,8.38418 0.4926,17.06746 0.4766,4.29526 0.53209,5.26385 0.31106,5.43001 -0.10127,0.0762 -0.47241,0.24086 -0.82475,0.36607 -0.68956,0.24504 -1.08986,0.68818 -0.95114,1.05294 0.0474,0.12469 0.37918,0.37937 0.73725,0.56596 0.35808,0.1866 0.65092,0.42989 0.65077,0.54064 -1.6e-4,0.11074 -0.0976,0.95088 -0.21661,1.86696 l -0.21634,1.6656 0.47294,2.57774 c 0.72773,3.96639 0.9802,5.48391 1.28205,7.70581 0.31141,2.29221 0.39671,4.65349 0.18111,5.01289 -0.078,0.12987 -0.34576,0.33658 -0.59522,0.45938 -0.29686,0.14612 -0.49153,0.36121 -0.56348,0.62261 -0.14443,0.52467 -0.0125,1.88126 0.31093,3.19245 0.3245,1.31642 0.28875,2.33996 -0.0888,2.54319 -0.71909,0.38705 -0.98027,0.6363 -1.32649,1.26595 l -0.37601,0.68383 0.37251,0.39459 c 0.20488,0.21704 0.78612,0.56598 1.29167,0.77543 l 0.91916,0.38082 -0.0806,0.80068 c -0.24822,2.46503 -0.33946,4.52223 -0.34652,7.81278 -0.009,4.35799 0.18438,7.83291 0.72714,13.04211 l 0.0839,0.80551 -0.89703,0.87883 c -0.58018,0.5684 -0.88075,0.964137 -0.85095,1.120367 0.0257,0.13502 0.42756,0.45418 0.91124,0.72377 0.53799,0.29986 0.93157,0.62211 1.04076,0.85209 0.23387,0.49265 0.33312,1.98333 0.19766,2.96852 -0.11967,0.87036 -0.0138,0.77096 -1.5803,1.48354 -0.59039,0.26857 -0.87012,0.48954 -1.05898,0.83654 l -0.25666,0.47157 1.28437,2.86241 c 0.92802,2.06821 1.25156,2.92266 1.16608,3.07954 -0.21369,0.39222 -0.81288,0.86614 -1.85402,1.46646 l -1.02521,0.5911 -1.53856,-0.81461 c -0.84621,-0.44805 -1.54834,-0.82057 -1.56027,-0.82783 -0.0119,-0.007 -0.17068,-0.72624 -0.35273,-1.59775 -0.18206,-0.87151 -0.35612,-1.61004 -0.3868,-1.6412 -0.0307,-0.0311 -29.90911,-0.17638 -66.39649,-0.32275 -36.48737,-0.14632 -73.196232,-0.29617 -81.575245,-0.33285 -8.379011,-0.0367 -17.695221,-0.0608 -20.702689,-0.0541 l -5.468127,0.0132 -0.6250307,1.86213 -0.625033,1.86211 -1.929709,1.47625 c -1.061341,0.81194 -1.959778,1.47554 -1.996527,1.47468 -0.03675,-10e-4 -0.5773399,-0.46461 -1.2013129,-1.03054 z M 38.864521,98.215203 c 8.5628,0.009 41.814112,0.0534 73.891799,0.0991 32.07768,0.0457 58.35118,0.0554 58.38552,0.0216 0.0813,-0.0801 -1.28688,-75.44514 -1.37117,-75.53074 -0.0353,-0.0358 -6.31254,-0.003 -13.94946,0.0735 -7.63692,0.0762 -41.06597,0.39365 -74.286781,0.70539 -33.220814,0.31172 -60.410736,0.57819 -60.422046,0.59214 -0.01132,0.014 0.308569,15.96592 0.710842,35.44883 0.40227,19.48291 0.73279,36.13009 0.734488,36.99372 l 0.0031,1.57025 0.367496,0.005 c 0.202123,0.003 7.373422,0.0127 15.936226,0.0211 z"
       style="fill:#81623e;fill-opacity:1;stroke-width:0.133845;stroke-linecap:round;stroke-linejoin:round;stroke-miterlimit:4;stroke-dasharray:none" />
  </g>
</svg>
