<?xml version="1.0" encoding="UTF-8" standalone="no"?>
<svg
   xmlns:osb="http://www.openswatchbook.org/uri/2009/osb"
   xmlns:dc="http://purl.org/dc/elements/1.1/"
   xmlns:cc="http://creativecommons.org/ns#"
   xmlns:rdf="http://www.w3.org/1999/02/22-rdf-syntax-ns#"
   xmlns:svg="http://www.w3.org/2000/svg"
   xmlns="http://www.w3.org/2000/svg"
   xmlns:sodipodi="http://sodipodi.sourceforge.net/DTD/sodipodi-0.dtd"
   xmlns:inkscape="http://www.inkscape.org/namespaces/inkscape"
   width="100mm"
   height="35mm"
   viewBox="0 0 100 35"
   version="1.1"
   id="svg8"
   inkscape:version="1.0 (4035a4f, 2020-05-01)"
   sodipodi:docname="dripping_chocolate.svg">
  <defs
     id="defs2">
    <linearGradient
       id="linearGradient3891"
       osb:paint="solid">
      <stop
         style="stop-color:#501616;stop-opacity:1;"
         offset="0"
         id="stop3889" />
    </linearGradient>
  </defs>
  <sodipodi:namedview
     inkscape:pagecheckerboard="true"
     id="base"
     pagecolor="#ffffff"
     bordercolor="#666666"
     borderopacity="1.0"
     inkscape:pageopacity="0"
     inkscape:pageshadow="2"
     inkscape:zoom="2"
     inkscape:cx="83.208259"
     inkscape:cy="96.604887"
     inkscape:document-units="mm"
     inkscape:current-layer="g954"
     inkscape:document-rotation="0"
     showgrid="false"
     width="104mm"
     inkscape:window-width="2560"
     inkscape:window-height="1311"
     inkscape:window-x="0"
     inkscape:window-y="23"
     inkscape:window-maximized="1" />
  <metadata
     id="metadata5">
    <rdf:RDF>
      <cc:Work
         rdf:about="">
        <dc:format>image/svg+xml</dc:format>
        <dc:type
           rdf:resource="http://purl.org/dc/dcmitype/StillImage" />
        <dc:title></dc:title>
      </cc:Work>
    </rdf:RDF>
  </metadata>
  <g
     inkscape:label="Layer 1"
     inkscape:groupmode="layer"
     id="layer1">
    <g
       transform="translate(0,-21.695841)"
       id="g954">
      <g
         transform="matrix(1.0178166,0,0,1,-0.65950296,16.933338)"
         id="g994">
        <path
           style="fill:#552200;stroke:none;stroke-width:0.771612"
           d="m 49.694824,25.871938 c 9.821056,0.443337 3.341508,6.956896 6.891836,6.956896 2.656644,-0.06284 -3.045558,-6.145085 1.680077,-5.987898 2.720635,0.150903 3.116393,0.218201 3.976243,1.332231 1.394386,3.034045 -3.296945,9.862631 0.43636,9.798421 3.945499,-0.123289 -3.497485,-4.957082 4.166612,-11.424565 0.446721,-0.376976 0.769375,0.380563 1.629147,0.06436 2.659108,-0.996896 0.217475,4.277235 0.554875,6.715517 0.142376,0.917313 1.517479,1.70053 2.080295,0.0174 -0.208088,-2.857484 -1.938114,-5.581091 1.980671,-7.131175 0.561407,-0.222071 1.382378,-0.637185 2.059955,-0.469778 1.892741,0.50733 3.801011,7.434263 1.686961,12.51683 -0.194007,0.590957 0.944102,2.969509 1.634743,0.0174 -0.04146,-2.453938 -1.073922,-9.053972 2.044975,-10.295118 0.250331,-0.09937 0.467455,0.01522 0.600053,0.170255 1.089138,1.281807 1.061053,3.984605 0.616558,4.867236 -1.360122,2.558961 1.967529,3.080968 0.953686,-0.04458 -1.219194,-4.745013 1.80004,-5.18161 3.357846,-7.103777 0.761321,-0.952604 1.429589,-0.663496 2.069812,0 1.574234,3.811631 2.969752,5.734842 0.531798,10.800752 -0.69377,1.445539 3.264941,1.360238 2.875994,0.314592 -1.417226,-3.350507 -1.141392,-11.881754 0.571684,-10.959549 2.764745,1.53195 2.139388,3.812371 2.144238,5.600051 0.0657,1.382699 1.747971,1.273675 1.379324,-0.02544 -0.833957,-1.769133 -1.718171,-3.531786 0.776094,-5.730406 0.444107,-0.51381 1.501201,1.451388 1.017874,2.520343 -0.951334,1.521143 2.272288,2.383379 0.777317,-0.0043 -0.609757,-1.223273 0.250717,-1.978115 0.895194,-2.703124 1.074114,-1.208117 0.21318,-2.542696 0.414297,-3.839181 H 49.694835"
           id="path3822"
           sodipodi:nodetypes="cccccscccsccccsccccccccccccscc" />
        <path
           sodipodi:nodetypes="cccccscccsccccsccccccccccccscc"
           id="path3822-9"
           d="m 49.832498,25.871938 c -9.821056,0.443337 -3.341509,6.956896 -6.891836,6.956896 -2.656645,-0.06284 3.045557,-6.145085 -1.680078,-5.987898 -2.720634,0.150903 -3.116392,0.218201 -3.976242,1.332231 -1.394386,3.034045 3.296945,9.862631 -0.43636,9.798421 -3.945499,-0.123289 3.497484,-4.957082 -4.166612,-11.424565 -0.446721,-0.376976 -0.769375,0.380563 -1.629147,0.06436 -2.659108,-0.996896 -0.217475,4.277235 -0.554875,6.715517 -0.142376,0.917313 -1.517479,1.70053 -2.080295,0.0174 0.208088,-2.857484 1.938114,-5.581091 -1.980671,-7.131175 -0.561407,-0.222071 -1.382378,-0.637185 -2.059955,-0.469778 -1.892741,0.50733 -3.801012,7.434263 -1.686962,12.51683 0.194009,0.590957 -0.944102,2.969509 -1.634741,0.0174 0.04146,-2.453938 1.07392,-9.053971 -2.044975,-10.295117 -0.250333,-0.09937 -0.467455,0.01522 -0.600054,0.170255 -1.089139,1.281807 -1.061053,3.984604 -0.616559,4.867235 1.360123,2.558961 -1.967529,3.080968 -0.953685,-0.04458 1.219195,-4.745012 -1.80004,-5.181609 -3.357845,-7.103777 -0.761323,-0.952604 -1.42959,-0.663495 -2.06981,0 -1.5742397,3.811632 -2.9697591,5.734843 -0.5318,10.800752 0.69377,1.445539 -3.2649485,1.360238 -2.8759988,0.314592 C 9.4212266,33.63643 9.1453966,25.105184 7.4323075,26.027389 4.6675493,27.559339 5.2929087,29.83976 5.2880587,31.62744 5.2223587,33.010138 3.5400799,32.901114 3.9087296,31.602 4.742689,29.832867 5.6269087,28.070213 3.1326299,25.871593 c -0.4441097,-0.51381 -1.5012091,1.451388 -1.0178794,2.520343 0.9513397,1.521143 -2.27229891,2.38338 -0.7773194,-0.0043 0.6097597,-1.223274 -0.25072,-1.978116 -0.89519954,-2.703125 -1.07411989,-1.208116 -0.21318,-2.542695 -0.4143,-3.83918 H 49.832487"
           style="fill:#552200;stroke:none;stroke-width:0.771612" />
      </g>
      <path
         transform="matrix(0.26458333,0,0,0.26458333,0,21.695841)"
         id="path996"
         d="m 80.047344,130.26088 c -1.242595,-2.43106 -1.36331,-4.18222 -0.87245,-12.65599 0.550305,-9.49994 0.04805,-16.72839 -1.51375,-21.78483 -0.81101,-2.625744 -1.55461,-3.864515 -3.468785,-5.778691 -4.12904,-4.129038 -6.92878,-2.924913 -8.73775,3.757971 -1.086215,4.012794 -0.85055,11.18681 0.4501,13.70199 1.789775,3.46104 0.5043,7.71074 -2.08391,6.88928 -2.058145,-0.65323 -2.3179,-2.73225 -1.103415,-8.83154 1.253195,-6.293703 1.116605,-9.660004 -0.531485,-13.098839 -1.248285,-2.604617 -2.3569,-3.860965 -6.482815,-7.346695 -1.784655,-1.507744 -4.54914,-3.952506 -6.143305,-5.432804 -3.123825,-2.900698 -4.293068,-3.120034 -7.039472,-1.320521 -1.33859,0.877078 -6.195875,11.895897 -7.523361,17.066849 -1.648226,6.42033 -0.669868,14.47411 2.68754,22.12366 1.866474,4.25259 1.896435,5.18612 0.195606,6.09468 -1.850552,0.98854 -6.691912,0.88895 -8.309492,-0.17093 l -1.294236,-0.84801 0.960643,-2.7332 c 3.452954,-9.82428 3.577308,-32.986556 0.204733,-38.133757 -1.612178,-2.460494 -3.736802,-2.126964 -7.222898,1.13387 -3.80671,3.560731 -4.704692,6.174636 -4.735219,13.783576 -0.02204,5.493241 -0.150236,6.460101 -0.977858,7.375001 -1.11625,1.23396 -2.423527,1.35602 -3.293705,0.30752 -0.791905,-0.95419 -0.456559,-2.69983 1.297591,-6.754583 1.84438,-4.263323 1.945441,-8.73347 0.269594,-11.924706 -1.34995,-2.570645 -4.9184774,-6.575294 -5.8592204,-6.575294 -1.0847455,0 -3.1190215,3.105058 -3.6829925,5.621609 -0.41776,1.86413 -0.367891,2.817311 0.24127,4.611552 0.8421675,2.480547 0.489045,3.825404 -1.2486315,4.75538 C 1.4501526,95.580981 0.76592147,93.965592 2.5199751,90.05704 4.1363476,86.455284 3.9241906,84.230426 1.7176661,81.643343 -2.604661,76.575546 -2.7812918,75.973722 -2.2924585,67.979887 l 0.2063857,-3.375 H 188.93609 379.95826 l 0.0635,1.375 c 0.47895,10.364796 0.52144,9.821069 -0.93056,11.90914 -0.75186,1.081223 -2.06345,2.783047 -2.91466,3.781831 -2.2212,2.606307 -2.4257,5.029128 -0.72749,8.618849 1.1055,2.336847 1.23644,2.990102 0.72328,3.608428 -0.88962,1.071917 -2.44451,0.684327 -3.62579,-0.903801 -0.85603,-1.150862 -0.92156,-1.55906 -0.42516,-2.648527 0.97554,-2.141081 0.70981,-6.247212 -0.54639,-8.442978 -1.8144,-3.171478 -2.52393,-3.335664 -4.802,-1.11119 -5.14147,5.020514 -6.19764,10.889544 -3.15057,17.507406 1.69589,3.683265 1.94434,5.247305 0.9858,6.205845 -0.96155,0.96155 -2.25014,0.69824 -3.3355,-0.68157 -0.89433,-1.13695 -1.0014,-1.96918 -0.94883,-7.375002 0.0515,-5.296315 -0.0862,-6.419655 -1.05264,-8.587202 -1.25904,-2.823836 -2.45647,-4.262638 -5.26305,-6.323995 -2.63991,-1.93894 -4.53217,-1.900466 -5.57354,0.113323 -3.18069,6.150775 -3.38539,24.227916 -0.40804,36.034706 1.21451,4.81621 1.23816,5.14179 0.41704,5.74221 -2.57798,1.88507 -9.3284,1.03462 -9.64757,-1.21545 -0.0892,-0.62864 0.63161,-2.99114 1.60175,-5.25 2.29106,-5.33451 3.2956,-9.71071 3.2956,-14.35702 0,-5.057119 -0.99582,-8.947375 -4.27782,-16.711706 -2.85564,-6.755689 -3.84887,-8.041591 -6.64293,-8.600402 -1.28503,-0.257007 -1.88261,0.08162 -4.64748,2.633588 -1.74506,1.610685 -4.63403,4.10623 -6.41992,5.545656 -6.7959,5.477487 -8.61675,10.740604 -6.7058,19.382864 1.44191,6.52099 1.44392,6.92232 0.0428,8.53466 -1.04755,1.20543 -1.43399,1.36847 -2.17872,0.91922 -2.06114,-1.24339 -2.24953,-2.79064 -0.85464,-7.01916 1.11873,-3.39137 1.26712,-4.55701 1.07454,-8.441079 -0.22616,-4.561353 -1.40231,-8.339882 -3.22178,-10.350376 -2.4871,-2.748206 -7.74834,1.306537 -9.63933,7.428851 -1.66162,5.379704 -2.1301,12.055564 -1.54051,21.952324 0.46993,7.88821 0.43557,8.92267 -0.36829,11.08772 -1.12479,3.02937 -2.76197,3.30776 -4.26978,0.72603 l -0.97054,-1.6618 1.33162,-4.34099 c 1.97837,-6.44936 2.44935,-10.47912 2.17202,-18.5841 -0.37618,-10.994062 -3.18293,-20.238705 -7.43584,-24.491616 -1.51134,-1.511345 -1.79776,-1.602406 -4.39967,-1.398831 -3.93308,0.307727 -10.2508,3.079794 -12.77065,5.603465 -3.45875,3.463981 -3.94132,6.881447 -2.27004,16.075972 1.29212,7.10855 1.27181,7.52242 -0.45394,9.24817 -1.83721,1.83721 -2.73971,1.83721 -4.57692,0 -1.2574,-1.25738 -1.46155,-1.84172 -1.46155,-4.18319 0,-1.49691 0.57391,-5.73297 1.27537,-9.413466 1.481,-7.770793 1.72181,-12.490277 0.70011,-13.721351 -0.56982,-0.68659 -1.23962,-0.783044 -3.67209,-0.5288 -1.80103,0.188244 -3.60585,0.0829 -4.57329,-0.266931 -1.47636,-0.53386 -1.76083,-0.448237 -3.73324,1.12369 -5.99812,4.780235 -11.52055,13.691477 -12.51923,20.201588 -0.61822,4.02991 -0.36566,6.58947 1.31635,13.34061 1.46019,5.8608 1.46816,6.14725 0.20602,7.40939 -0.73738,0.73737 -1.66667,1 -3.53846,1 -2.16542,0 -2.76352,-0.22505 -4.06989,-1.53143 -1.48339,-1.48339 -1.52199,-1.63628 -1.23084,-4.875 0.16532,-1.83896 1.20683,-6.83107 2.31447,-11.09357 3.207,-12.341431 3.24172,-17.64664 0.13582,-20.752537 -2.16583,-2.165829 -3.78345,-2.731969 -9.42967,-3.300227 -6.30913,-0.634975 -9.21367,-0.301625 -11.03695,1.266698 -1.91711,1.649028 -1.78551,4.62886 0.5151,11.663716 2.57758,7.88177 2.41683,9.12235 -1.18209,9.12235 -3.29252,0 -3.72749,-1.0419 -3.72749,-8.928475 0,-6.108912 -0.11704,-7.040491 -1.12039,-8.917562 -2.22781,-4.167837 -7.63354,-6.754308 -16.22268,-7.762044 -8.45408,-0.991889 -18.12395,0.866707 -22.71055,4.365075 -1.06339,0.811088 -2.32558,2.496514 -3.04278,4.063069 -1.12819,2.4643 -1.21279,3.169379 -1.06459,8.872786 0.14356,5.525101 0.0579,6.310031 -0.79151,7.251451 -0.63785,0.70697 -1.55452,1.0557 -2.775,1.0557 -3.58457,0 -3.79564,-1.50968 -1.26201,-9.026761 3.926,-11.648164 2.03289,-14.141159 -9.91322,-13.054508 -7.15589,0.65092 -9.40188,1.666726 -11.23493,5.081266 -1.09922,2.047593 -1.18326,2.654815 -0.93423,6.75 0.17995,2.959177 1.06475,7.581643 2.58407,13.500003 2.68335,10.45268 2.77726,13.15753 0.52415,15.09558 -2.56514,2.20643 -8.2986,1.16822 -8.27776,-1.49893 0.005,-0.60316 0.4573,-2.78415 1.00576,-4.84665 2.5098,-9.4383 2.24891,-15.18997 -0.98658,-21.750003 -2.15902,-4.377459 -6.11709,-9.413387 -9.77728,-12.439827 -2.22489,-1.839657 -2.44039,-1.911715 -4.17326,-1.395413 -1.00496,0.299428 -3.07152,0.414725 -4.59235,0.256215 -2.2701,-0.236604 -2.89669,-0.12922 -3.5,0.59982 -1.06111,1.282263 -0.84828,5.249092 0.74921,13.964199 1.64212,8.958509 1.54548,11.896089 -0.44774,13.610589 -1.65234,1.42127 -2.77101,1.45884 -4.186,0.14058 -1.70228,-1.58591 -1.78978,-3.03688 -0.59051,-9.79147 2.17601,-12.255858 0.24193,-16.334327 -9.584106,-20.210338 -4.960775,-1.956844 -7.80437,-1.965988 -9.87497,-0.03176 -1.969845,1.840109 -4.72392,7.623432 -6.09425,12.797401 -0.77032,2.908515 -1.131,6.12923 -1.321805,11.803047 -0.289605,8.61197 0.156595,12.42102 2.17558,18.57209 1.25973,3.83792 1.263145,3.89316 0.35584,5.75 -1.18386,2.42282 -2.8174,2.75612 -3.827025,0.78085 z"
         style="fill:#81623e;stroke-width:0.500787;stroke-linecap:round;stroke-linejoin:round" />
    </g>
  </g>
</svg>
