<?xml version="1.0" encoding="UTF-8" standalone="no"?>
<svg
   xmlns:dc="http://purl.org/dc/elements/1.1/"
   xmlns:cc="http://creativecommons.org/ns#"
   xmlns:rdf="http://www.w3.org/1999/02/22-rdf-syntax-ns#"
   xmlns:svg="http://www.w3.org/2000/svg"
   xmlns="http://www.w3.org/2000/svg"
   xmlns:sodipodi="http://sodipodi.sourceforge.net/DTD/sodipodi-0.dtd"
   xmlns:inkscape="http://www.inkscape.org/namespaces/inkscape"
   inkscape:version="1.0 (4035a4f, 2020-05-01)"
   sodipodi:docname="MeninasDoceiras-Logo.svg"
   viewBox="0 0 334.39999 90"
   height="90"
   width="334.39999"
   id="svg78"
   version="1.1">
  <metadata
     id="metadata84">
    <rdf:RDF>
      <cc:Work
         rdf:about="">
        <dc:format>image/svg+xml</dc:format>
        <dc:type
           rdf:resource="http://purl.org/dc/dcmitype/StillImage" />
        <dc:title></dc:title>
      </cc:Work>
    </rdf:RDF>
  </metadata>
  <defs
     id="defs82" />
  <sodipodi:namedview
     inkscape:current-layer="g86"
     inkscape:window-maximized="1"
     inkscape:window-y="23"
     inkscape:window-x="0"
     inkscape:cy="142.01281"
     inkscape:cx="109.63042"
     inkscape:zoom="1.8364718"
     showgrid="false"
     id="namedview80"
     inkscape:window-height="789"
     inkscape:window-width="1440"
     inkscape:pageshadow="2"
     inkscape:pageopacity="0"
     guidetolerance="10"
     gridtolerance="10"
     objecttolerance="10"
     borderopacity="1"
     bordercolor="#666666"
     pagecolor="#ffffff" />
  <g
     id="g86"
     inkscape:label="Image"
     inkscape:groupmode="layer">
    <path
       id="path955"
       d="m 326.6949,38.559923 c 0.70603,1.51043 1.37881,2.82685 1.56977,4.52247 0.13196,1.1711 0.26714,2.38513 0.15482,3.56567 -0.0672,0.70324 -0.14662,1.41207 -0.36305,2.0873 -0.12761,0.39831 -0.27265,0.7838 -0.51107,1.13061 -1.78472,2.5953 -5.76974,-0.39927 -7.28618,-1.91337 -0.40137,-0.40066 -0.81784,-0.79163 -1.19269,-1.21752 -0.4969,-0.56432 -0.96538,-1.15156 -1.43368,-1.73944 -0.69662,-0.8742 -2.53405,-2.70951 -3.40458,-0.78229 -0.27997,0.61972 0.11154,1.17678 0.48329,1.65208 0.78827,1.0077 1.59536,1.99703 2.44164,2.95683 2.14358,2.43149 5.01649,4.78462 8.41112,4.78331 1.71682,-7.5e-4 3.39777,-0.56805 4.34268,-2.08718 0.41322,-0.66433 0.6945,-1.41724 0.88458,-2.17422 0.65165,-2.59479 0.61647,-5.5782 7.5e-4,-8.17515 -0.22779,-0.96085 -0.53418,-1.88873 -0.95711,-2.78303 -0.14139,-0.2989 -0.57147,-0.77401 -0.48567,-1.12275 0.10822,-0.4401 0.85936,-0.83292 1.1684,-1.14178 0.71117,-0.71129 1.33291,-1.56603 1.84186,-2.43176 1.63567,-2.78232 2.21429,-6.20368 1.99602,-9.39266 -0.0988,-1.44168 -0.24465,-2.90023 -1.00389,-4.17451 -1.48442,-2.491418 -4.33193,-2.785324 -6.91816,-2.119477 -4.73234,1.21843 -8.97411,4.782127 -12.87143,7.573307 -1.27839,0.91561 -2.54268,1.84983 -3.82664,2.75814 -0.52258,0.36978 -1.27181,0.70949 -1.49111,1.35471 -0.32257,0.9491 0.39253,2.20979 1.49111,1.95384 1.15715,-0.2696 2.35653,-1.48003 3.30483,-2.16474 3.99619,-2.88536 7.98385,-6.2876 12.61056,-8.12047 2.10283,-0.83308 4.80626,-1.56909 5.61572,1.28679 0.86469,3.05078 0.13432,7.0291 -1.41685,9.74054 -0.58176,1.01678 -1.453,2.24802 -2.53876,2.77646 -0.4669,0.22735 -1.23492,-0.29594 -1.7471,-0.33354 -1.65197,-0.12116 -4.85941,0.49562 -5.18921,2.51431 -0.16502,1.01019 0.69389,1.44863 1.53653,1.59891 1.62185,0.28933 3.22575,0.12524 4.78329,-0.38139 m -32.52624,-11.7039 c -2.58763,0.34396 -5.02811,1.21809 -7.21838,2.65942 -1.62885,1.07181 -3.14319,2.2732 -4.52245,3.65247 -1.08619,1.08617 -2.11913,2.1906 -3.0787,3.39173 -4.88184,6.11151 -9.73994,16.1385 -3.68001,23.04689 1.1663,1.32955 2.56364,2.42642 4.06271,3.35491 1.94983,1.20747 4.12107,2.09086 6.34869,2.63455 2.84413,0.69436 5.79568,0.87866 8.69696,0.50829 11.04707,-1.40998 18.22244,-12.60726 17.20508,-23.28285 -0.7849,-8.23659 -9.03352,-17.13244 -17.8139,-15.96541 m -0.34787,1.46647 c 0.77952,-0.0932 1.58418,-0.0289 2.34814,0.13202 0.60847,0.1282 1.20707,0.35701 1.73944,0.67941 3.89007,2.35573 2.18041,7.69967 0.66885,10.99151 -2.43045,5.29313 -7.14323,9.86796 -12.32275,12.45801 -2.11251,1.05644 -4.31779,1.89504 -6.69658,2.05798 -0.59895,0.0412 -1.24161,-0.0237 -1.82634,-0.1564 -4.53747,-1.03025 -2.6901,-6.65836 -1.28212,-9.57628 2.37249,-4.91702 5.59764,-9.58608 9.89205,-13.028 2.1715,-1.7405 4.67027,-3.22228 7.47931,-3.55825 m -34.70067,25.71797 c -0.40964,0.7192 -0.93746,1.36903 -1.35461,2.0873 -1.76309,3.03619 -3.80913,7.96689 -1.73551,11.30594 2.23766,3.60346 7.16564,1.40141 9.96073,-0.1139 0.62242,-0.33739 1.2354,-0.71432 1.82635,-1.10389 0.70716,-0.46631 1.40071,-0.9457 2.08726,-1.4414 0.97939,-0.70718 2.71471,-1.63052 3.26504,-2.73294 0.6413,-1.28454 -1.22625,-2.1941 -2.22142,-1.61041 -3.04512,1.78583 -5.50233,4.32354 -8.87088,5.62748 -1.12258,0.43459 -3.03149,1.03695 -3.78028,-0.27745 -0.54772,-0.96148 -0.29646,-2.2917 -0.0567,-3.30473 0.5027,-2.12106 1.38223,-4.12002 2.62133,-5.91393 0.48462,-0.70158 1.09352,-1.57237 1.82416,-2.03475 0.3615,-0.22881 0.89305,-0.18885 1.30455,-0.26644 0.69031,-0.13021 1.3755,-0.35809 2.00028,-0.67828 1.06785,-0.54737 2.86636,-1.95036 1.38333,-3.14677 -1.1079,-0.89375 -3.42106,-0.0648 -4.51422,0.49579 -0.39281,0.20143 -0.78885,0.55191 -1.21755,0.66215 -1.16893,0.30047 -3.22382,-0.55419 -4.26149,-1.05495 -2.05813,-0.99316 -5.35861,-3.49353 -3.09054,-5.96332 0.87236,-0.95004 2.37577,-1.21805 3.61234,-1.23238 2.93165,-0.0339 6.53223,0.74748 9.13172,2.1148 1.1602,0.61018 3.54577,3.58757 4.57314,1.36325 0.3834,-0.83019 -0.0863,-1.51712 -0.65958,-2.08648 -1.05976,-1.05259 -2.37607,-1.74686 -3.73963,-2.32379 -1.0305,-0.43611 -2.12464,-0.76364 -3.2178,-0.99972 -3.72609,-0.80446 -9.24451,-1.86063 -12.04807,1.58372 -3.94575,4.84791 2.30158,10.61991 7.17774,11.0451 m 37.74462,18.17655 0.0869,0.0869 z"
       style="fill:#81623e;stroke:none;stroke-width:0.0869657" />
    <text
       id="text963"
       y="39.048519"
       x="167.37999"
       style="font-style:normal;font-variant:normal;font-weight:normal;font-stretch:normal;font-size:42.6667px;line-height:1.05;font-family:Papyrus;-inkscape-font-specification:Papyrus;text-align:center;text-anchor:middle;fill:#81623e;fill-opacity:1"
       xml:space="preserve"><tspan
         style="font-style:normal;font-variant:normal;font-weight:bold;font-stretch:normal;font-size:42.6667px;font-family:Noteworthy;-inkscape-font-specification:'Noteworthy Bold'"
         y="39.048519"
         x="167.37999"
         id="tspan961"
         sodipodi:role="line">Meninas</tspan><tspan
         style="font-style:normal;font-variant:normal;font-weight:bold;font-stretch:normal;font-size:42.6667px;font-family:Noteworthy;-inkscape-font-specification:'Noteworthy Bold'"
         id="tspan965"
         y="85.511505"
         x="167.37999"
         sodipodi:role="line">Doceiras</tspan></text>
    <path
       style="fill:#81623e;stroke:none;stroke-width:0.0869657"
       d="m 7.705092,38.560023 c -0.706016,1.51033 -1.3788016,2.82686 -1.5697899,4.52237 -0.1319343,1.1711 -0.2671697,2.38525 -0.1548026,3.56567 0.066843,0.70324 0.1466284,1.41207 0.3630076,2.0873 0.1276674,0.39831 0.2726493,0.7838 0.5111188,1.13061 1.7846901,2.5953 5.7697011,-0.39927 7.2861751,-1.91337 0.401367,-0.40066 0.817854,-0.79163 1.192688,-1.21751 0.496856,-0.56433 0.965361,-1.15156 1.433692,-1.73945 0.696614,-0.8742 2.534014,-2.70951 3.404576,-0.78228 0.279954,0.61971 -0.111586,1.17678 -0.483288,1.65207 -0.788288,1.0077 -1.595362,1.99703 -2.441658,2.95695 -2.143617,2.43138 -5.016464,4.78451 -8.4111236,4.78319 -1.7168486,-7.4e-4 -3.3977915,-0.56805 -4.3427098,-2.08718 -0.413184,-0.66433 -0.6944418,-1.41724 -0.8845616,-2.17421 -0.6516541,-2.5948 -0.6164344,-5.57809 -7.486e-4,-8.17516 0.2277727,-0.96085 0.5341669,-1.88872 0.9570973,-2.78303 0.1414109,-0.2989 0.5714678,-0.77401 0.4857201,-1.12275 -0.1082798,-0.4401 -0.8594252,-0.83282 -1.1684316,-1.14177 -0.7111422,-0.71129 -1.3328839,-1.56604 -1.8418314,-2.43175 -1.63570732,-2.78234 -2.21431645,-6.20369 -1.99602059,-9.39267 0.09879532,-1.44168 0.24464535,-2.90023 1.00388269,-4.174505 1.4843851,-2.491423 4.3319256,-2.785329 6.9181248,-2.119482 4.7323273,1.21843 8.9741593,4.782127 12.8714173,7.573307 1.278447,0.91562 2.54271,1.84983 3.826637,2.75814 0.522591,0.36978 1.271831,0.70949 1.491164,1.35471 0.32257,0.94909 -0.392575,2.20979 -1.491164,1.95383 -1.157124,-0.26959 -2.356518,-1.48002 -3.304826,-2.16473 -3.996139,-2.88536 -7.983845,-6.2876 -12.610504,-8.12047 -2.1028268,-0.833084 -4.8062615,-1.569093 -5.6157649,1.28679 -0.8646496,3.05078 -0.1342843,7.0291 1.4168949,9.74053 0.5817382,1.01685 1.4529903,2.24802 2.5387134,2.77646 0.4669431,0.22735 1.2349671,-0.29593 1.7471216,-0.33344 1.651973,-0.12125 4.859396,0.49552 5.18918,2.51421 0.165065,1.01019 -0.693845,1.44863 -1.536483,1.59891 -1.62188,0.28933 -3.2257633,0.12524 -4.7832924,-0.38129 M 40.23151,26.856043 c 2.587675,0.34395 5.028117,1.21808 7.218427,2.65941 1.628846,1.0718 3.143151,2.27319 4.522393,3.65245 1.086246,1.08625 2.119172,2.19061 3.078705,3.39175 4.881831,6.11151 9.739924,16.13849 3.68001,23.04688 -1.166258,1.32959 -2.563589,2.42642 -4.062676,3.35492 -1.949846,1.20747 -4.121118,2.09085 -6.348735,2.63454 -2.844068,0.69436 -5.795622,0.87865 -8.69691,0.50828 -11.047067,-1.40995 -18.222441,-12.60724 -17.205082,-23.28283 0.784903,-8.23659 9.033475,-17.13244 17.813868,-15.9654 m 0.347879,1.46646 c -0.779511,-0.0932 -1.584146,-0.0289 -2.348167,0.13202 -0.608433,0.1282 -1.207044,0.35701 -1.739382,0.67941 -3.890124,2.35572 -2.1804,7.69966 -0.66888,10.9915 2.43044,5.29323 7.143204,9.86797 12.322728,12.45801 2.112564,1.05645 4.317837,1.89515 6.696622,2.05798 0.598957,0.0412 1.241566,-0.0237 1.826342,-0.1564 4.537439,-1.03023 2.690046,-6.65835 1.282102,-9.57628 -2.372517,-4.91702 -5.597679,-9.58608 -9.892033,-13.028 -2.171525,-1.74049 -4.670319,-3.22227 -7.479332,-3.55824 m 34.700687,25.71796 c 0.409635,0.71921 0.937457,1.36904 1.354621,2.08731 1.763074,3.03618 3.809105,7.96688 1.7355,11.30593 -2.237651,3.60346 -7.165617,1.40141 -9.960724,-0.1138 -0.622436,-0.33749 -1.235389,-0.71442 -1.826349,-1.10399 -0.707148,-0.46631 -1.400722,-0.9457 -2.087255,-1.4414 -0.979444,-0.70709 -2.714739,-1.63051 -3.265077,-2.73294 -0.641308,-1.28454 1.22626,-2.1941 2.221449,-1.61041 3.045132,1.78583 5.502356,4.32355 8.87084,5.62747 1.122595,0.43463 3.031527,1.03705 3.780319,-0.27744 0.547716,-0.96148 0.296457,-2.29166 0.05671,-3.30473 -0.5027,-2.12106 -1.382263,-4.12002 -2.621307,-5.91392 -0.484677,-0.70159 -1.093552,-1.57238 -1.824179,-2.03474 -0.361528,-0.22883 -0.893079,-0.18887 -1.304536,-0.26646 -0.690353,-0.13021 -1.375501,-0.35797 -2.000287,-0.67828 -1.067891,-0.54737 -2.866413,-1.95036 -1.383328,-3.14677 1.107902,-0.89375 3.421013,-0.0648 4.514213,0.49579 0.392838,0.20143 0.788806,0.55191 1.217569,0.66215 1.168866,0.30047 3.223818,-0.55418 4.261463,-1.05495 2.058132,-0.99315 5.35861,-3.49344 3.090549,-5.96332 -0.872372,-0.95004 -2.375778,-1.21804 -3.612339,-1.23238 -2.931645,-0.0339 -6.532248,0.7476 -9.131751,2.1148 -1.16017,0.61031 -3.545735,3.58759 -4.573098,1.36326 -0.383443,-0.83019 0.08627,-1.51713 0.659573,-2.08648 1.05972,-1.05259 2.376081,-1.74684 3.739579,-2.32379 1.030505,-0.43612 2.124657,-0.76365 3.217857,-0.99962 3.726104,-0.80457 9.244497,-1.86074 12.048045,1.58362 3.94575,4.84791 -2.301578,10.6199 -7.177729,11.04509 m -37.744606,18.17654 -0.08697,0.0869 z"
       id="path955-4" />
  </g>
</svg>
