<svg xmlns="http://www.w3.org/2000/svg" viewBox="0 0 1365.12 768"><defs><style>.cls-1{fill:#fff;}.cls-2{fill:#e7c569;}.cls-3{fill:#de8073;}.cls-4{fill:#a4bf61;}.cls-5{fill:#83633f;}</style></defs><g id="Layer_2" data-name="Layer 2"><g id="Layer_1-2" data-name="Layer 1"><path class="cls-1" d="M530.89,766H0v-2.13c.48,0,1-.11,1.43-.11H248.63c.72,0,1.44,0,2.16,0,.51,0,1.13.36,1.51-.64a3.77,3.77,0,0,0-.35-.87,434.74,434.74,0,0,1-31.87-50.93,546.47,546.47,0,0,1-34.59-79,628.75,628.75,0,0,1-18.64-64C162.73,550.77,159.21,533,156.4,515q-2-12.75-3.55-25.62c-.79-6.49-1.48-13-2.11-19.54-.85-8.87-1.45-17.79-2-26.72-.69-10.57-1-21.17-1.25-31.78-.32-16.88,0-33.74.8-50.61.43-9.18.94-18.36,1.71-27.46,1.2-14.15,2.75-28.24,4.75-42.2A712.9,712.9,0,0,1,169.6,215.7a137,137,0,0,1,4.09-14.53,13.05,13.05,0,0,1-.2,3.26c-.56,3.79-1.16,7.59-1.61,11.41-1.85,15.56-3.51,31.15-4.54,46.9-.8,12.34-1.41,24.69-1.66,37.06q-.6,31.17,1.39,62.26c.45,6.92.87,13.86,1.53,20.74q1.56,16.27,3.67,32.42,3.33,25.36,8.46,50.06,5.55,26.58,13,52.15a606.81,606.81,0,0,0,25.24,70.33,498.59,498.59,0,0,0,36.28,69A392.58,392.58,0,0,0,287.59,701a334.32,334.32,0,0,0,27.54,28.92A275.65,275.65,0,0,0,357,762.15a10,10,0,0,0,5.57,1.63q39.48-.06,79,0h2.44a82.36,82.36,0,0,0-12-4.71c-4.07-1.27-8.05-3-12.05-4.63s-7.81-3.42-11.68-5.28-7.88-3.88-11.78-6-7.77-4.34-11.61-6.68-7.66-4.79-11.43-7.35-7.38-5.13-11-7.85-7.4-5.6-11-8.56-7.24-6.05-10.79-9.24S333.47,697,330,693.61s-6.91-6.83-10.3-10.39-6.58-7.11-9.8-10.8-6.52-7.62-9.71-11.54-6.35-7.91-9.44-12-6.1-8.34-9.08-12.63-5.8-8.47-8.61-12.84-5.65-9-8.39-13.63-5.44-9.29-8.06-14-5.15-9.62-7.65-14.52-4.87-9.67-7.2-14.61-4.68-10.14-6.92-15.32-4.41-10.4-6.52-15.69-4.16-10.64-6.12-16.05-3.83-10.91-5.65-16.42-3.54-10.85-5.19-16.36-3.3-11.27-4.82-17-3-11.45-4.36-17.24-2.68-11.61-3.91-17.46-2.35-11.53-3.4-17.34-2.05-11.88-3-17.86-1.79-12-2.56-18-1.45-12.07-2.06-18.13-1.1-12.15-1.57-18.24-.89-11.95-1.19-17.95-.48-12.25-.59-18.39-.09-12.28-.08-18.43,0-12.29.14-18.43.5-12,.87-18,.59-12.23,1.22-18.3,1-12.16,1.7-18.21,1.33-12.1,2.18-18.1,1.59-11.79,2.57-17.63,2-11.9,3.1-17.81,2.35-11.76,3.61-17.6,2.55-11.69,4-17.45,3-11.47,4.54-17.15,3.15-11.1,4.84-16.57,3.53-11.12,5.37-16.63,3.7-11,5.78-16.32,4.06-10.72,6.19-16,4.29-10.24,6.52-15.28,4.71-10.12,7-15.24,5-9.57,7.35-15.19H3.86C2.58.83,1.3.87,0,.89.13.67-.22.15.26.17c.64,0,1.28,0,1.92,0Q682.57.18,1363,.22c.7,0,1.62-.81,2.16.67-1,0-1.92-.08-2.88-.08h-244a8.65,8.65,0,0,0-1.44,0c-.5.09-1.14-.41-1.5.73.19.46.37,1,.61,1.43,6.26,12,12,24.46,17.43,37.3A596.93,596.93,0,0,1,1162.78,130q6,24.3,10.1,49.44c2.35,14.32,4.21,28.79,5.67,43.39,1.5,15,2.58,30,3,45.06.38,12.24.75,24.51.32,36.81-.34,9.67-.54,19.33-1.05,29q-1,18.9-3.09,37.58c-2.22,19.9-5.33,39.52-9.21,58.89a628.26,628.26,0,0,1-21.2,78.87,549.1,549.1,0,0,1-20.91,52.47,504.76,504.76,0,0,1-27.28,51.61c-7.05,11.61-14.5,22.65-22.28,33.22a388.39,388.39,0,0,1-35.58,41.93A333.49,333.49,0,0,1,1007,718.7a169.46,169.46,0,0,1-14.91,10.57c.12-1.57,1-2.4,1.59-3.44q11.13-18.84,20.68-39.47a509,509,0,0,0,24.53-64A547.7,547.7,0,0,0,1052.49,569a599.82,599.82,0,0,0,9.94-70.21q1.88-23.06,2.14-46.23c.17-15-.35-30-1.3-44.9q-1.49-23.1-4.61-45.82-3.08-22.38-7.76-44.16a601.26,601.26,0,0,0-24.05-83.24,529.88,529.88,0,0,0-23.25-54.07c-8.66-17.24-17.48-34.31-27.71-49.64,0-.52-.16-.82-.51-.89l0,0c0-.91-.36-1.43-1-1.49l.05.08a1.38,1.38,0,0,0-.59-1.38l0,0-.5-.75,0,0a.85.85,0,0,0-.5-.76l0,0a.88.88,0,0,0-.5-.76l0,0c-.06-.42-.22-.68-.51-.77l0,0c-.06-.42-.23-.67-.53-.67h0a2.06,2.06,0,0,0-1.37-1.65l-4.36-6.77c0-.51-.14-.81-.48-.89l0,0a12,12,0,0,0-2.22-3.63,356.44,356.44,0,0,0-23.24-29.61A295.53,295.53,0,0,0,886.56,33,246.77,246.77,0,0,0,831.82,4c-3.54-1.33-7-3.21-10.77-3.21L705.62.82c-.66,0-1.31.1-2.17.17a3,3,0,0,0,1.93,1.25c6.29,2.24,12.51,4.85,18.68,7.69a276.82,276.82,0,0,1,52.46,31.94,337.74,337.74,0,0,1,47.71,44.8,413.66,413.66,0,0,1,40.58,54.55c6.52,10.41,12.78,21.14,18.66,32.34a564.55,564.55,0,0,1,39.72,97.11,659.4,659.4,0,0,1,20.24,87.26,716.51,716.51,0,0,1,7.84,71.89c.79,13.06,1.13,26.16,1.12,39.28,0,15.6-.43,31.15-1.39,46.7-.58,9.4-1.29,18.79-2.25,28.1-1.83,17.73-4.26,35.29-7.43,52.62a642.45,642.45,0,0,1-18.05,74.58q-2.38,7.73-4.79,15.44c-.74,1.08-1.43,2.23-2.22,3.21-3.68,4.55-7.32,9.14-11.07,13.54A340.34,340.34,0,0,1,841,762c-1.78,1.24-3.76,2-5.27,4H688.32c-.25-.54-.65-.59-1-.74a318.84,318.84,0,0,1-32.42-13.92A308.92,308.92,0,0,1,615.78,728a366.25,366.25,0,0,1-52.59-45.19,439.13,439.13,0,0,1-39.71-47.37Q510.15,617,498.07,596.83a579.24,579.24,0,0,1-34.68-68.2,660.71,660.71,0,0,1-29.76-85.18A730.93,730.93,0,0,1,416,361.21c-3.51-22.56-6-45.35-7.58-68.38-.94-13.51-1.38-27.07-1.7-40.62-.38-15.94.05-31.87.72-47.8.58-14,1.65-28,2.93-41.87,1.11-12.16,2.67-24.2,4.29-36.23.54-4,1.53-8,1.63-12.13a10.74,10.74,0,0,0,.68-2.6,27.57,27.57,0,0,1,1.54-7.71c1.77-6.17,3.73-12.22,5.65-18.29,3.17-10,6.7-19.77,10.43-29.37,2.41-6.21,4.9-12.36,7.36-18.54a6.43,6.43,0,0,1,.91-1.11,148.32,148.32,0,0,1,13.68-9.49,15.13,15.13,0,0,1-.34,1.68c-1.69,5.48-3.42,10.92-5.09,16.41-4.12,13.58-7.71,27.47-10.95,41.55q-3.9,16.92-6.92,34.24-3.21,18.3-5.48,36.94-2.22,18.45-3.53,37.09c-.72,10.09-1.45,20.19-1.64,30.31-.33,17.34-.48,34.7.23,52.06.53,12.84,1.4,25.61,2.42,38.38.87,11,2.18,21.92,3.63,32.78q3.62,27.08,9.32,53.39,6.73,31.44,16.24,61.26a575.29,575.29,0,0,0,29.46,74.53,493.32,493.32,0,0,0,28.86,52q10,15.74,21.06,30Q544.5,633.58,556,646c.31.33.66,1.18,1.21.19a11.29,11.29,0,0,0-.53-1.11c-7-11.63-13.59-23.83-19.81-36.43A568.14,568.14,0,0,1,511.06,547c-3.53-9.93-6.76-20.08-9.79-30.36q-5.89-20-10.57-40.63c-3.34-14.77-6.23-29.74-8.58-44.92-1.69-10.91-3.28-21.86-4.44-32.93-1.27-12.23-2.36-24.49-3.08-36.83-.54-9.41-1-18.83-1.19-28.24-.28-13.1-.29-26.2.19-39.32q.58-15.9,1.55-31.75c.87-13.86,2.29-27.61,4-41.26,2.95-23,6.91-45.56,12-67.69a649.18,649.18,0,0,1,18.46-64.89c4.39-12.75,9.09-25.23,14.2-37.36Q534.14,26.44,546.25,4a4.49,4.49,0,0,0,1-3.13h-1.94q-38.75,0-77.51,0c-.71,0-1.43.07-2.15.11C455,.87,444.4.79,433.77.78q-25.8,0-51.58,0a4.11,4.11,0,0,0-3.6,1.39c-4.21,4.88-8.42,9.76-12.49,14.92a408.75,408.75,0,0,0-24.47,34.42A456,456,0,0,0,316.37,96.9a521.54,521.54,0,0,0-28,70.81,585.2,585.2,0,0,0-18.53,76.17,630.66,630.66,0,0,0-8.34,72.06c-.7,12.25-1,24.5-1.15,36.77-.1,7.07.19,14.15.27,21.24.1,8.38.61,16.73,1.16,25.06.74,11.26,1.84,22.46,3.17,33.62q3.58,30.19,10,59.33c3,13.6,6.43,26.91,10.29,40a8.29,8.29,0,0,0,1.16,3.06,4.28,4.28,0,0,0-.07-2.36c-2.63-16.06-4.45-32.35-5.82-48.73-1.1-13.11-1.6-26.32-1.94-39.52-.34-13.46.06-26.92.45-40.37a8.39,8.39,0,0,1,.36-2.75,5.25,5.25,0,0,1,.59,2.26c1.46,8.21,2.79,16.48,4.42,24.62q5.33,26.67,12.68,52.29,7.21,25,16.21,48.58A535.81,535.81,0,0,0,339,586.22c6,11.4,12.24,22.45,18.92,32.94a438.74,438.74,0,0,0,25.34,36.19,394.35,394.35,0,0,0,26.25,30.29,356.78,356.78,0,0,0,29.05,26.87,283.61,283.61,0,0,0,35.22,24.94,246.68,246.68,0,0,0,40.46,19.73c3.94,1.48,7.84,3.28,11.91,3.89A23.53,23.53,0,0,1,530.89,766ZM338,679.46c0,.39,0,.66.3.36l-.34-.31c-.09-.25-.11-.87-.37-.18C337.51,679.44,337.78,679.59,338,679.46Zm691.67-1.18c1.09-1,2.19-2,3.25-3a380.7,380.7,0,0,0,41-49,440.16,440.16,0,0,0,28.85-46.9,513.2,513.2,0,0,0,24.23-52.29,583.13,583.13,0,0,0,25.6-81.45,650.78,650.78,0,0,0,13.1-75.3q3-26,3.93-52.37c.4-11.06.75-22.15.41-33.27-.38-12.5-.74-25-1.52-37.46q-1.12-17.64-3.18-35-3.35-28.26-9.12-55.68a600.33,600.33,0,0,0-23-81.21,526.73,526.73,0,0,0-32.41-72.23c-.9-1.64-1.79-2.32-3.21-2.32q-44.52.07-89,.06c-.58,0-1.26-.34-1.76.41,0,1.1.63,1.39,1,1.89,4.76,6,9.38,12.15,13.88,18.52a454.42,454.42,0,0,1,25.68,41.11,524.56,524.56,0,0,1,36.79,83.17c5.29,15.24,9.91,30.94,14,47q6.24,24.54,10.54,50,4.74,28.35,7.06,57.4c1.19,15,1.94,30.08,2.12,45.18.13,10,.09,20.07-.25,30.11-.31,9-.61,17.93-1.29,26.83-1,13.24-2.24,26.43-4,39.54-2.46,18.79-5.63,37.29-9.62,55.49a586.6,586.6,0,0,1-25.39,85.08,498.08,498.08,0,0,1-39.78,81.41c-2.79,4.55-5.64,9-8.46,13.51a3.65,3.65,0,0,0-1.34,2.75A4,4,0,0,0,1029.63,678.28Zm-692.42.28c-62.07-97.3-92.25-212.2-89-345.83C253.61,199.12,291.3,89.09,359.31,1.12a4.9,4.9,0,0,0-2.73-.3c-29.11,0-58.23,0-87.35-.09-2.17,0-3.5,1.08-4.78,3.48-7.16,13.47-14,27.32-20.17,41.8a575.12,575.12,0,0,0-31.16,95.11c-4.21,17.84-7.6,36-10.32,54.48-2.14,14.54-3.74,29.21-5,44-1,12.65-1.58,25.37-1.88,38.11-.45,18.31-.07,36.61.95,54.87.69,12.33,1.81,24.6,3.16,36.84q3.42,30.8,9.69,60.55A585.88,585.88,0,0,0,239,527.5a489.64,489.64,0,0,0,40.73,80.39q11.14,17.61,23.45,33.47A370.76,370.76,0,0,0,335,677.25C335.56,677.81,336,678.74,337.21,678.56ZM1079.55,534a8.45,8.45,0,0,0,1.34-3.15c1.17-4,2.33-8,3.43-12.08q6.4-23.52,10.82-48c2.46-13.55,4.52-27.24,6.07-41.09q1.86-16.57,2.93-33.3c.5-7.87,1-15.75,1.15-23.63.27-13.69.43-27.4-.23-41.09-.42-8.7-.84-17.4-1.44-26.08-.72-10.57-1.79-21.05-3.09-31.48q-3.81-30.47-10.46-59.87-6.24-27.39-14.77-53.39a518.7,518.7,0,0,0-27.47-67.24,445.34,445.34,0,0,0-24.21-43q-7.82-12.24-16.26-23.59-9.51-12.73-19.66-24.3a4.92,4.92,0,0,0-3.93-2q-61,.06-121.91,0c-.74,0-1.47.09-2.21.14C938.56,32.36,1000.58,98,1043.28,201,1086.06,304.15,1096.73,415.83,1079.55,534ZM776,294.39A69.78,69.78,0,0,0,773.13,274c-2.41-8.39-7-15.65-12.27-22.49-7.9-10.21-17.32-18.63-29.36-23.86a53.29,53.29,0,0,0-34-3.18,72.37,72.37,0,0,0-28.13,13.72c-21.69,16.72-37.54,37.69-46.53,63.5a63.44,63.44,0,0,0-3.72,25,37.76,37.76,0,0,0,5.53,18,60.81,60.81,0,0,0,19.14,19.2c21,13.37,43.77,18,68.35,13.41a70,70,0,0,0,37.41-19.7C767,340.06,775.31,318.76,776,294.39ZM160.21,417.93l-.36.05c0,.7,0,1.41,0,2.11.4,15.34,1.41,30.59,2.76,45.8q1.9,21.41,5.15,42.45a674.64,674.64,0,0,0,14.52,70A603.36,603.36,0,0,0,203.67,644a501.52,501.52,0,0,0,32.45,67.89,409.65,409.65,0,0,0,34.19,50.58,4.78,4.78,0,0,0,4.09,2.14c18-.06,36,0,54,0h2.3a12.9,12.9,0,0,0-3.11-3.27A274.71,274.71,0,0,1,306.47,743a365.2,365.2,0,0,1-35.67-39.43c-8-10.22-15.69-20.87-22.92-32.22a513.09,513.09,0,0,1-30.78-55.61A593.75,593.75,0,0,1,191.88,554a670.14,670.14,0,0,1-21.71-78.57c-2.85-13.39-5.38-26.92-7.46-40.62C161.86,429.16,161,423.54,160.21,417.93ZM850.52,220v4.55a40.72,40.72,0,0,1-7.72,23.74,33.49,33.49,0,0,1-7.47,7.7,2.72,2.72,0,0,1-3,.32,19.69,19.69,0,0,0-16.87.81,43,43,0,0,0-6.77,4.49,4.66,4.66,0,0,0-1.58,5.38,5.68,5.68,0,0,0,4.48,4.17,34.73,34.73,0,0,0,16.8-.08c3.93-1,3.93-1,5.72,2.64.21.43.38.88.56,1.33a57,57,0,0,1,2.15,36.16,13.78,13.78,0,0,1-2.09,4.29,4.69,4.69,0,0,1-3.07,2.07,18.44,18.44,0,0,1-12.13-1.3,48.28,48.28,0,0,1-12.67-8.91,127.87,127.87,0,0,1-13-15,11.68,11.68,0,0,0-2.45-2.61,5.19,5.19,0,0,0-6.79.38,5.3,5.3,0,0,0-.77,7.15,142.74,142.74,0,0,0,16.45,19,51.1,51.1,0,0,0,16.07,10.63,30.5,30.5,0,0,0,17.84,1.48c5.71-1.22,9.29-5,11.58-10.16a46.78,46.78,0,0,0,3.74-17.21c.54-12.24-1-24.07-7.06-35-.55-1-.45-1.58.47-2.14a7.18,7.18,0,0,0,.74-.6A48.42,48.42,0,0,0,860,236a96.87,96.87,0,0,0,2-20.23,39.07,39.07,0,0,0-3.65-17.91,16.14,16.14,0,0,0-8.07-7.83,24.27,24.27,0,0,0-13.09-1.83,55,55,0,0,0-15.33,4.43,138.11,138.11,0,0,0-20,11.22c-10.13,6.52-19.72,13.82-29.47,20.9-3.61,2.62-7.34,5.08-10.95,7.72a5.6,5.6,0,0,0-1.29,8.05c1.85,2.68,4.46,3.1,7.46,1q5.52-3.78,10.92-7.76c9.7-7.14,19.15-14.63,29.33-21.1a112.75,112.75,0,0,1,24.57-12.18,26.31,26.31,0,0,1,9.14-1.57,7.89,7.89,0,0,1,7.69,5.39,23,23,0,0,1,.7,2.28C851.16,211,851,215.49,850.52,220ZM565.32,331.25c-.07.92-.75,1.44-1.2,2.06a79.51,79.51,0,0,0-12.24,24.47c-1.76,5.92-2.87,11.92-2,18.14,1.31,9.05,8.08,15,17.25,15.08,5.39.06,10.41-1.49,15.31-3.51,13.68-5.66,25.35-14.45,36.75-23.62,2.27-1.84,2.33-4.57.4-6.75a6.1,6.1,0,0,0-8.6-.71c-4.51,3.57-9,7.13-13.75,10.42-6.64,4.62-13.56,8.73-21.26,11.37a26.08,26.08,0,0,1-8.4,1.79c-3.87,0-6-1.77-6.51-5.57a24.91,24.91,0,0,1,.21-8.57,64.12,64.12,0,0,1,14.77-29.6c2.23-2.61,4.62-4.84,8.39-4.65a.85.85,0,0,0,.23,0,26.26,26.26,0,0,0,13.49-6.83,4.8,4.8,0,0,0,1.42-5.43,5.48,5.48,0,0,0-4.71-3.9,20.63,20.63,0,0,0-6,.19,31,31,0,0,0-11.87,4.92,4.27,4.27,0,0,1-3.13.75A54,54,0,0,1,558,316.92a31.2,31.2,0,0,1-12.16-9.09,11.64,11.64,0,0,1-2.57-5.58c-.7-5,2-9.46,7-11.52a28.73,28.73,0,0,1,12.48-1.81,85.82,85.82,0,0,1,25.51,5.14c6.67,2.46,13.32,5,18.24,10.58,1.36,1.54,3.49,1.51,5.31.46a6,6,0,0,0,1.63-9.06,23,23,0,0,0-6.2-5.21,94.29,94.29,0,0,0-31.36-11.39,66.09,66.09,0,0,0-21.23-1c-7.22,1-13.57,3.68-18.17,9.57s-5.82,12.62-3,19.78a28.91,28.91,0,0,0,6.28,9.52c6.19,6.46,13.84,10.43,22.34,12.93A13.6,13.6,0,0,1,565.32,331.25Zm514.07,204.24-.09-.26c0,.06-.13.13-.12.16s.09.25.14.37A2.68,2.68,0,0,0,1079.39,535.49Z"/><path class="cls-2" d="M0,.16C1.3.14,2.58.1,3.86.1H250.79c-2.37,5.64-5.1,10.21-7.35,15.25s-4.72,10.14-7,15.29S232,40.79,229.92,46s-4.12,10.7-6.19,16S219.78,72.86,218,78.39s-3.65,11.07-5.37,16.68-3.3,11.05-4.84,16.63-3.12,11.42-4.54,17.2-2.7,11.65-4,17.51-2.5,11.74-3.61,17.67-2.09,11.9-3.1,17.87-1.73,11.78-2.57,17.68-1.52,12.09-2.18,18.17-1.07,12.19-1.7,18.26-.84,12.24-1.22,18.37-.7,12-.87,18.06-.13,12.33-.14,18.49,0,12.33.08,18.5.29,12.31.59,18.45.74,12,1.19,18,1,12.22,1.57,18.31,1.29,12.15,2.06,18.19,1.64,12.06,2.56,18.05,1.91,12,3,17.92,2.19,11.63,3.4,17.39,2.53,11.72,3.91,17.52,2.83,11.58,4.36,17.31,3.13,11.41,4.82,17,3.4,11,5.19,16.41,3.69,11.05,5.65,16.48,4,10.79,6.12,16.1,4.28,10.56,6.52,15.75,4.55,10.32,6.92,15.37,4.75,9.83,7.2,14.65,5,9.8,7.65,14.58,5.32,9.47,8.06,14.09,5.53,9.21,8.39,13.68,5.69,8.67,8.61,12.89,6,8.55,9.08,12.67,6.25,8.12,9.44,12,6.43,7.81,9.71,11.58,6.49,7.33,9.8,10.84,6.83,7,10.3,10.42,7,6.7,10.53,9.89,7.15,6.29,10.79,9.27,7.32,5.82,11,8.59,7.31,5.36,11,7.88,7.58,5,11.43,7.37,7.71,4.59,11.61,6.7,7.83,4.1,11.78,6,7.75,3.72,11.68,5.3,8,3.37,12.05,4.65a81.37,81.37,0,0,1,12,4.73h-2.44q-39.47,0-79,0A10,10,0,0,1,357,764a275.85,275.85,0,0,1-41.83-32.35,334.3,334.3,0,0,1-27.54-29,394.43,394.43,0,0,1-32.37-44.38A501,501,0,0,1,218.94,589a610,610,0,0,1-25.24-70.57q-7.45-25.65-13-52.32-5.14-24.76-8.46-50.23-2.13-16.2-3.67-32.53c-.66-6.91-1.08-13.86-1.53-20.81q-2-31.17-1.39-62.47c.25-12.41.86-24.81,1.66-37.19,1-15.8,2.69-31.44,4.54-47,.45-3.84,1.05-7.64,1.61-11.45a13.1,13.1,0,0,0,.2-3.27,137.82,137.82,0,0,0-4.09,14.58,717.56,717.56,0,0,0-14.87,75.57c-2,14-3.55,28.15-4.75,42.34-.77,9.14-1.28,18.34-1.71,27.56-.81,16.92-1.12,33.84-.8,50.78.21,10.64.56,21.27,1.25,31.89.57,9,1.17,17.9,2,26.8.63,6.56,1.32,13.09,2.11,19.61q1.59,12.92,3.55,25.71c2.81,18.12,6.33,35.94,10.45,53.5a632.17,632.17,0,0,0,18.64,64.25A548.77,548.77,0,0,0,220.08,713,437.23,437.23,0,0,0,252,764.07a3.77,3.77,0,0,1,.35.87c-.38,1-1,.59-1.51.64-.72.07-1.44,0-2.16,0H1.45a14,14,0,0,0-1.43.12Z"/><path class="cls-3" d="M990.18,732.61a169.09,169.09,0,0,0,15-10.63,334.89,334.89,0,0,0,34.47-30.64,390.76,390.76,0,0,0,35.77-42.18c7.82-10.62,15.3-21.72,22.39-33.4a506.29,506.29,0,0,0,27.42-51.9,550.43,550.43,0,0,0,21-52.76,629.66,629.66,0,0,0,21.31-79.31c3.9-19.48,7-39.2,9.26-59.22q2.09-18.78,3.11-37.79c.51-9.71.71-19.43,1-29.15.43-12.37.06-24.7-.32-37-.47-15.16-1.55-30.27-3.05-45.31-1.47-14.68-3.34-29.23-5.71-43.63q-4.14-25.26-10.15-49.72a601.28,601.28,0,0,0-29.64-90.18c-5.45-12.9-11.24-25.45-17.52-37.5-.24-.46-.42-1-.61-1.44.36-1.15,1-.65,1.5-.73a8.76,8.76,0,0,1,1.45,0h245.3c1,0,1.93.06,2.9.08V767.41c-1,0-2.09-.09-3.14-.09H1112.26a1.8,1.8,0,0,1,.39-1.56c2.26-3.21,4.59-6.31,6.79-9.61,7.51-11.24,14.76-22.84,21.56-35a545.84,545.84,0,0,0,39.26-88.64,655.25,655.25,0,0,0,23-85.22q5.76-28.87,9.3-58.48,3.11-26.29,4.33-52.95c.52-11.49.93-23,.92-34.53,0-14.13-.49-28.23-1.16-42.33-.53-10.9-1.26-21.76-2.29-32.56-1.79-18.79-4.23-37.41-7.43-55.81-3.78-21.75-8.39-43.08-14.06-63.91a10.57,10.57,0,0,0-1.45-3.83,63.18,63.18,0,0,0,1,8.42c1.84,14.22,3.39,28.49,4.54,42.87,1,12.15,1.76,24.32,2.06,36.52.45,17.8.54,35.61-.21,53.43q-.69,16.35-1.9,32.61c-1.07,14.52-2.65,28.91-4.6,43.21q-4,29.14-10.29,57.39a650.53,650.53,0,0,1-18.22,65.86,580.72,580.72,0,0,1-25.52,63.69,485.31,485.31,0,0,1-35.32,62.57q-9.84,14.69-20.59,27.94a334.37,334.37,0,0,1-42.33,44,284.89,284.89,0,0,1-34,25.09,5.87,5.87,0,0,1-3.28.83q-16.63,0-33.29,0c-.8,0-1.6-.11-2.4-.16a4.76,4.76,0,0,1,1.12-2.23q9.52-12.66,18.09-26.73A29.53,29.53,0,0,1,990.18,732.61Z"/><path class="cls-4" d="M992.11,731a29.67,29.67,0,0,0-3.94,5.57q-8.52,14-18,26.67a4.85,4.85,0,0,0-1.12,2.23,3.76,3.76,0,0,0-1.85,2.39H835.68c1.51-2.06,3.49-2.81,5.27-4.05a340.93,340.93,0,0,0,64.24-58.87c3.75-4.41,7.39-9,11.07-13.58.79-1,1.48-2.15,2.22-3.22a5.23,5.23,0,0,0,1-.87c2.53-3.44,5.07-6.86,7.54-10.4,7-10,13.78-20.43,20.17-31.34,2-3.48,4.08-7,6-10.6,3.35-6.31,6.69-12.64,9.86-19.16q10.65-21.9,19.44-45.55,4.92-13.22,9.12-27c2.61-8.5,5.07-17.1,7.29-25.85,2.67-10.51,5.14-21.14,7.2-32,1.58-8.29,3.06-16.62,4.33-25,1.41-9.32,2.65-18.69,3.65-28.12.62-5.82,1.18-11.66,1.55-17.52q.58-9.17,1.15-18.32c.45-7.44.22-14.87.7-22.3.61-9.55-.41-19.14-.37-28.73,0-4.62-.28-9.24-.63-13.78-.69-9-1.28-18-2.18-27-1-9.92-2.2-19.79-3.67-29.55-2.63-17.41-5.86-34.58-9.87-51.42-1.67-7-3.43-14-5.33-20.91q-4.25-15.43-9.2-30.41-4.1-12.44-8.66-24.49c-4.19-11-8.64-21.83-13.41-32.33a6.65,6.65,0,0,1-.84-2.89l0-.06c.69.34,1.08,1.6,1.94,1.43l0,0,.48.9,4.36,6.79c.2,1,.68,1.53,1.37,1.66h0l.53.68,0,0a.92.92,0,0,0,.51.77l0,0a1,1,0,0,0,.5.77l0,0a1,1,0,0,0,.5.77l0,0a1,1,0,0,0,.5.75l0,0a1.5,1.5,0,0,0,.59,1.38l-.05-.08a1.84,1.84,0,0,0,1,1.5l0,0,.51.89c10.23,15.38,19.05,32.51,27.71,49.81a532.13,532.13,0,0,1,23.25,54.25A604.74,604.74,0,0,1,1050.9,318q4.65,21.85,7.76,44.31,3.13,22.78,4.61,46c1,15,1.47,30,1.3,45.05q-.27,23.28-2.14,46.39a603.89,603.89,0,0,1-9.94,70.45,551.09,551.09,0,0,1-13.58,53.48,511,511,0,0,1-24.53,64.25q-9.57,20.68-20.68,39.6C993.09,728.59,992.23,729.43,992.11,731Z"/><path class="cls-4" d="M416.26,113.84c-.1,4.18-1.09,8.11-1.63,12.17-1.62,12.07-3.18,24.14-4.29,36.35-1.28,14-2.35,27.93-2.93,42-.67,16-1.1,32-.72,48,.32,13.6.76,27.2,1.7,40.76,1.59,23.11,4.07,46,7.58,68.61a735.63,735.63,0,0,0,17.66,82.51,664.42,664.42,0,0,0,29.76,85.47,581.09,581.09,0,0,0,34.68,68.43q12.06,20.28,25.41,38.7a440.18,440.18,0,0,0,39.71,47.53,366.22,366.22,0,0,0,52.59,45.34,309.61,309.61,0,0,0,39.08,23.46,321.55,321.55,0,0,0,32.42,14c.39.14.79.2,1,.74H530.89a23.43,23.43,0,0,0-4.76-5,5.41,5.41,0,0,0-1.25-2.11c-3.65-4.2-7.13-8.71-10.74-13C509,741.69,504.09,735,499.3,728.3,490.45,715.83,482,702.79,474,689.05c-4.38-7.51-8.62-15.18-12.79-22.93-5.16-9.6-9.91-19.68-14.56-29.85-3.72-8.12-7.2-16.46-10.61-24.88q-5.49-13.53-10.38-27.56-6.42-18.27-11.9-37.21-4.87-17-9-34.35c-2.64-11-4.87-22.25-7.05-33.49-1.31-6.8-2.46-13.68-3.54-20.58C393,451,392,443.7,391,436.42c-.82-6.24-1.58-12.5-2.18-18.79-.54-5.72-1.28-11.38-1.62-17.15s-.94-11.45-1.25-17.2c-.23-4.34-.35-8.74-.64-13-.5-7.31-.57-14.63-.73-21.92q-.48-22.17.34-44.37c.17-4.72.35-9.45.64-14.13.52-8.2.87-16.43,1.76-24.58.63-5.82,1-11.7,1.6-17.51.82-7.31,1.79-14.59,2.77-21.87.83-6.23,1.66-12.48,2.67-18.66,1.24-7.57,2.57-15.11,4.05-22.58,1.88-9.51,3.79-19,6-28.39,2.72-11.61,5.61-23.14,9-34.37C414.23,119.12,414.48,115.85,416.26,113.84Z"/><path class="cls-1" d="M967.2,767.85a3.76,3.76,0,0,1,1.85-2.39c.8,0,1.6.16,2.4.16q16.54,0,33.11,0a5.83,5.83,0,0,0,3.27-.83,284.49,284.49,0,0,0,33.87-25,334.61,334.61,0,0,0,42.11-43.95q10.67-13.27,20.48-27.89a482,482,0,0,0,35.14-62.43A579.9,579.9,0,0,0,1164.82,542a650,650,0,0,0,18.12-65.71q6.25-28.19,10.24-57.27c1.94-14.26,3.51-28.62,4.58-43.11q1.2-16.25,1.89-32.54c.74-17.78.65-35.55.21-53.31-.3-12.17-1.08-24.32-2-36.44-1.15-14.35-2.69-28.59-4.52-42.78a62.93,62.93,0,0,1-1-8.4,10.54,10.54,0,0,1,1.43,3.82c5.65,20.79,10.24,42.08,14,63.78q4.77,27.54,7.39,55.68c1,10.77,1.75,21.61,2.27,32.49.68,14.07,1.15,28.14,1.16,42.24,0,11.5-.39,23-.92,34.45q-1.22,26.56-4.3,52.84-3.49,29.55-9.26,58.34a655.52,655.52,0,0,1-22.85,85,546.45,546.45,0,0,1-39.06,88.44c-6.77,12.18-14,23.75-21.45,35-2.19,3.29-4.51,6.38-6.76,9.58a1.8,1.8,0,0,0-.38,1.56H1362c1,0,2.08.06,3.12.09,0,1.17.29,2.75-1.21,2.15a2.52,2.52,0,0,0-1,0Zm68-1.58a1.35,1.35,0,0,0,.35.11q28.44,0,56.88.08a3.57,3.57,0,0,0,2.79-1.7q9-11.5,17.46-23.84c4.16-6.07,8-12.51,12-18.88,4.81-7.78,9.33-15.92,13.68-24.26a534.7,534.7,0,0,0,26.28-58.93q10.5-27.83,18.41-57.42,6.51-24.25,11.15-49.48a693.61,693.61,0,0,0,9.69-74.11c.88-11.77,1.78-23.52,1.94-35.37,0-1.74.63-3.46.1-5.34-.22,1.13-.48,2.13-.61,3.16-1.54,11.37-3.28,22.67-5.32,33.87-3.26,17.84-7.07,35.41-11.57,52.66q-7.4,28.35-17,55.25-7.73,21.72-16.84,42.2-9,20.21-19.21,39Q1128,657,1119.88,669.84a436.54,436.54,0,0,1-31.1,43.31,368.89,368.89,0,0,1-28,30.41,281.7,281.7,0,0,1-24.42,21.16A1.93,1.93,0,0,0,1035.22,766.27Z"/><path class="cls-2" d="M416.26,113.84c-1.78,2-2,5.28-2.86,8-3.38,11.23-6.27,22.76-9,34.37-2.19,9.36-4.1,18.88-6,28.39-1.48,7.47-2.81,15-4.05,22.58-1,6.18-1.84,12.43-2.67,18.66-1,7.28-1.95,14.56-2.77,21.87-.65,5.81-1,11.69-1.6,17.51-.89,8.15-1.24,16.38-1.76,24.58-.29,4.68-.47,9.41-.64,14.13q-.82,22.19-.34,44.37c.16,7.29.23,14.61.73,21.92.29,4.31.41,8.71.64,13,.31,5.75.91,11.46,1.25,17.2s1.08,11.43,1.62,17.15c.6,6.29,1.36,12.55,2.18,18.79,1,7.28,2,14.56,3.11,21.78,1.08,6.9,2.23,13.78,3.54,20.58,2.18,11.24,4.41,22.47,7.05,33.49q4.15,17.37,9,34.35,5.44,19,11.9,37.21,4.91,14,10.38,27.56c3.41,8.42,6.89,16.76,10.61,24.88,4.65,10.17,9.4,20.25,14.56,29.85,4.17,7.75,8.41,15.42,12.79,22.93,8,13.74,16.46,26.78,25.31,39.25,4.79,6.74,9.66,13.39,14.84,19.52,3.61,4.26,7.09,8.77,10.74,13a5.41,5.41,0,0,1,1.25,2.11c-4.06-.61-8-2.42-11.9-3.9a247,247,0,0,1-40.46-19.79,284.45,284.45,0,0,1-35.22-25,358.09,358.09,0,0,1-29.05-27,394.19,394.19,0,0,1-26.25-30.39,441,441,0,0,1-25.34-36.31C351.23,610,345,598.9,339,587.46a539.75,539.75,0,0,1-25.74-57.35q-9-23.68-16.21-48.75-7.4-25.68-12.68-52.47c-1.63-8.17-3-16.46-4.42-24.7a5.33,5.33,0,0,0-.59-2.27c0-7.92.81-15.73,1.37-23.59.59-8.33,1.64-16.54,2.5-24.8.49-4.65,1.21-9.25,1.85-13.87,1.51-10.87,3.39-21.6,5.47-32.25,2-10.22,4.23-20.34,6.79-30.28,4.57-17.68,9.65-35,15.67-51.75q7-19.42,15.1-37.85C332.25,178,336.87,169,341.53,160c5.26-10.12,10.76-19.94,16.67-29.19,9.44-14.77,19.22-29,29.94-41.86,7-8.37,14.19-16.44,21.61-24a332.89,332.89,0,0,1,29.08-26c1-.78,1.91-1.77,3.09-1.84-2.46,6.2-4.95,12.38-7.36,18.61-3.73,9.63-7.26,19.4-10.43,29.47-1.92,6.09-3.88,12.16-5.65,18.35a27.7,27.7,0,0,0-1.54,7.74A10.93,10.93,0,0,1,416.26,113.84Z"/><path class="cls-3" d="M965.31,114c-.86.17-1.25-1.09-1.94-1.43l-.24-.3.2.36a6.65,6.65,0,0,0,.84,2.89c4.77,10.5,9.22,21.31,13.41,32.33q4.57,12,8.66,24.49,4.95,15,9.2,30.41c1.9,6.9,3.66,13.88,5.33,20.91,4,16.84,7.24,34,9.87,51.42,1.47,9.76,2.67,19.63,3.67,29.55.9,9,1.49,18,2.18,27,.35,4.54.65,9.16.63,13.78,0,9.59,1,19.18.37,28.73-.48,7.43-.25,14.86-.7,22.3q-.56,9.15-1.15,18.32c-.37,5.86-.93,11.7-1.55,17.52-1,9.43-2.24,18.8-3.65,28.12-1.27,8.42-2.75,16.75-4.33,25-2.06,10.82-4.53,21.45-7.2,32-2.22,8.75-4.68,17.35-7.29,25.85q-4.23,13.74-9.12,27-8.79,23.65-19.44,45.55c-3.17,6.52-6.51,12.85-9.86,19.16-1.91,3.63-4,7.12-6,10.6-6.39,10.91-13.16,21.3-20.17,31.34-2.47,3.54-5,7-7.54,10.4a5.23,5.23,0,0,1-1,.87q2.4-7.75,4.79-15.5a646.15,646.15,0,0,0,18.05-74.83c3.17-17.39,5.6-35,7.43-52.79,1-9.35,1.67-18.77,2.25-28.21,1-15.59,1.38-31.2,1.39-46.85,0-13.16-.33-26.31-1.12-39.41a720.63,720.63,0,0,0-7.84-72.13,663.31,663.31,0,0,0-20.24-87.55,567.19,567.19,0,0,0-39.72-97.45c-5.88-11.23-12.14-22-18.66-32.45a415.68,415.68,0,0,0-40.58-54.73,337.76,337.76,0,0,0-47.71-44.94,276.42,276.42,0,0,0-52.46-32c-6.17-2.85-12.39-5.48-18.68-7.73A2.93,2.93,0,0,1,703.45.26c.86-.07,1.51-.17,2.17-.17q57.72,0,115.43,0c3.74,0,7.23,1.89,10.77,3.22a246.45,246.45,0,0,1,54.74,29.06,295.4,295.4,0,0,1,53.29,48.27,359.83,359.83,0,0,1,23.24,29.71A12.07,12.07,0,0,1,965.31,114Z"/><path class="cls-4" d="M337.21,680.11c-1.17.19-1.65-.75-2.22-1.31a370,370,0,0,1-31.8-36q-12.31-15.87-23.45-33.58A492.11,492.11,0,0,1,239,528.55a589.39,589.39,0,0,1-29.25-97.9q-6.22-29.88-9.69-60.76c-1.35-12.27-2.47-24.58-3.16-37-1-18.32-1.4-36.68-.95-55.06.3-12.77.84-25.54,1.88-38.24,1.22-14.8,2.82-29.51,5-44.1,2.72-18.53,6.11-36.77,10.32-54.67a578.37,578.37,0,0,1,31.16-95.42c6.21-14.53,13-28.43,20.17-41.95,1.28-2.4,2.61-3.5,4.78-3.49,29.12.13,58.24.08,87.35.1a4.81,4.81,0,0,1,2.73.3c-68,88.26-105.7,198.66-111.09,332.72C245,467.21,275.14,582.48,337.21,680.11Z"/><path class="cls-4" d="M1029.07,679c2.82-4.52,5.67-9,8.46-13.57a499.8,499.8,0,0,0,39.78-81.68,590.3,590.3,0,0,0,25.39-85.36c4-18.26,7.16-36.83,9.62-55.69,1.72-13.14,2.94-26.38,4-39.66.68-8.93,1-17.93,1.29-26.92.34-10.08.38-20.15.25-30.21-.18-15.16-.93-30.27-2.12-45.34q-2.31-29.15-7.06-57.59-4.26-25.53-10.54-50.15c-4.08-16.1-8.7-31.84-14-47.14a526.83,526.83,0,0,0-36.79-83.44A454.33,454.33,0,0,0,1021.64,21c-4.5-6.39-9.12-12.61-13.88-18.58-.4-.5-1-.79-1-1.89.5-.76,1.18-.42,1.76-.42q44.52,0,89,0c1.42,0,2.31.68,3.21,2.32a529.89,529.89,0,0,1,32.41,72.47,603.9,603.9,0,0,1,23,81.49q5.8,27.48,9.12,55.86,2.07,17.48,3.18,35.17c.78,12.52,1.14,25,1.52,37.59.34,11.16,0,22.29-.41,33.38q-.93,26.4-3.93,52.55a654.67,654.67,0,0,1-13.1,75.55,586.53,586.53,0,0,1-25.6,81.73,516.2,516.2,0,0,1-24.23,52.46,441.6,441.6,0,0,1-28.85,47.06,382.51,382.51,0,0,1-41,49.13c-1.06,1.06-2.16,2-3.25,3C1029.44,679.55,1029.26,679.27,1029.07,679Z"/><path class="cls-2" d="M465.67.18c.72,0,1.44-.11,2.15-.11l77.51,0h1.94c.18,1.55-.56,2.3-1,3.15q-12.13,22.5-22.37,47c-5.11,12.18-9.81,24.7-14.2,37.49a652.66,652.66,0,0,0-18.46,65.11c-5.12,22.2-9.08,44.87-12,67.91-1.75,13.7-3.17,27.49-4,41.41q-1,15.91-1.55,31.85c-.48,13.16-.47,26.31-.19,39.45.21,9.45.65,18.9,1.19,28.34.72,12.38,1.81,24.68,3.08,36.95,1.16,11.1,2.75,22.09,4.44,33,2.35,15.23,5.24,30.25,8.58,45.07q4.67,20.73,10.57,40.77c3,10.32,6.26,20.5,9.79,30.46A570.84,570.84,0,0,0,536.89,610c6.22,12.64,12.77,24.88,19.81,36.55a10.46,10.46,0,0,1,.53,1.12c-.55,1-.9.14-1.21-.2Q544.5,635,533.78,621q-11-14.32-21.06-30.09a496.22,496.22,0,0,1-28.86-52.17A578.29,578.29,0,0,1,454.4,464q-9.51-29.91-16.24-61.47-5.66-26.41-9.32-53.57c-1.45-10.89-2.76-21.84-3.63-32.89-1-12.81-1.89-25.62-2.42-38.5-.71-17.42-.56-34.84-.23-52.24.19-10.15.92-20.29,1.64-30.42q1.32-18.71,3.53-37.21Q430,139,433.21,120.62q3-17.36,6.92-34.35c3.24-14.13,6.83-28.06,10.95-41.68,1.67-5.51,3.4-11,5.09-16.47a15.31,15.31,0,0,0,.34-1.69c.52-1.31,1.07-2.61,1.56-3.95,1.61-4.46,3.06-9,4.72-13.47C463.86,6.17,465.19,3.47,465.67.18Z"/><path class="cls-2" d="M1079.55,535.1c17.18-118.6,6.51-230.65-36.27-334.14C1000.58,97.64,938.56,31.74,859.65.25c.74,0,1.47-.14,2.21-.14q60.95,0,121.91,0a4.86,4.86,0,0,1,3.93,2q10.17,11.61,19.66,24.38,8.46,11.36,16.26,23.67a449,449,0,0,1,24.21,43.12,522.54,522.54,0,0,1,27.47,67.47q8.58,26.06,14.77,53.57,6.67,29.49,10.46,60.08c1.3,10.46,2.37,21,3.09,31.58.6,8.71,1,17.44,1.44,26.17.66,13.74.5,27.49.23,41.23-.16,7.9-.65,15.81-1.15,23.71q-1.08,16.78-2.93,33.41c-1.55,13.9-3.61,27.63-6.07,41.22q-4.44,24.56-10.82,48.16c-1.1,4.07-2.26,8.1-3.43,12.13A8.49,8.49,0,0,1,1079.55,535.1Z"/><path class="cls-3" d="M465.67.18c-.48,3.29-1.81,6-2.88,8.83-1.66,4.42-3.11,9-4.72,13.47-.49,1.34-1,2.64-1.56,3.95A146.89,146.89,0,0,0,442.83,36a6.43,6.43,0,0,0-.91,1.11c-1.18.06-2.11,1-3.09,1.83a332.89,332.89,0,0,0-29.08,26c-7.42,7.56-14.59,15.63-21.61,24-10.72,12.81-20.5,27.09-29.94,41.86-5.91,9.25-11.41,19.07-16.67,29.19-4.66,9-9.28,18.05-13.43,27.58Q320,206,313,225.38c-6,16.74-11.1,34.07-15.67,51.75-2.56,9.94-4.8,20.06-6.79,30.28-2.08,10.65-4,21.38-5.47,32.25-.64,4.62-1.36,9.22-1.85,13.87-.86,8.26-1.91,16.47-2.5,24.8-.56,7.86-1.34,15.67-1.37,23.59a8.41,8.41,0,0,0-.36,2.76c-.39,13.5-.79,27-.45,40.51.34,13.25.84,26.49,1.94,39.65,1.37,16.44,3.19,32.78,5.82,48.89a4.32,4.32,0,0,1,.07,2.37,8.27,8.27,0,0,1-1.16-3.07c-3.86-13.14-7.33-26.5-10.29-40.15q-6.36-29.25-10-59.52c-1.33-11.2-2.43-22.44-3.17-33.73-.55-8.36-1.06-16.74-1.16-25.15-.08-7.11-.37-14.22-.27-21.32.17-12.3.45-24.6,1.15-36.88A634.75,634.75,0,0,1,269.81,244a588.54,588.54,0,0,1,18.53-76.42,524.3,524.3,0,0,1,28-71.05A458.74,458.74,0,0,1,341.63,51,410.74,410.74,0,0,1,366.1,16.44c4.07-5.17,8.28-10.07,12.49-15a4.1,4.1,0,0,1,3.6-1.4c17.19,0,34.38,0,51.58,0C444.4.07,455,.14,465.67.18Z"/><path class="cls-5" d="M774.18,294.53c-.67,24.31-8.89,45.56-26.07,63a68.67,68.67,0,0,1-36.88,19.66c-24.22,4.6-46.71,0-67.36-13.38A60.43,60.43,0,0,1,625,344.69a38,38,0,0,1-5.44-17.93,64.06,64.06,0,0,1,3.65-25c8.87-25.75,24.5-46.67,45.87-63.36a71.08,71.08,0,0,1,27.73-13.69,51.92,51.92,0,0,1,33.51,3.17c11.87,5.22,21.16,13.63,28.95,23.81,5.22,6.83,9.71,14.07,12.09,22.44A70.45,70.45,0,0,1,774.18,294.53ZM727.41,250.9a34.51,34.51,0,0,0,0-4.07c-.54-4.67-2.26-8.79-6-11.91a23.56,23.56,0,0,0-14.47-5.6,36.62,36.62,0,0,0-15.44,2.83c-10,4-18.32,10.37-25.95,17.75A150.64,150.64,0,0,0,639.36,284a102,102,0,0,0-10.06,23,39.18,39.18,0,0,0-1.73,13c.35,5.71,3.17,9.59,8.53,11.56a25.08,25.08,0,0,0,11.1,1.33c8.72-.82,16.81-3.74,24.55-7.67a111,111,0,0,0,23.81-16.43c11.39-10.22,20.57-22.07,26.72-36.14C725.31,265.7,727.49,258.55,727.41,250.9Z"/><path class="cls-3" d="M160.21,418.61c.83,5.63,1.65,11.26,2.5,16.89,2.08,13.75,4.61,27.31,7.46,40.75a673.34,673.34,0,0,0,21.71,78.83,597.63,597.63,0,0,0,25.22,62,515.92,515.92,0,0,0,30.78,55.79c7.23,11.39,14.93,22.08,22.92,32.33a365.81,365.81,0,0,0,35.67,39.56,275.63,275.63,0,0,0,21.1,18.32,13.12,13.12,0,0,1,3.11,3.28h-2.3c-18,0-36,0-54,0a4.78,4.78,0,0,1-4.09-2.14,411,411,0,0,1-34.19-50.75,504.53,504.53,0,0,1-32.45-68.12,607.92,607.92,0,0,1-21.39-65.9,679.18,679.18,0,0,1-14.52-70.2q-3.25-21.1-5.15-42.59c-1.35-15.26-2.36-30.57-2.76-46,0-.71,0-1.41,0-2.12Z"/><path class="cls-5" d="M850.44,219.67c.48-4.47.64-8.94-.55-13.34-.21-.76-.43-1.54-.71-2.28a7.89,7.89,0,0,0-7.72-5.39,26.23,26.23,0,0,0-9.16,1.57,112.26,112.26,0,0,0-24.65,12.19c-10.21,6.47-19.68,14-29.42,21.11q-5.41,4-11,7.76c-3,2.06-5.63,1.64-7.48-1a5.62,5.62,0,0,1,1.29-8.07c3.62-2.63,7.36-5.1,11-7.72,9.78-7.08,19.4-14.38,29.56-20.91a138.91,138.91,0,0,1,20.07-11.23,55.55,55.55,0,0,1,15.37-4.44,24.42,24.42,0,0,1,13.13,1.83,16.27,16.27,0,0,1,8.1,7.84A39,39,0,0,1,862,215.49a96.31,96.31,0,0,1-2,20.24A48.41,48.41,0,0,1,843.58,263a5.25,5.25,0,0,1-.74.6c-.92.56-1,1.15-.47,2.15,6,10.91,7.62,22.74,7.08,35a46.6,46.6,0,0,1-3.75,17.22c-2.3,5.16-5.89,8.95-11.62,10.17a30.8,30.8,0,0,1-17.9-1.49A51.22,51.22,0,0,1,800.07,316a143.94,143.94,0,0,1-16.5-19,5.31,5.31,0,0,1,.77-7.16,5.22,5.22,0,0,1,6.81-.38,12,12,0,0,1,2.46,2.61,127.5,127.5,0,0,0,13,15A48.59,48.59,0,0,0,819.32,316a18.53,18.53,0,0,0,12.16,1.3,4.72,4.72,0,0,0,3.08-2.07,13.81,13.81,0,0,0,2.1-4.29,57,57,0,0,0-2.15-36.19c-.18-.45-.36-.89-.57-1.32-1.79-3.63-1.8-3.65-5.73-2.65a35,35,0,0,1-16.86.08,5.69,5.69,0,0,1-4.49-4.18,4.66,4.66,0,0,1,1.59-5.38,42.69,42.69,0,0,1,6.79-4.49,19.78,19.78,0,0,1,16.91-.81,2.75,2.75,0,0,0,3.06-.32,33.18,33.18,0,0,0,7.48-7.71,40.55,40.55,0,0,0,7.75-23.75Z"/><path class="cls-5" d="M565.63,331.18a13.16,13.16,0,0,0-3.18-1c-8.5-2.5-16.15-6.49-22.34-13a29.25,29.25,0,0,1-6.28-9.55c-2.81-7.19-1.67-13.8,3-19.83s10.95-8.59,18.17-9.6a65.81,65.81,0,0,1,21.23,1,93.77,93.77,0,0,1,31.35,11.42,22.57,22.57,0,0,1,6.2,5.23,6,6,0,0,1-1.63,9.08c-1.82,1.06-3.95,1.08-5.31-.46-4.91-5.6-11.57-8.14-18.24-10.61a85.45,85.45,0,0,0-25.5-5.15,28.58,28.58,0,0,0-12.48,1.81c-5,2.07-7.71,6.51-7,11.55a11.77,11.77,0,0,0,2.58,5.6,31.15,31.15,0,0,0,12.16,9.11,53.39,53.39,0,0,0,15.88,4.36,4.25,4.25,0,0,0,3.14-.75,30.93,30.93,0,0,1,11.86-4.93,20.7,20.7,0,0,1,6-.19,5.46,5.46,0,0,1,4.7,3.91,4.83,4.83,0,0,1-1.41,5.44A26.14,26.14,0,0,1,585,331.49a.66.66,0,0,1-.24,0c-3.76-.19-6.15,2.05-8.38,4.66a64.38,64.38,0,0,0-14.77,29.69,25.29,25.29,0,0,0-.22,8.59c.56,3.81,2.65,5.6,6.52,5.59a26.51,26.51,0,0,0,8.39-1.79c7.71-2.66,14.63-6.78,21.27-11.41,4.72-3.29,9.23-6.87,13.75-10.44a6.09,6.09,0,0,1,8.6.7c1.92,2.19,1.87,4.93-.41,6.77-11.4,9.2-23.06,18-36.74,23.69-4.9,2-9.92,3.58-15.31,3.52-9.17-.11-15.94-6-17.25-15.12-.9-6.24.21-12.26,2-18.2a79.6,79.6,0,0,1,12.24-24.53C564.88,332.61,565.56,332.1,565.63,331.18Z"/><path class="cls-2" d="M1029.07,679c.19.27.37.55.56.83a4.06,4.06,0,0,1-1.9,1.92A3.62,3.62,0,0,1,1029.07,679Z"/><path class="cls-3" d="M971.49,123.3c-.69-.13-1.17-.63-1.37-1.66A2.06,2.06,0,0,1,971.49,123.3Z"/><path class="cls-3" d="M975.43,129.61a1.84,1.84,0,0,1-1-1.5C975.07,128.17,975.38,128.7,975.43,129.61Z"/><path class="cls-2" d="M1079.39,536.57a2.68,2.68,0,0,1-.07.27,3.35,3.35,0,0,1-.14-.38s.08-.1.12-.15Z"/><path class="cls-3" d="M974.48,128.19a1.5,1.5,0,0,1-.59-1.38A1.39,1.39,0,0,1,974.48,128.19Z"/><path class="cls-3" d="M975.89,130.46l-.51-.89C975.73,129.64,975.9,129.94,975.89,130.46Z"/><path class="cls-3" d="M973.92,126.84a1,1,0,0,1-.5-.75Z"/><path class="cls-3" d="M973.44,126.13a1,1,0,0,1-.5-.77A.86.86,0,0,1,973.44,126.13Z"/><path class="cls-3" d="M973,125.41a1,1,0,0,1-.5-.77A.88.88,0,0,1,973,125.41Z"/><path class="cls-3" d="M972.5,124.69a.92.92,0,0,1-.51-.77C972.28,124,972.44,124.28,972.5,124.69Z"/><path class="cls-3" d="M972,124l-.53-.68C971.79,123.3,972,123.54,972,124Z"/><path class="cls-3" d="M965.76,114.85l-.48-.9Q965.79,114.09,965.76,114.85Z"/><path class="cls-4" d="M338,681c-.18.13-.45,0-.41-.13.26-.69.28-.07.37.18Z"/><path class="cls-4" d="M337.92,681.07l.34.31c-.33.3-.35,0-.3-.36Z"/><path class="cls-2" d="M1035.22,766.27a1.93,1.93,0,0,1,1.11-1.55,281.7,281.7,0,0,0,24.42-21.16,368.89,368.89,0,0,0,28-30.41,436.54,436.54,0,0,0,31.1-43.31q8.16-12.78,15.56-26.54,10.21-18.85,19.21-39,9.11-20.5,16.84-42.2,9.57-26.9,17-55.25c4.5-17.25,8.31-34.82,11.57-52.66,2-11.2,3.78-22.5,5.32-33.87.13-1,.39-2,.61-3.16.53,1.88-.08,3.6-.1,5.34-.16,11.85-1.06,23.6-1.94,35.37a693.61,693.61,0,0,1-9.69,74.11q-4.65,25.2-11.15,49.48-8,29.58-18.41,57.42a534.7,534.7,0,0,1-26.28,58.93c-4.35,8.34-8.87,16.48-13.68,24.26-4,6.37-7.84,12.81-12,18.88q-8.48,12.33-17.46,23.84a3.57,3.57,0,0,1-2.79,1.7q-28.44-.08-56.88-.08A1.35,1.35,0,0,1,1035.22,766.27Z"/><path class="cls-4" d="M963.33,112.61l-.2-.36.24.3Z"/><path class="cls-1" d="M727.41,250.9c.08,7.65-2.1,14.8-5.13,21.73-6.15,14.07-15.33,25.92-26.72,36.14a111,111,0,0,1-23.81,16.43c-7.74,3.93-15.83,6.85-24.55,7.67a25.08,25.08,0,0,1-11.1-1.33c-5.36-2-8.18-5.85-8.53-11.56a39.18,39.18,0,0,1,1.73-13,102,102,0,0,1,10.06-23,150.64,150.64,0,0,1,26.21-34.1c7.63-7.38,16-13.79,25.95-17.75A36.62,36.62,0,0,1,707,229.32a23.56,23.56,0,0,1,14.47,5.6c3.69,3.12,5.41,7.24,6,11.91A34.51,34.51,0,0,1,727.41,250.9Z"/></g></g></svg>