<svg xmlns="http://www.w3.org/2000/svg" viewBox="0 0 881 800"><defs><style>.cls-1{fill:#fff;}.cls-2{fill:#e7c569;}.cls-3{fill:#de8073;}.cls-4{fill:#a4bf61;}.cls-5{fill:#83633f;}</style></defs><g id="Layer_2" data-name="Layer 2"><g id="Layer_1-2" data-name="Layer 1"><path class="cls-1" d="M342.62,797.92H0V795.7a7,7,0,0,1,.92-.12H160.46a9.22,9.22,0,0,0,1.39,0c.33,0,.73.38,1-.67a5.37,5.37,0,0,0-.23-.9A547.93,547.93,0,0,1,142,740.93a783.4,783.4,0,0,1-22.32-82.27q-7-32.31-12-66.71-4-27.35-6.74-55.54-1.27-13.29-2.29-26.69c-.52-6.77-1-13.55-1.37-20.35-.55-9.25-.93-18.54-1.3-27.83-.44-11-.67-22.06-.81-33.11-.21-17.58,0-35.15.52-52.72.28-9.56.6-19.12,1.1-28.61.78-14.73,1.78-29.41,3.07-44q3.56-40.09,9.59-78.46c.79-5,1.47-10.05,2.65-15.14a22.08,22.08,0,0,1-.14,3.39c-.36,4-.74,7.91-1,11.9-1.19,16.2-2.26,32.44-2.92,48.84-.52,12.86-.92,25.73-1.07,38.61q-.41,32.47.89,64.85c.29,7.22.57,14.44,1,21.61q1,17,2.36,33.77,2.16,26.43,5.47,52.15Q120.21,512.35,125,539q6.9,38.22,16.29,73.26a675.06,675.06,0,0,0,23.41,71.87,455.44,455.44,0,0,0,20.89,46.07,336.39,336.39,0,0,0,17.77,30.13,223,223,0,0,0,27,33.59,4.94,4.94,0,0,0,3.59,1.7c17-.05,34,0,51,0h1.57a43.48,43.48,0,0,0-7.75-4.91,89.94,89.94,0,0,1-7.77-4.82c-2.54-1.65-5-3.57-7.54-5.51s-5.09-4-7.6-6.23-5-4.53-7.5-7-4.94-5-7.37-7.65-4.76-5.35-7.11-8.17-4.77-5.84-7.12-8.93-4.67-6.3-7-9.61-4.56-6.76-6.8-10.27-4.46-7.11-6.65-10.83-4.24-7.4-6.32-11.24-4.21-7.94-6.27-12-4.1-8.24-6.09-12.52-3.94-8.69-5.86-13.16-3.74-8.82-5.56-13.38-3.64-9.39-5.41-14.19-3.51-9.68-5.2-14.64-3.33-10-4.94-15.13-3.14-10.06-4.64-15.21-3-10.57-4.47-16-2.85-10.84-4.21-16.35-2.68-11.07-3.95-16.71-2.47-11.36-3.65-17.11-2.28-11.3-3.35-17-2.12-11.74-3.11-17.68-1.92-11.94-2.81-18-1.73-12.1-2.53-18.2-1.51-12-2.19-18.05-1.32-12.38-1.92-18.61-1.15-12.46-1.65-18.73-.94-12.58-1.33-18.89-.71-12.66-1-19-.58-12.46-.77-18.7-.31-12.76-.38-19.15-.06-12.8-.06-19.21,0-12.8.1-19.2c.1-6.25.32-12.5.56-18.74s.37-12.74.78-19.07.68-12.67,1.1-19,.86-12.61,1.41-18.86,1-12.28,1.66-18.36,1.27-12.4,2-18.55,1.52-12.26,2.34-18.34,1.64-12.17,2.56-18.18,1.91-12,2.93-17.86,2-11.56,3.12-17.27,2.28-11.58,3.46-17.31,2.4-11.46,3.74-17,2.61-11.16,4-16.65,2.77-10.67,4.21-15.91,3-10.55,4.52-15.88,3.21-10,4.74-15.83H2.49C1.67.86.84.91,0,.93.08.7-.14.16.17.18s.83,0,1.24,0Q440.5.19,879.6.23c.45,0,1-.85,1.39.7-.62,0-1.24-.09-1.86-.09H721.64a3.62,3.62,0,0,0-.93,0c-.32.09-.74-.44-1,.76.13.47.24,1,.4,1.49,4,12.48,7.75,25.48,11.25,38.84a916.21,916.21,0,0,1,19,93.42q3.86,25.32,6.52,51.5,2.26,22.38,3.66,45.2c1,15.58,1.66,31.23,2,46.94.24,12.76.48,25.53.2,38.35-.22,10.06-.35,20.13-.67,30.19q-.65,19.69-2,39.14-2.15,31.11-5.94,61.35-5.28,42.57-13.68,82.16-6,28.38-13.5,54.65-8,28.3-17.6,53.77c-4.56,12.09-9.36,23.59-14.38,34.6a415.79,415.79,0,0,1-23,43.68,296,296,0,0,1-22.13,31.74,125.87,125.87,0,0,1-9.61,11,9.94,9.94,0,0,1,1-3.58q7.19-19.62,13.35-41.11,9.12-31.71,15.83-66.7,5.17-27.06,8.76-55.53,4.49-35.9,6.41-73.13,1.22-24,1.38-48.17c.11-15.62-.22-31.21-.84-46.77q-.95-24.06-3-47.72-2-23.31-5-46-6-45.17-15.52-86.7c-4.48-19.57-9.43-38.41-15-56.32s-11.28-35.74-17.89-51.72c0-.53-.1-.84-.32-.92l0,0c0-.95-.24-1.5-.64-1.56l0,.08a1.91,1.91,0,0,0-.37-1.44v0l-.32-.78v0c0-.42-.14-.69-.32-.8l0,0a1,1,0,0,0-.32-.79v.05c0-.43-.14-.71-.32-.8l0,.05c0-.44-.15-.7-.35-.7h0c-.15-1-.47-1.49-.89-1.72L623.27,120c0-.53-.09-.84-.31-.93l0,0a14.94,14.94,0,0,0-1.44-3.79q-7.14-16.38-15-30.84c-10.7-19.72-22.17-36.37-34.4-50.12Q555.1,15.16,536.83,4.18c-2.29-1.38-4.54-3.35-7-3.35q-37.25,0-74.5,0A12.51,12.51,0,0,0,454,1a2.08,2.08,0,0,0,1.24,1.3,123,123,0,0,1,12.06,8c11.7,8.69,23,19.82,33.86,33.27a312.62,312.62,0,0,1,30.79,46.66,481.25,481.25,0,0,1,26.19,56.82c4.2,10.85,8.24,22,12,33.69A823.47,823.47,0,0,1,595.79,282q8.37,44,13.07,90.9c2.49,24.66,4.11,49.65,5.06,74.88q.76,20.4.72,40.92c0,16.25-.28,32.45-.9,48.64-.37,9.8-.83,19.57-1.45,29.28q-1.77,27.69-4.79,54.81c-3,26.64-6.84,52.57-11.65,77.68q-1.54,8.06-3.1,16.09c-.47,1.12-.92,2.32-1.43,3.34-2.37,4.74-4.72,9.52-7.14,14.1-12.82,24.22-26.67,44.49-41.46,61.12-1.15,1.29-2.43,2.07-3.4,4.21h-95.1a1,1,0,0,0-.67-.77,180.13,180.13,0,0,1-20.93-14.5,211.48,211.48,0,0,1-25.22-24.36,318.9,318.9,0,0,1-33.94-47.07,474.08,474.08,0,0,1-25.62-49.35q-8.61-19.12-16.4-40.18-12.36-33.44-22.38-71-11.26-42.35-19.21-88.74-7.14-41.75-11.4-85.66Q265.06,341,263.56,305c-.6-14.09-.89-28.2-1.1-42.32-.24-16.61,0-33.2.47-49.79.37-14.62,1.06-29.12,1.89-43.62.72-12.67,1.72-25.2,2.77-37.73.35-4.22,1-8.29,1.05-12.64a18,18,0,0,0,.44-2.71,44.75,44.75,0,0,1,1-8c1.14-6.43,2.41-12.73,3.65-19.06,2-10.45,4.32-20.59,6.73-30.59,1.56-6.47,3.16-12.88,4.75-19.31a7.37,7.37,0,0,1,.59-1.16,111.86,111.86,0,0,1,8.83-9.88c-.07.58-.12,1.2-.22,1.75-1.09,5.7-2.21,11.38-3.29,17.1-2.66,14.14-5,28.6-7.07,43.27q-2.52,17.63-4.46,35.67-2.07,19.06-3.54,38.48-1.43,19.22-2.28,38.63c-.46,10.51-.93,21-1.06,31.57-.21,18.07-.3,36.16.16,54.24.33,13.37.9,26.67,1.55,40,.57,11.48,1.41,22.84,2.35,34.15q2.33,28.2,6,55.61,4.35,32.76,10.48,63.82,8.06,40.83,19,77.64,8.52,28.64,18.62,54.15,6.48,16.38,13.59,31.24,6.93,14.47,14.35,27.45c.2.35.43,1.23.79.21-.11-.38-.21-.81-.34-1.16-4.55-12.12-8.77-24.83-12.79-38-6.25-20.4-11.75-41.9-16.67-64.26-2.28-10.34-4.36-20.91-6.32-31.62q-3.81-20.8-6.82-42.33-3.24-23.07-5.54-46.79c-1.09-11.37-2.11-22.77-2.86-34.3-.82-12.74-1.53-25.51-2-38.37-.35-9.8-.64-19.6-.77-29.41-.18-13.65-.19-27.3.12-41q.39-16.56,1-33.07c.56-14.44,1.48-28.76,2.62-43q2.85-35.87,7.75-70.5t11.92-67.6q4.24-19.92,9.16-38.91,6.63-25.39,14.44-48.8a6.76,6.76,0,0,0,.66-3.27h-1.25l-50,0c-.47,0-.93.08-1.39.12C293.66.9,286.8.83,279.94.82c-11.1,0-22.19,0-33.29,0a2.25,2.25,0,0,0-2.32,1.45c-2.72,5.09-5.44,10.17-8.06,15.54-5.52,11.31-10.82,23.17-15.8,35.85-5.85,14.94-11.31,30.64-16.3,47.27q-10.47,34.88-18.09,73.76-7.5,38.38-12,79.34-4,37-5.38,75.07c-.46,12.75-.64,25.52-.75,38.29-.07,7.37.12,14.75.18,22.13.06,8.73.39,17.43.74,26.11.48,11.73,1.19,23.39,2.05,35q2.33,31.44,6.45,61.79,2.88,21.25,6.64,41.69a12.58,12.58,0,0,0,.75,3.18,7,7,0,0,0,0-2.46c-1.7-16.73-2.88-33.69-3.76-50.76-.71-13.65-1-27.41-1.25-41.16-.22-14,0-28,.29-42.05a14,14,0,0,1,.23-2.87,8.24,8.24,0,0,1,.39,2.35c.94,8.56,1.8,17.17,2.85,25.65q3.43,27.78,8.18,54.47,4.65,26,10.46,50.61,7.4,31.2,16.61,59.54C222.63,622.52,226.67,634,231,645c5.2,13.19,10.59,25.89,16.36,37.7,5.44,11.15,11,21.75,16.93,31.55a329.69,329.69,0,0,0,18.75,28,216.9,216.9,0,0,0,22.73,26,147.88,147.88,0,0,0,26.12,20.55c2.54,1.54,5.05,3.41,7.68,4A23.59,23.59,0,0,1,342.62,797.92ZM218.1,707.77c0,.4,0,.69.2.37l-.22-.32c-.06-.25-.07-.9-.24-.19C217.82,707.75,218,707.91,218.1,707.77Zm446.39-1.23c.7-1,1.41-2,2.09-3.14a413.16,413.16,0,0,0,26.44-51c6.69-15.23,12.89-31.57,18.62-48.86s11-35.44,15.64-54.47q10-40.52,16.52-84.84,5.63-38.37,8.46-78.44,1.93-27.12,2.53-54.55c.26-11.52.49-23.07.27-34.66-.25-13-.48-26-1-39q-.72-18.36-2.05-36.51-2.16-29.43-5.88-58-5.76-43.94-14.85-84.59A754.64,754.64,0,0,0,710.37,3.22C709.79,1.51,709.21.8,708.3.8c-19.15.06-38.3,0-57.45.06-.38,0-.82-.35-1.14.43a3.33,3.33,0,0,0,.66,2c3.08,6.19,6.06,12.65,9,19.29C665.22,36,670.72,50.33,675.9,65.38A750.31,750.31,0,0,1,699.65,152c3.41,15.88,6.39,32.23,9,48.93q4,25.58,6.81,52.07,3.06,29.53,4.55,59.79,1.15,23.47,1.37,47.07c.08,10.45.06,20.9-.16,31.36-.2,9.34-.4,18.68-.84,27.95-.65,13.78-1.44,27.53-2.55,41.18q-2.39,29.37-6.21,57.81-6.28,46.3-16.38,88.62a691.12,691.12,0,0,1-25.68,84.8c-1.79,4.74-3.64,9.39-5.46,14.08a4.84,4.84,0,0,0-.86,2.86A4,4,0,0,0,664.49,706.54Zm-446.86.29c-40.07-101.36-59.54-221-57.44-360.24C163.67,207.41,188,92.8,231.88,1.17c-.63-.57-1.2-.31-1.76-.31-18.79,0-37.58,0-56.37-.1-1.4,0-2.26,1.12-3.08,3.62-4.62,14-9,28.47-13,43.55A880.94,880.94,0,0,0,137.54,147q-4.08,27.87-6.66,56.75-2.07,22.73-3.2,45.79c-.67,13.17-1,26.43-1.22,39.7-.28,19.07,0,38.14.62,57.15.44,12.85,1.17,25.63,2,38.38q2.2,32.07,6.25,63.07a907.15,907.15,0,0,0,18.88,101.64,671.64,671.64,0,0,0,26.28,83.74q7.2,18.35,15.14,34.87a386.12,386.12,0,0,0,20.52,37.38C216.56,706.05,216.87,707,217.63,706.83ZM696.7,556.28a11.63,11.63,0,0,0,.87-3.28c.75-4.19,1.5-8.37,2.21-12.59q4.13-24.49,7-50c1.58-14.11,2.91-28.37,3.91-42.8q1.2-17.26,1.89-34.68c.33-8.2.64-16.41.74-24.62.18-14.26.28-28.54-.14-42.8-.27-9.07-.55-18.12-.93-27.17-.47-11-1.16-21.93-2-32.78q-2.46-31.74-6.75-62.37-4-28.55-9.53-55.62-7.55-36.9-17.72-70Q669,73.94,660.61,52.76c-3.37-8.5-6.86-16.71-10.49-24.57Q644,14.93,637.42,2.87c-.78-1.45-1.55-2.05-2.53-2.05Q595.54.9,556.21.87a13.65,13.65,0,0,0-1.42.14c50.92,32.7,91,101.12,118.51,208.38C700.9,316.83,707.79,433.15,696.7,556.28ZM103.39,435.34l-.23.06c0,.73,0,1.46,0,2.2.26,16,.91,31.86,1.78,47.7q1.23,22.29,3.33,44.22,3.57,37.25,9.37,72.88,5.82,35.45,13.8,68.41a705.37,705.37,0,0,0,20.94,70.72,499.48,499.48,0,0,0,22.07,52.69c.81,1.65,1.6,2.23,2.64,2.23,11.61-.07,23.22-.05,34.84-.05h1.48a12.86,12.86,0,0,0-2-3.4c-4.66-5.85-9.19-12.21-13.61-19a375.67,375.67,0,0,1-23-41.08c-5.15-10.64-10.12-21.73-14.79-33.55-7.19-18.2-13.83-37.46-19.86-57.93s-11.5-42-16.28-64.39q-8.43-39.53-14-81.84c-1.84-13.95-3.47-28-4.81-42.31Q104.18,444.12,103.39,435.34ZM696.6,557.8l-.06-.27c0,.06-.08.14-.07.17s.06.26.09.39Z"/><path class="cls-2" d="M0,.17C.84.15,1.67.11,2.49.11H161.85C160.32,6,158.56,10.73,157.11,16s-3.05,10.56-4.52,15.93-2.85,10.57-4.21,16-2.65,11.14-4,16.7-2.55,11.3-3.74,17.06S138.3,93.19,137.19,99s-2.13,11.51-3.12,17.32-2,11.9-2.93,17.92-1.75,12.13-2.56,18.24-1.62,12.23-2.34,18.4-1.35,12.4-2,18.62-1.12,12.27-1.66,18.42-1,12.6-1.41,18.92-.69,12.7-1.1,19-.54,12.75-.78,19.13-.46,12.53-.56,18.81-.09,12.84-.1,19.26,0,12.85.06,19.27.18,12.82.38,19.22.47,12.52.77,18.76.62,12.73,1,19.06.83,12.66,1.33,19,1,12.55,1.65,18.8,1.23,12.47,1.92,18.66S127.17,448,128,454s1.64,12.21,2.53,18.25,1.82,12.07,2.81,18,2,11.88,3.11,17.74,2.2,11.44,3.35,17.09,2.38,11.51,3.65,17.17S146,553.47,147.35,559s2.76,11,4.21,16.41,2.93,10.75,4.47,16,3.06,10.24,4.64,15.26,3.25,10.2,4.94,15.18,3.43,9.86,5.2,14.69,3.57,9.58,5.41,14.24,3.68,9,5.56,13.43,3.87,8.9,5.86,13.2,4,8.45,6.09,12.55S197.88,698.1,200,702s4.18,7.64,6.32,11.29,4.41,7.33,6.65,10.86,4.5,7,6.8,10.3,4.61,6.55,7,9.65,4.72,6.07,7.12,9,4.72,5.58,7.11,8.2,4.89,5.23,7.37,7.68,5,4.78,7.5,7,5,4.27,7.6,6.26,5,3.87,7.54,5.52a87.82,87.82,0,0,0,7.77,4.84,44.2,44.2,0,0,1,7.75,4.93h-1.57c-17,0-34,0-51,0a4.92,4.92,0,0,1-3.59-1.71,223.64,223.64,0,0,1-27-33.7,337.1,337.1,0,0,1-17.77-30.23,457.64,457.64,0,0,1-20.89-46.23,678.29,678.29,0,0,1-23.41-72.11Q131.93,578.36,125,540q-4.82-26.71-8.37-54.5-3.33-25.79-5.47-52.32-1.36-16.87-2.36-33.89c-.42-7.19-.7-14.44-1-21.68q-1.3-32.46-.89-65.07c.15-12.93.55-25.84,1.07-38.74.66-16.45,1.73-32.75,2.92-49,.3-4,.68-8,1-11.93a22.28,22.28,0,0,0,.14-3.4c-1.18,5.1-1.86,10.21-2.65,15.18q-6.06,38.48-9.59,78.73c-1.29,14.59-2.29,29.32-3.07,44.1-.5,9.52-.82,19.11-1.1,28.7-.52,17.63-.73,35.26-.52,52.9.14,11.09.37,22.16.81,33.22.37,9.33.75,18.65,1.3,27.92.41,6.83.85,13.64,1.37,20.43q1,13.45,2.29,26.77,2.72,28.34,6.74,55.74,5,34.48,12,66.93A789,789,0,0,0,142,742.67a551.78,551.78,0,0,0,20.57,53.24,5.37,5.37,0,0,1,.23.9c-.25,1.05-.65.61-1,.67a9.22,9.22,0,0,1-1.39,0H.94a7,7,0,0,0-.92.12Z"/><path class="cls-3" d="M639,763.13a127.23,127.23,0,0,0,9.66-11.07,297.31,297.31,0,0,0,22.25-31.92A416.68,416.68,0,0,0,694,676.21q7.58-16.59,14.46-34.79,9.62-25.59,17.69-54.06,7.51-26.46,13.57-55,8.38-39.86,13.75-82.62,3.78-30.43,6-61.69,1.35-19.56,2-39.36c.33-10.11.46-20.24.68-30.36.28-12.89,0-25.74-.21-38.57-.3-15.79-1-31.52-2-47.2q-1.43-22.93-3.68-45.44-2.67-26.31-6.55-51.8a917,917,0,0,0-19.13-93.93C727.1,28,723.36,14.91,719.3,2.37c-.15-.48-.27-1-.39-1.51.23-1.2.64-.67,1-.76a3.62,3.62,0,0,1,.93,0H879.12c.63,0,1.25.05,1.87.08V799.38c-.67,0-1.35-.09-2-.09H717.81a2.78,2.78,0,0,1,.25-1.63c1.46-3.33,3-6.57,4.39-10,4.84-11.72,9.52-23.79,13.91-36.5a783,783,0,0,0,25.34-92.33q9.12-42.75,14.83-88.78,3.71-30.07,6-60.91,2-27.39,2.79-55.16c.34-12,.6-24,.6-36,0-14.72-.31-29.41-.75-44.1-.34-11.36-.81-22.67-1.48-33.92q-1.73-29.36-4.79-58.13c-2.44-22.66-5.42-44.88-9.08-66.58a15.69,15.69,0,0,0-.93-4c0,3.31.42,6,.64,8.77q1.79,22.22,2.93,44.66c.63,12.66,1.14,25.33,1.33,38,.29,18.54.35,37.1-.13,55.65q-.45,17-1.23,34c-.69,15.12-1.71,30.11-3,45q-2.57,30.34-6.64,59.78-4.86,35.28-11.76,68.6-7.2,34.62-16.47,66.34a638.39,638.39,0,0,1-22.79,65.18q-6.36,15.3-13.29,29.11A332,332,0,0,1,671.2,772.3a224.43,224.43,0,0,1-22,26.14,2.74,2.74,0,0,1-2.12.86c-7.16,0-14.32,0-21.48,0a13.36,13.36,0,0,1-1.55-.17,6.35,6.35,0,0,1,.72-2.32q6.15-13.18,11.68-27.85A34.48,34.48,0,0,1,639,763.13Z"/><path class="cls-4" d="M640.28,761.45a34,34,0,0,0-2.55,5.8q-5.51,14.63-11.62,27.79a6.49,6.49,0,0,0-.72,2.31,4.13,4.13,0,0,0-1.2,2.49H539.32c1-2.14,2.25-2.92,3.4-4.22,14.79-16.68,28.64-37,41.46-61.32,2.42-4.59,4.77-9.4,7.14-14.15.51-1,1-2.23,1.43-3.35a4.19,4.19,0,0,0,.66-.9c1.64-3.59,3.28-7.15,4.87-10.83,4.52-10.47,8.89-21.29,13-32.65,1.31-3.63,2.63-7.27,3.86-11,2.16-6.58,4.32-13.17,6.36-20q6.88-22.81,12.55-47.45,3.16-13.77,5.88-28.08c1.69-8.86,3.28-17.82,4.71-26.93,1.72-11,3.32-22,4.65-33.29,1-8.64,2-17.32,2.79-26.09q1.36-14.56,2.36-29.29c.4-6.06.76-12.14,1-18.25q.38-9.54.74-19.09c.29-7.74.14-15.48.45-23.22.4-10-.26-19.94-.24-29.93,0-4.81-.18-9.63-.4-14.35-.45-9.38-.83-18.79-1.41-28.15-.65-10.33-1.42-20.61-2.37-30.78-1.7-18.13-3.78-36-6.37-53.56-1.08-7.32-2.21-14.59-3.44-21.78q-2.74-16.08-5.93-31.68-2.65-12.94-5.59-25.51c-2.71-11.48-5.58-22.74-8.66-33.68a10.23,10.23,0,0,1-.54-3l0-.06c.44.35.69,1.67,1.25,1.49l0,0c.1.31.2.62.31.94.94,2.35,1.87,4.71,2.81,7.07.13,1.07.44,1.6.89,1.73h0l.35.71,0,0a1.07,1.07,0,0,0,.32.8v0a1.06,1.06,0,0,0,.32.79l0,0a1.18,1.18,0,0,0,.32.8v0a1.14,1.14,0,0,0,.32.79v0a2,2,0,0,0,.37,1.44l0-.08a2.11,2.11,0,0,0,.64,1.56l0,0c.11.31.21.62.32.92,6.61,16,12.3,33.87,17.89,51.89s10.52,36.88,15,56.51q9.52,41.72,15.52,87,3,22.77,5,46.16,2,23.73,3,47.88c.62,15.62.95,31.26.84,46.93q-.16,24.24-1.38,48.33Q683.78,558,679.24,594q-3.56,28.56-8.76,55.71-6.71,35.12-15.83,66.93-6.18,21.54-13.35,41.25A9.94,9.94,0,0,0,640.28,761.45Z"/><path class="cls-4" d="M268.64,118.58c-.06,4.36-.7,8.45-1.05,12.68-1,12.57-2,25.15-2.77,37.86-.83,14.55-1.52,29.1-1.89,43.76-.44,16.65-.71,33.3-.47,50,.21,14.17.5,28.33,1.1,42.46q1.54,36.1,4.89,71.47,4.24,44.09,11.4,86,7.93,46.57,19.21,89,10,37.75,22.38,71.28,7.79,21.13,16.4,40.31a477.3,477.3,0,0,0,25.62,49.52,320.12,320.12,0,0,0,33.94,47.22,211.72,211.72,0,0,0,25.22,24.45,180.57,180.57,0,0,0,20.93,14.54,1.06,1.06,0,0,1,.67.77H342.62a23.68,23.68,0,0,0-3.07-5.15,7.16,7.16,0,0,0-.81-2.21c-2.36-4.37-4.6-9.06-6.93-13.5-3.35-6.38-6.49-13.31-9.58-20.33-5.71-13-11.17-26.58-16.33-40.88-2.83-7.83-5.57-15.82-8.26-23.89-3.33-10-6.39-20.51-9.39-31.1-2.4-8.46-4.65-17.15-6.85-25.91q-3.54-14.11-6.7-28.71-4.14-19-7.68-38.76-3.13-17.68-5.83-35.78c-1.7-11.49-3.14-23.18-4.55-34.89-.84-7.09-1.59-14.25-2.28-21.43q-1.1-11.3-2-22.7c-.53-6.5-1-13-1.4-19.57-.35-5.95-.83-11.86-1-17.86s-.61-11.93-.81-17.92c-.15-4.53-.22-9.1-.41-13.6-.32-7.6-.37-15.23-.47-22.82q-.32-23.1.22-46.23c.11-4.91.22-9.84.41-14.71.33-8.54.56-17.12,1.13-25.61.41-6.06.62-12.19,1-18.23.53-7.63,1.16-15.21,1.78-22.79.54-6.49,1.08-13,1.73-19.44q1.2-11.82,2.61-23.52c1.22-9.91,2.45-19.82,3.86-29.57,1.76-12.09,3.62-24.11,5.81-35.8C267.33,124.08,267.49,120.67,268.64,118.58Z"/><path class="cls-1" d="M624.19,799.84a4.13,4.13,0,0,1,1.2-2.49,13.6,13.6,0,0,0,1.55.17c7.12,0,14.24,0,21.37,0a2.72,2.72,0,0,0,2.11-.86,223.92,223.92,0,0,0,21.86-26.08,332.58,332.58,0,0,0,27.17-45.78q6.88-13.82,13.22-29.05a638.86,638.86,0,0,0,22.68-65q9.24-31.62,16.38-66.19,6.88-33.21,11.7-68.46,4-29.35,6.6-59.65,1.89-22.29,3-44.91.78-16.92,1.22-33.9c.48-18.51.42-37,.14-55.53-.2-12.67-.7-25.33-1.33-38q-1.11-22.42-2.91-44.56c-.22-2.76-.63-5.45-.64-8.75a15.52,15.52,0,0,1,.92,4c3.64,21.66,6.61,43.83,9,66.44q3.08,28.68,4.77,58,1,16.83,1.46,33.84c.44,14.66.74,29.32.75,44,0,12-.26,23.94-.59,35.89q-.8,27.67-2.78,55-2.25,30.78-6,60.78-5.65,45.93-14.74,88.58a784,784,0,0,1-25.21,92.12c-4.37,12.68-9,24.73-13.84,36.42-1.42,3.43-2.91,6.66-4.37,10a2.81,2.81,0,0,0-.24,1.63H879c.67,0,1.34.06,2,.09,0,1.23.19,2.87-.78,2.24-.19-.12-.41,0-.61,0Zm43.9-1.64c.13.07.18.12.23.12,12.24,0,24.47,0,36.71.07.73,0,1.28-.69,1.8-1.77q5.79-12,11.26-24.83c2.69-6.32,5.2-13,7.75-19.67,3.11-8.1,6-16.58,8.83-25.26q9.44-29.18,17-61.39,6.76-29,11.88-59.81,4.2-25.27,7.2-51.55c2.89-25.35,5-51.05,6.25-77.2.57-12.25,1.15-24.5,1.25-36.84,0-1.81.41-3.6.07-5.56-.15,1.18-.31,2.22-.4,3.29-1,11.85-2.11,23.62-3.43,35.28Q771.3,501,767,527.93q-4.77,29.55-10.94,57.56-5,22.62-10.87,44-5.79,21-12.4,40.65c-3.19,9.53-6.53,18.78-10,27.65-6.32,16-12.94,31.19-20.07,45.11-5.8,11.32-11.82,21.92-18.09,31.68a245.2,245.2,0,0,1-15.76,22.05A2.09,2.09,0,0,0,668.09,798.2Z"/><path class="cls-2" d="M268.64,118.58c-1.15,2.09-1.31,5.5-1.84,8.35-2.19,11.69-4.05,23.71-5.81,35.8-1.41,9.75-2.64,19.66-3.86,29.57q-1.42,11.69-2.61,23.52c-.65,6.44-1.19,13-1.73,19.44-.62,7.58-1.25,15.16-1.78,22.79-.42,6-.63,12.17-1,18.23-.57,8.49-.8,17.07-1.13,25.61-.19,4.87-.3,9.8-.41,14.71q-.54,23.11-.22,46.23c.1,7.59.15,15.22.47,22.82.19,4.5.26,9.07.41,13.6.2,6,.59,11.94.81,17.92s.7,11.91,1,17.86c.38,6.55.87,13.07,1.4,19.57q.93,11.38,2,22.7c.69,7.18,1.44,14.34,2.28,21.43,1.41,11.71,2.85,23.4,4.55,34.89q2.69,18.09,5.83,35.78,3.51,19.76,7.68,38.76,3.17,14.58,6.7,28.71c2.2,8.76,4.45,17.45,6.85,25.91,3,10.59,6.06,21.1,9.39,31.1,2.69,8.07,5.43,16.06,8.26,23.89,5.16,14.3,10.62,27.89,16.33,40.88,3.09,7,6.23,14,9.58,20.33,2.33,4.44,4.57,9.13,6.93,13.5a7.16,7.16,0,0,1,.81,2.21c-2.63-.64-5.14-2.52-7.68-4.06A148.4,148.4,0,0,1,305.75,770,218,218,0,0,1,283,743.94a331.59,331.59,0,0,1-18.75-28.08c-5.88-9.84-11.49-20.48-16.93-31.66-5.77-11.85-11.16-24.6-16.36-37.83-4.31-11-8.35-22.51-12.21-34.43q-9.2-28.46-16.61-59.75-5.82-24.66-10.46-50.77-4.77-26.76-8.18-54.66c-1.05-8.5-1.91-17.15-2.85-25.73a8.32,8.32,0,0,0-.39-2.36c0-8.25.53-16.39.89-24.58.38-8.67,1.06-17.22,1.61-25.83.32-4.85.78-9.63,1.19-14.44,1-11.33,2.19-22.51,3.53-33.6,1.29-10.65,2.73-21.19,4.39-31.54,2.94-18.42,6.22-36.47,10.11-53.91q4.51-20.24,9.74-39.43c2.68-9.92,5.66-19.35,8.67-28.72,3.39-10.55,7-20.78,10.76-30.41a475.78,475.78,0,0,1,19.32-43.6c4.53-8.73,9.16-17.13,13.95-25a296.7,296.7,0,0,1,18.77-27.08c.62-.81,1.23-1.84,2-1.91C283.61,45.07,282,51.5,280.45,58c-2.41,10-4.69,20.21-6.73,30.69-1.24,6.35-2.51,12.67-3.65,19.12a45.1,45.1,0,0,0-1,8.06A18.13,18.13,0,0,1,268.64,118.58Z"/><path class="cls-3" d="M623,118.73c-.56.18-.81-1.14-1.25-1.49l-.16-.31.13.37a10.23,10.23,0,0,0,.54,3c3.08,10.94,6,22.2,8.66,33.68q3,12.54,5.59,25.51,3.18,15.62,5.93,31.68c1.23,7.19,2.36,14.46,3.44,21.78,2.59,17.54,4.67,35.43,6.37,53.56.95,10.17,1.72,20.45,2.37,30.78.58,9.36,1,18.77,1.41,28.15.22,4.72.42,9.54.4,14.35,0,10,.64,20,.24,29.93-.31,7.74-.16,15.48-.45,23.22q-.36,9.54-.74,19.09c-.24,6.11-.6,12.19-1,18.25q-1,14.74-2.36,29.29c-.82,8.77-1.77,17.45-2.79,26.09C648,516.94,646.38,528,644.66,539c-1.43,9.11-3,18.07-4.71,26.93q-2.72,14.31-5.88,28.08-5.67,24.64-12.55,47.45c-2,6.79-4.2,13.38-6.36,20-1.23,3.77-2.55,7.41-3.86,11-4.13,11.36-8.5,22.18-13,32.65-1.59,3.68-3.23,7.24-4.87,10.83a4.19,4.19,0,0,1-.66.9q1.56-8.07,3.1-16.15c4.81-25.19,8.63-51.21,11.65-77.94q3.06-27.18,4.79-55c.62-9.73,1.08-19.54,1.45-29.37.62-16.25.89-32.5.9-48.8q0-20.58-.72-41.06c-.95-25.32-2.57-50.39-5.06-75.14q-4.74-47.07-13.07-91.2a828.79,828.79,0,0,0-25.63-101.5c-3.8-11.7-7.84-22.92-12-33.8a483.19,483.19,0,0,0-26.19-57A314.43,314.43,0,0,0,501.14,43C490.26,29.52,479,18.34,467.28,9.62a123.25,123.25,0,0,0-12.06-8A2.08,2.08,0,0,1,454,.27a12.51,12.51,0,0,1,1.4-.18h74.5c2.41,0,4.66,2,7,3.35q18.27,11.06,35.32,30.26c12.23,13.8,23.7,30.51,34.4,50.29q7.85,14.52,15,31A15.17,15.17,0,0,1,623,118.73Z"/><path class="cls-4" d="M217.63,708.45c-.76.19-1.07-.78-1.44-1.36a388.73,388.73,0,0,1-20.52-37.51q-7.95-16.55-15.14-35a675.28,675.28,0,0,1-26.28-84,913,913,0,0,1-18.88-102q-4-31.12-6.25-63.29c-.87-12.78-1.6-25.61-2-38.5-.66-19.08-.9-38.21-.62-57.35.2-13.31.55-26.61,1.22-39.83q1.17-23.13,3.2-45.94,2.63-29,6.66-57a886.11,886.11,0,0,1,20.11-99.4c4-15.13,8.4-29.61,13-43.69.82-2.51,1.68-3.65,3.08-3.64,18.79.13,37.58.09,56.37.1.56,0,1.13-.26,1.76.31C188,92.35,163.67,207.35,160.19,347,158.09,486.67,177.56,606.75,217.63,708.45Z"/><path class="cls-4" d="M664.12,707.29c1.82-4.71,3.67-9.37,5.46-14.13a695.54,695.54,0,0,0,25.68-85.09q10.08-42.47,16.38-88.91,3.87-28.54,6.21-58c1.11-13.69,1.9-27.49,2.55-41.32.44-9.3.64-18.67.84-28,.22-10.5.24-21,.16-31.47q-.18-23.68-1.37-47.23-1.49-30.36-4.55-60-2.76-26.59-6.81-52.24c-2.63-16.76-5.61-33.16-9-49.1A754.45,754.45,0,0,0,675.9,64.84c-5.18-15.1-10.68-29.46-16.57-43-2.9-6.66-5.88-13.14-9-19.36a3.33,3.33,0,0,1-.66-2c.32-.79.76-.43,1.14-.43q28.73,0,57.45-.06c.91,0,1.49.71,2.07,2.42A759.14,759.14,0,0,1,731.29,78q9.15,40.73,14.85,84.88Q749.88,191.46,752,221q1.34,18.21,2.05,36.64c.51,13,.74,26.08,1,39.15.22,11.63,0,23.22-.27,34.78q-.6,27.5-2.53,54.73-2.87,40.21-8.46,78.7-6.49,44.54-16.52,85.13-7,28.64-15.64,54.65c-5.73,17.36-11.93,33.75-18.62,49A415.15,415.15,0,0,1,666.58,705c-.68,1.11-1.39,2.1-2.09,3.15Z"/><path class="cls-2" d="M300.53.19c.46,0,.92-.12,1.39-.12l50,0h1.25a6.77,6.77,0,0,1-.66,3.28q-7.83,23.45-14.44,49-4.95,19-9.16,39-7,32.89-11.92,67.83-5,34.69-7.75,70.74c-1.14,14.27-2.06,28.64-2.62,43.13q-.63,16.57-1,33.18c-.31,13.71-.3,27.41-.12,41.09.13,9.85.42,19.69.77,29.52.46,12.9,1.17,25.72,2,38.5.75,11.56,1.77,23,2.86,34.41q2.28,23.81,5.54,46.95,3,21.59,6.82,42.47c2,10.75,4,21.35,6.32,31.73,4.92,22.43,10.42,44,16.67,64.48,4,13.16,8.24,25.92,12.79,38.07.13.36.23.78.34,1.17-.36,1-.59.14-.79-.21q-7.43-13-14.35-27.55-7.11-14.91-13.59-31.34-10.09-25.62-18.62-54.34-10.95-36.93-19-77.89-6.13-31.17-10.48-64-3.64-27.53-6-55.81c-.94-11.35-1.78-22.75-2.35-34.26-.65-13.34-1.22-26.69-1.55-40.11-.46-18.14-.37-36.28-.16-54.42.13-10.57.6-21.13,1.06-31.68q.86-19.49,2.28-38.76,1.45-19.45,3.54-38.61,2-18.08,4.46-35.78c2.1-14.72,4.41-29.23,7.07-43.42,1.08-5.74,2.2-11.44,3.29-17.16.1-.55.15-1.17.22-1.76.33-1.37.69-2.71,1-4.11,1-4.65,2-9.43,3.05-14A63,63,0,0,0,300.53.19Z"/><path class="cls-2" d="M696.7,557.39c11.09-123.54,4.2-240.26-23.4-348C645.74,101.71,605.71,33.07,554.79.26a13.68,13.68,0,0,1,1.42-.15q39.35,0,78.68,0c1,0,1.75.6,2.53,2.05q6.57,12.09,12.7,25.41c3.63,7.88,7.12,16.12,10.49,24.64Q669,73.46,676.24,97.1q10.14,33.29,17.72,70.28,5.53,27.13,9.53,55.8,4.32,30.72,6.75,62.58c.84,10.89,1.53,21.85,2,32.89.38,9.08.66,18.17.93,27.26.42,14.32.32,28.64.14,42.95-.1,8.23-.41,16.48-.74,24.7q-.69,17.49-1.89,34.8c-1,14.48-2.33,28.78-3.91,42.94q-2.88,25.57-7,50.17c-.71,4.24-1.46,8.43-2.21,12.63A11.7,11.7,0,0,1,696.7,557.39Z"/><path class="cls-3" d="M300.53.19a63,63,0,0,1-1.86,9.19c-1.07,4.61-2,9.39-3.05,14-.31,1.4-.67,2.74-1,4.11a112.54,112.54,0,0,0-8.83,9.92,7.37,7.37,0,0,0-.59,1.16c-.76.07-1.37,1.1-2,1.91A296.7,296.7,0,0,0,264.44,67.6c-4.79,7.88-9.42,16.28-13.95,25a475.78,475.78,0,0,0-19.32,43.6c-3.81,9.63-7.37,19.86-10.76,30.41-3,9.37-6,18.8-8.67,28.72q-5.19,19.23-9.74,39.43c-3.89,17.44-7.17,35.49-10.11,53.91-1.66,10.35-3.1,20.89-4.39,31.54-1.34,11.09-2.55,22.27-3.53,33.6-.41,4.81-.87,9.59-1.19,14.44-.55,8.61-1.23,17.16-1.61,25.83-.36,8.19-.87,16.33-.89,24.58a14.09,14.09,0,0,0-.23,2.87c-.25,14.06-.51,28.12-.29,42.2.22,13.8.54,27.6,1.25,41.3.88,17.12,2.06,34.14,3.76,50.93a7,7,0,0,1,0,2.47,12.74,12.74,0,0,1-.75-3.2q-3.72-20.54-6.64-41.82-4.09-30.48-6.45-62c-.86-11.66-1.57-23.36-2.05-35.13-.35-8.71-.68-17.44-.74-26.2-.06-7.4-.25-14.81-.18-22.2.11-12.82.29-25.63.75-38.42q1.35-38.23,5.38-75.33,4.41-41.13,12-79.6,7.6-39,18.09-74c5-16.68,10.45-32.44,16.3-47.42,5-12.73,10.28-24.63,15.8-36,2.62-5.39,5.34-10.49,8.06-15.59A2.25,2.25,0,0,1,246.65.07c11.1,0,22.19,0,33.29,0C286.8.07,293.66.15,300.53.19Z"/><path class="cls-3" d="M103.39,436.05q.81,8.81,1.62,17.59c1.34,14.32,3,28.46,4.81,42.46q5.59,42.43,14,82.11,7.17,33.69,16.28,64.61T160,700.94c4.67,11.86,9.64,23,14.79,33.67a378.14,378.14,0,0,0,23,41.22c4.42,6.83,9,13.21,13.61,19.08a12.69,12.69,0,0,1,2,3.42h-1.48c-11.62,0-23.23,0-34.84,0-1,0-1.83-.58-2.64-2.24a501.9,501.9,0,0,1-22.07-52.86,709.6,709.6,0,0,1-20.94-71q-8-33-13.8-68.64t-9.37-73.13q-2.1-22-3.33-44.37c-.87-15.89-1.52-31.83-1.78-47.86,0-.73,0-1.47,0-2.21Z"/><path class="cls-2" d="M664.12,707.29l.37.87a4,4,0,0,1-1.23,2A4.85,4.85,0,0,1,664.12,707.29Z"/><path class="cls-3" d="M627,128.44c-.45-.13-.76-.66-.89-1.73C626.5,126.94,626.82,127.43,627,128.44Z"/><path class="cls-3" d="M629.51,135a2.11,2.11,0,0,1-.64-1.56C629.27,133.51,629.48,134.06,629.51,135Z"/><path class="cls-2" d="M696.6,558.92l0,.29c0-.13-.07-.26-.09-.4s0-.1.07-.16Z"/><path class="cls-3" d="M628.89,133.53a2,2,0,0,1-.37-1.44A1.91,1.91,0,0,1,628.89,133.53Z"/><path class="cls-3" d="M629.8,135.89c-.11-.3-.21-.61-.32-.92C629.7,135,629.81,135.35,629.8,135.89Z"/><path class="cls-3" d="M628.53,132.13a1.14,1.14,0,0,1-.32-.79Z"/><path class="cls-3" d="M628.22,131.38a1.18,1.18,0,0,1-.32-.8C628.08,130.69,628.18,131,628.22,131.38Z"/><path class="cls-3" d="M627.92,130.63a1.06,1.06,0,0,1-.32-.79A1,1,0,0,1,627.92,130.63Z"/><path class="cls-3" d="M627.61,129.89a1.07,1.07,0,0,1-.32-.8C627.47,129.18,627.58,129.45,627.61,129.89Z"/><path class="cls-3" d="M627.31,129.14l-.35-.71C627.16,128.43,627.27,128.69,627.31,129.14Z"/><path class="cls-3" d="M623.27,119.64c-.11-.32-.21-.63-.31-.94C623.18,118.79,623.28,119.1,623.27,119.64Z"/><path class="cls-4" d="M218.1,709.4c-.11.13-.28,0-.26-.14.17-.72.18-.07.24.18Z"/><path class="cls-4" d="M218.08,709.44l.22.33c-.21.31-.22,0-.2-.37Z"/><path class="cls-2" d="M668.09,798.2a2.09,2.09,0,0,1,.72-1.61,245.2,245.2,0,0,0,15.76-22.05c6.27-9.76,12.29-20.36,18.09-31.68,7.13-13.92,13.75-29.14,20.07-45.11,3.51-8.87,6.85-18.12,10-27.65q6.6-19.64,12.4-40.65,5.88-21.36,10.87-44,6.18-28,10.94-57.56,4.37-26.94,7.47-54.85c1.32-11.66,2.44-23.43,3.43-35.28.09-1.07.25-2.11.4-3.29.34,2-.06,3.75-.07,5.56-.1,12.34-.68,24.59-1.25,36.84-1.21,26.15-3.36,51.85-6.25,77.2q-3,26.25-7.2,51.55-5.13,30.81-11.88,59.81-7.51,32.24-17,61.39c-2.81,8.68-5.72,17.16-8.83,25.26-2.55,6.64-5.06,13.35-7.75,19.67q-5.46,12.86-11.26,24.83c-.52,1.08-1.07,1.78-1.8,1.77-12.24,0-24.47,0-36.71-.07C668.27,798.32,668.22,798.27,668.09,798.2Z"/><path class="cls-4" d="M621.7,117.3l-.13-.37.16.31Z"/><path class="cls-5" d="M529.6,229.82c-.67,21.87-8.9,41-26.07,56.72a71.42,71.42,0,0,1-36.88,17.68c-24.23,4.15-46.71,0-67.37-12A57.65,57.65,0,0,1,380.42,275,31.86,31.86,0,0,1,375,258.82a52.23,52.23,0,0,1,3.66-22.48c8.87-23.17,24.49-42,45.87-57A74.5,74.5,0,0,1,452.23,167a57.31,57.31,0,0,1,33.51,2.86c11.87,4.69,21.16,12.26,29,21.42,5.22,6.15,9.71,12.66,12.09,20.19A57.77,57.77,0,0,1,529.6,229.82Zm-46.77-39.26a27.91,27.91,0,0,0,0-3.66,15.23,15.23,0,0,0-5.95-10.72,25.08,25.08,0,0,0-14.48-5,40.16,40.16,0,0,0-15.43,2.55c-10,3.56-18.32,9.33-26,16a138.78,138.78,0,0,0-26.21,30.68,87.86,87.86,0,0,0-10,20.68,32,32,0,0,0-1.73,11.7c.34,5.14,3.17,8.63,8.53,10.4a27.75,27.75,0,0,0,11.1,1.2,73.6,73.6,0,0,0,24.55-6.9A111.89,111.89,0,0,0,451,242.63c11.39-9.19,20.58-19.85,26.73-32.52C480.73,203.88,482.9,197.45,482.83,190.56Z"/><path class="cls-5" d="M605.86,162.46c.48-4,.64-8.05-.56-12a19.28,19.28,0,0,0-.71-2.06c-1.35-3.14-4-4.74-7.71-4.85a29,29,0,0,0-9.17,1.42,118.28,118.28,0,0,0-24.64,11c-10.21,5.83-19.69,12.57-29.42,19q-5.42,3.57-10.95,7c-3,1.85-5.63,1.47-7.48-.94a4.73,4.73,0,0,1,1.29-7.25c3.62-2.38,7.36-4.59,11-6.95,9.78-6.38,19.4-12.94,29.56-18.82a142.71,142.71,0,0,1,20.07-10.1,60,60,0,0,1,15.37-4,26.86,26.86,0,0,1,13.13,1.64,15.56,15.56,0,0,1,8.09,7.06,32.09,32.09,0,0,1,3.66,16.13,78.31,78.31,0,0,1-2,18.21A43.1,43.1,0,0,1,599,201.41a7.91,7.91,0,0,1-.75.54c-.92.5-1,1-.46,1.93,6.05,9.81,7.62,20.46,7.08,31.48a38.64,38.64,0,0,1-3.75,15.5c-2.31,4.64-5.89,8.05-11.62,9.14a33.94,33.94,0,0,1-17.9-1.33,51.91,51.91,0,0,1-16.11-9.57A133,133,0,0,1,539,232c-1.68-2-1.29-4.67.78-6.44a5.66,5.66,0,0,1,6.81-.34,11.18,11.18,0,0,1,2.45,2.35,120.34,120.34,0,0,0,13,13.54,49,49,0,0,0,12.7,8,20.41,20.41,0,0,0,12.17,1.17,4.77,4.77,0,0,0,3.08-1.87,12,12,0,0,0,2.1-3.86A46.47,46.47,0,0,0,589.92,212a12.9,12.9,0,0,0-.56-1.19c-1.79-3.27-1.8-3.28-5.73-2.38a38.83,38.83,0,0,1-16.86.07,5.5,5.5,0,0,1-4.5-3.76,4,4,0,0,1,1.6-4.84,43.13,43.13,0,0,1,6.79-4,21.73,21.73,0,0,1,16.91-.73,3,3,0,0,0,3-.29,31.59,31.59,0,0,0,7.49-6.93c5-6.42,7.76-13.49,7.75-21.38Z"/><path class="cls-5" d="M321.05,262.79a15.14,15.14,0,0,0-3.18-.88c-8.51-2.25-16.15-5.83-22.34-11.66a26.13,26.13,0,0,1-6.28-8.59c-2.81-6.47-1.68-12.42,3-17.85s10.95-7.72,18.16-8.63a73.06,73.06,0,0,1,21.24.86A100.74,100.74,0,0,1,363,226.32a22.38,22.38,0,0,1,6.2,4.7,5.1,5.1,0,0,1-1.63,8.17c-1.82,1-3.95,1-5.31-.41-4.91-5-11.57-7.33-18.24-9.54a93.49,93.49,0,0,0-25.5-4.64,31.54,31.54,0,0,0-12.48,1.63c-5.05,1.86-7.71,5.86-7,10.4a10.16,10.16,0,0,0,2.57,5c3.21,3.75,7.47,6.26,12.17,8.2a57.93,57.93,0,0,0,15.88,3.92,4.67,4.67,0,0,0,3.14-.67,32.82,32.82,0,0,1,11.86-4.44,23.06,23.06,0,0,1,6-.17,5.37,5.37,0,0,1,4.7,3.52c.78,1.93.13,3.54-1.42,4.9a27.33,27.33,0,0,1-13.48,6.16,1,1,0,0,1-.24,0c-3.77-.18-6.15,1.84-8.38,4.19-7.42,7.79-12.55,16.6-14.77,26.71a20.52,20.52,0,0,0-.22,7.73c.56,3.43,2.64,5,6.52,5a28.75,28.75,0,0,0,8.39-1.61A90.3,90.3,0,0,0,353,294.89c4.72-3,9.23-6.18,13.74-9.39a6.59,6.59,0,0,1,8.61.63c1.92,2,1.87,4.44-.41,6.09-11.4,8.28-23.06,16.21-36.74,21.31a42.15,42.15,0,0,1-15.31,3.17c-9.18-.09-15.95-5.44-17.25-13.6-.9-5.62.21-11,2-16.37a69.12,69.12,0,0,1,12.24-22.08C320.3,264.09,321,263.62,321.05,262.79Z"/></g></g></svg>