<svg xmlns="http://www.w3.org/2000/svg" viewBox="0 0 1365.12 405"><defs><style>.cls-1{fill:#fff;}.cls-2{fill:#e7c569;}.cls-3{fill:#de8073;}.cls-4{fill:#a4bf61;}.cls-5{fill:#83633f;}</style></defs><g id="Layer_2" data-name="Layer 2"><g id="Layer_1-2" data-name="Layer 1"><path class="cls-1" d="M530.89,404H0v-1.13c.48,0,1-.06,1.43-.06H248.63c.72,0,1.44,0,2.16,0,.51,0,1.13.2,1.51-.34A1.83,1.83,0,0,0,252,402a275.41,275.41,0,0,1-31.87-26.86,257.08,257.08,0,0,1-34.59-41.65,231.53,231.53,0,0,1-18.64-33.77,226,226,0,0,1-10.45-28.12q-2-6.74-3.55-13.52c-.79-3.42-1.48-6.86-2.11-10.3-.85-4.68-1.45-9.38-2-14.09-.69-5.58-1-11.17-1.25-16.76a210.63,210.63,0,0,1,.8-26.69c.43-4.84.94-9.68,1.71-14.48a215,215,0,0,1,4.75-22.25,228.26,228.26,0,0,1,14.87-39.72,49.35,49.35,0,0,1,4.09-7.66,3.69,3.69,0,0,1-.2,1.71c-.56,2-1.16,4-1.61,6-1.85,8.21-3.51,16.43-4.54,24.73-.8,6.51-1.41,13-1.66,19.55a207.21,207.21,0,0,0,1.39,32.83c.45,3.65.87,7.31,1.53,10.94,1,5.72,2.25,11.42,3.67,17.09a208.74,208.74,0,0,0,8.46,26.4,236.11,236.11,0,0,0,13,27.5A249.31,249.31,0,0,0,218.94,310a271.65,271.65,0,0,0,36.28,36.39,286.89,286.89,0,0,0,32.37,23.32,310.89,310.89,0,0,0,27.54,15.25,325.92,325.92,0,0,0,41.83,17,17.63,17.63,0,0,0,5.57.86q39.48,0,79,0h2.44c-4-1-8-1.81-12-2.48s-8.05-1.6-12.05-2.45-7.81-1.8-11.68-2.78-7.88-2.05-11.78-3.16-7.77-2.29-11.61-3.52-7.66-2.53-11.43-3.88-7.38-2.71-11-4.14-7.4-3-11-4.51-7.24-3.19-10.79-4.87-7.06-3.42-10.53-5.2-6.91-3.6-10.3-5.48-6.58-3.75-9.8-5.69-6.52-4-9.71-6.09-6.35-4.17-9.44-6.34-6.1-4.4-9.08-6.66-5.8-4.46-8.61-6.77-5.65-4.75-8.39-7.19-5.44-4.89-8.06-7.41-5.15-5.07-7.65-7.65-4.87-5.1-7.2-7.71-4.68-5.35-6.92-8.07-4.41-5.49-6.52-8.28-4.16-5.61-6.12-8.46-3.83-5.76-5.65-8.66-3.54-5.73-5.19-8.63-3.3-5.94-4.82-9-3-6-4.36-9.1-2.68-6.12-3.91-9.21-2.35-6.07-3.4-9.14-2.05-6.26-3-9.42-1.79-6.31-2.56-9.48-1.45-6.37-2.06-9.56-1.1-6.41-1.57-9.62-.89-6.31-1.19-9.47-.48-6.46-.59-9.69-.09-6.48-.08-9.73,0-6.48.14-9.71.5-6.34.87-9.5.59-6.45,1.22-9.65,1-6.41,1.7-9.6,1.33-6.38,2.18-9.55,1.59-6.21,2.57-9.29,2-6.28,3.1-9.39,2.35-6.21,3.61-9.29,2.55-6.16,4-9.2,3-6,4.54-9,3.15-5.85,4.84-8.74,3.53-5.86,5.37-8.77,3.7-5.8,5.78-8.61,4.06-5.65,6.19-8.43,4.29-5.4,6.52-8,4.71-5.34,7-8,5-5,7.35-8H3.86C2.58.44,1.3.46,0,.47.13.35-.22.08.26.09.9.11,1.54.1,2.18.1Q682.57.1,1363,.12c.7,0,1.62-.43,2.16.35-1,0-1.92,0-2.88,0h-244a13.81,13.81,0,0,0-1.44,0c-.5,0-1.14-.23-1.5.38a8,8,0,0,0,.61.75,246.51,246.51,0,0,1,17.43,19.67,233.48,233.48,0,0,1,29.49,47.29,203.75,203.75,0,0,1,15.77,49,184,184,0,0,1,3,23.76,155.19,155.19,0,0,1,.32,19.41c-.34,5.1-.54,10.2-1.05,15.29a182.79,182.79,0,0,1-3.09,19.81,209.31,209.31,0,0,1-9.21,31.06,222.77,222.77,0,0,1-21.2,41.59,240.87,240.87,0,0,1-20.91,27.67,276,276,0,0,1-27.28,27.22c-7.05,6.12-14.5,11.94-22.28,17.52a325.12,325.12,0,0,1-35.58,22.11A354.78,354.78,0,0,1,1007,379c-4.89,2-9.8,3.94-14.91,5.57.12-.82,1-1.26,1.59-1.81A244.44,244.44,0,0,0,1014.38,362a218,218,0,0,0,24.53-33.77,190,190,0,0,0,13.58-28.11,180.28,180.28,0,0,0,9.94-37,186.9,186.9,0,0,0,2.14-24.39,167.61,167.61,0,0,0-1.3-23.68,183,183,0,0,0-4.61-24.16,189.67,189.67,0,0,0-7.76-23.28,220.2,220.2,0,0,0-24.05-43.9,245.43,245.43,0,0,0-23.25-28.51C994.94,86,986.12,77,975.89,69c0-.27-.16-.43-.51-.47l0,0c0-.48-.36-.75-1-.79l.05.05c0-.36-.18-.59-.59-.73l0,0-.5-.4,0,0a.57.57,0,0,0-.5-.4l0,0a.59.59,0,0,0-.5-.4l0,0a.56.56,0,0,0-.51-.41l0,0a.5.5,0,0,0-.53-.36h0a1.69,1.69,0,0,0-1.37-.88l-4.36-3.56q0-.41-.48-.48l0,0a7.42,7.42,0,0,0-2.22-1.92,277.79,277.79,0,0,0-23.24-15.61,310.71,310.71,0,0,0-53.29-25.38A361.23,361.23,0,0,0,831.82,2.11c-3.54-.69-7-1.69-10.77-1.69H705.62c-.66,0-1.31,0-2.17.09a3.88,3.88,0,0,0,1.93.66c6.29,1.18,12.51,2.56,18.68,4.06a379,379,0,0,1,52.46,16.84A344.29,344.29,0,0,1,824.23,45.7a308.56,308.56,0,0,1,40.58,28.77c6.52,5.49,12.78,11.15,18.66,17a252.91,252.91,0,0,1,39.72,51.22,221.58,221.58,0,0,1,20.24,46,208.83,208.83,0,0,1,7.84,37.91,179.45,179.45,0,0,1,1.12,20.72A213.5,213.5,0,0,1,951,272c-.58,5-1.29,9.91-2.25,14.82a204.21,204.21,0,0,1-7.43,27.75,218.7,218.7,0,0,1-18.05,39.33q-2.38,4.08-4.79,8.14c-.74.57-1.43,1.18-2.22,1.7-3.68,2.39-7.32,4.82-11.07,7.13A354.53,354.53,0,0,1,841,401.82c-1.78.65-3.76,1-5.27,2.13H688.32a1.66,1.66,0,0,0-1-.39c-10.92-2.14-21.75-4.52-32.42-7.34q-20-5.3-39.08-12.34a399.09,399.09,0,0,1-52.59-23.82,362.52,362.52,0,0,1-39.71-25q-13.33-9.68-25.41-20.34a305.48,305.48,0,0,1-34.68-36,267.28,267.28,0,0,1-29.76-44.92A239.62,239.62,0,0,1,416,190.48a234.57,234.57,0,0,1-7.58-36.06c-.94-7.12-1.38-14.27-1.7-21.42a202.15,202.15,0,0,1,.72-25.21c.58-7.39,1.65-14.74,2.93-22.08,1.11-6.41,2.67-12.76,4.29-19.1.54-2.13,1.53-4.2,1.63-6.4.24-.45.67-.91.68-1.37a9,9,0,0,1,1.54-4.07c1.77-3.25,3.73-6.44,5.65-9.64,3.17-5.29,6.7-10.43,10.43-15.49,2.41-3.27,4.9-6.52,7.36-9.78a6.11,6.11,0,0,1,.91-.58c4.48-1.8,9-3.53,13.68-5a4.8,4.8,0,0,1-.34.89c-1.69,2.89-3.42,5.76-5.09,8.66a220.44,220.44,0,0,0-10.95,21.91c-2.6,5.94-4.89,12-6.92,18.05q-3.21,9.66-5.48,19.48t-3.53,19.56c-.72,5.32-1.45,10.65-1.64,16a241.9,241.9,0,0,0,.23,27.46c.53,6.77,1.4,13.5,2.42,20.24.87,5.8,2.18,11.56,3.63,17.28a213.89,213.89,0,0,0,9.32,28.16,229.23,229.23,0,0,0,16.24,32.31,251.69,251.69,0,0,0,29.46,39.3A280.65,280.65,0,0,0,512.72,311q10,8.3,21.06,15.82,10.72,7.34,22.24,13.9c.31.17.66.62,1.21.1a5.76,5.76,0,0,0-.53-.59A270.94,270.94,0,0,1,536.89,321a258.52,258.52,0,0,1-25.83-32.54c-3.53-5.24-6.76-10.59-9.79-16A225.12,225.12,0,0,1,490.7,251a210.43,210.43,0,0,1-8.58-23.68c-1.69-5.76-3.28-11.53-4.44-17.37-1.27-6.45-2.36-12.91-3.08-19.42-.54-5-1-9.93-1.19-14.89a188.85,188.85,0,0,1,.19-20.74c.39-5.59.89-11.16,1.55-16.74a184.59,184.59,0,0,1,4-21.76,215.64,215.64,0,0,1,12-35.69A235.36,235.36,0,0,1,509.68,46.5c4.39-6.73,9.09-13.31,14.2-19.71a266.61,266.61,0,0,1,22.37-24.7c.46-.45,1.2-.84,1-1.65h-1.94l-77.51,0c-.71,0-1.43,0-2.15.06q-15.94,0-31.9-.07H382.19a6.54,6.54,0,0,0-3.6.73C374.38,3.73,370.17,6.3,366.1,9a293.56,293.56,0,0,0-24.47,18.15A260.18,260.18,0,0,0,316.37,51.1a228.24,228.24,0,0,0-28,37.34,199.82,199.82,0,0,0-18.53,40.17,184.76,184.76,0,0,0-8.34,38c-.7,6.46-1,12.92-1.15,19.39-.1,3.73.19,7.46.27,11.2a130.53,130.53,0,0,0,1.16,13.22c.74,5.93,1.84,11.84,3.17,17.72a192.2,192.2,0,0,0,10,31.29,199.21,199.21,0,0,0,10.29,21.1,3.5,3.5,0,0,0,1.16,1.61c.31-.44.06-.84-.07-1.24a183,183,0,0,1-5.82-25.7,191.7,191.7,0,0,1-1.94-20.84,207.25,207.25,0,0,1,.45-21.29,2.51,2.51,0,0,1,.36-1.45c.45.32.45.77.59,1.19,1.46,4.34,2.79,8.7,4.42,13A218.21,218.21,0,0,0,297,253.37,239.75,239.75,0,0,0,313.25,279,256.6,256.6,0,0,0,339,309.14c6,6,12.24,11.84,18.92,17.37a308.4,308.4,0,0,0,25.34,19.09c8.43,5.64,17.14,11,26.25,16q14.06,7.67,29.05,14.17a356.56,356.56,0,0,0,35.22,13.15,373.53,373.53,0,0,0,40.46,10.41,106.92,106.92,0,0,0,11.91,2.05A21.75,21.75,0,0,1,530.89,404ZM338,358.31c0,.2,0,.35.3.19l-.34-.17c-.09-.12-.11-.45-.37-.09C337.51,358.3,337.78,358.38,338,358.31Zm691.67-.63c1.09-.52,2.19-1,3.25-1.58a316.93,316.93,0,0,0,41-25.82,273.79,273.79,0,0,0,28.85-24.74A251.16,251.16,0,0,0,1126.93,278a222.74,222.74,0,0,0,25.6-43,202.33,202.33,0,0,0,13.1-39.71,188.4,188.4,0,0,0,3.93-27.62,138.82,138.82,0,0,0,.41-17.55c-.38-6.59-.74-13.17-1.52-19.75a184.86,184.86,0,0,0-3.18-18.48,190,190,0,0,0-9.12-29.36,217.63,217.63,0,0,0-23-42.83,251.91,251.91,0,0,0-32.41-38.09,4.16,4.16,0,0,0-3.21-1.22l-89,0c-.58,0-1.26-.18-1.76.21,0,.58.63.74,1,1,4.76,3.14,9.38,6.41,13.88,9.77a285,285,0,0,1,25.68,21.68A248.28,248.28,0,0,1,1084.11,77a214.43,214.43,0,0,1,14,24.78,200.06,200.06,0,0,1,10.54,26.36,197.34,197.34,0,0,1,7.06,30.27,189,189,0,0,1,2.12,23.82c.13,5.29.09,10.58-.25,15.88-.31,4.73-.61,9.46-1.29,14.15-1,7-2.24,13.94-4,20.85a203.86,203.86,0,0,1-9.62,29.26,218.34,218.34,0,0,1-25.39,44.87,255,255,0,0,1-39.78,42.93c-2.79,2.4-5.64,4.75-8.46,7.13a1.92,1.92,0,0,0-1.34,1.44A3.7,3.7,0,0,0,1029.63,357.68Zm-692.42.15c-62.07-51.31-92.25-111.9-89-182.37C253.61,105,291.3,47,359.31.59a8.88,8.88,0,0,0-2.73-.16q-43.66,0-87.35,0a6.08,6.08,0,0,0-4.78,1.84,283,283,0,0,0-20.17,22,224.46,224.46,0,0,0-31.16,50.16,205.48,205.48,0,0,0-10.32,28.73,203.18,203.18,0,0,0-5,23.18,183.36,183.36,0,0,0-1.88,20.1,190.24,190.24,0,0,0,.95,28.93,199,199,0,0,0,12.85,51.36A218.38,218.38,0,0,0,239,278.17a258.13,258.13,0,0,0,40.73,42.4q11.14,9.29,23.45,17.65A323.89,323.89,0,0,0,335,357.14,3.26,3.26,0,0,0,337.21,357.83Zm742.34-76.21a3.91,3.91,0,0,0,1.34-1.67c1.17-2.11,2.33-4.23,3.43-6.37a189,189,0,0,0,10.82-25.31,183.24,183.24,0,0,0,6.07-21.67q1.86-8.73,2.93-17.55c.5-4.15,1-8.31,1.15-12.47a168.53,168.53,0,0,0-.23-21.67c-.42-4.58-.84-9.17-1.44-13.75a163.12,163.12,0,0,0-3.09-16.6A191.13,191.13,0,0,0,1090.07,113a209.15,209.15,0,0,0-14.77-28.16,232.41,232.41,0,0,0-27.47-35.46,257.54,257.54,0,0,0-24.21-22.66q-7.82-6.45-16.26-12.44Q997.85,7.55,987.7,1.45a7.18,7.18,0,0,0-3.93-1q-61,0-121.91,0c-.74,0-1.47,0-2.21.07C938.56,17.07,1000.58,51.7,1043.28,106S1096.73,219.28,1079.55,281.62ZM776,195.43a57.77,57.77,0,0,0-2.86-18.51c-2.41-7.6-7-14.18-12.27-20.38-7.9-9.25-17.32-16.89-29.36-21.63a58.48,58.48,0,0,0-34-2.89,76,76,0,0,0-28.13,12.44c-21.69,15.16-37.54,34.17-46.53,57.56a52.62,52.62,0,0,0-3.72,22.69A32,32,0,0,0,624.64,241a58.27,58.27,0,0,0,19.14,17.4c21,12.12,43.77,16.34,68.35,12.15a72.6,72.6,0,0,0,37.41-17.85C767,236.83,775.31,217.52,776,195.43Zm-615.78,25-.36,0c0,.37,0,.74,0,1.11a207.1,207.1,0,0,0,2.76,24.15,193.84,193.84,0,0,0,5.15,22.39A218.63,218.63,0,0,0,182.28,305a234.43,234.43,0,0,0,21.39,34.64,252.56,252.56,0,0,0,32.45,35.8,277.81,277.81,0,0,0,34.19,26.67,6.83,6.83,0,0,0,4.09,1.13q27,0,54,0h2.3a11.75,11.75,0,0,0-3.11-1.72c-7.22-3-14.25-6.19-21.1-9.63A323.91,323.91,0,0,1,270.8,371c-8-5.38-15.69-11-22.92-17a291.74,291.74,0,0,1-30.78-29.32,265.37,265.37,0,0,1-25.22-32.6,240.41,240.41,0,0,1-21.71-41.43,220.06,220.06,0,0,1-7.46-21.42C161.86,226.31,161,223.35,160.21,220.39ZM850.52,128v4.13c0,7.94-2.76,15.06-7.72,21.52a31.68,31.68,0,0,1-7.47,7,3,3,0,0,1-3,.29,21.55,21.55,0,0,0-16.87.73,43.56,43.56,0,0,0-6.77,4.07,4,4,0,0,0-1.58,4.88,5.49,5.49,0,0,0,4.48,3.78,38.25,38.25,0,0,0,16.8-.07c3.93-.91,3.93-.89,5.72,2.39.21.39.38.8.56,1.2a47.18,47.18,0,0,1,2.15,32.78,12.05,12.05,0,0,1-2.09,3.89,4.79,4.79,0,0,1-3.07,1.88,20.2,20.2,0,0,1-12.13-1.18,48.92,48.92,0,0,1-12.67-8.08,119.73,119.73,0,0,1-13-13.62,11.26,11.26,0,0,0-2.45-2.37,5.59,5.59,0,0,0-6.79.35,4.49,4.49,0,0,0-.77,6.48,134,134,0,0,0,16.45,17.19,51.82,51.82,0,0,0,16.07,9.64,33.62,33.62,0,0,0,17.84,1.34c5.71-1.11,9.29-4.54,11.58-9.21a39.05,39.05,0,0,0,3.74-15.6c.54-11.09-1-21.81-7.06-31.69-.55-.91-.45-1.44.47-1.95a6.68,6.68,0,0,0,.74-.54A43.33,43.33,0,0,0,860,142.52a80,80,0,0,0,2-18.34A32.59,32.59,0,0,0,858.35,108a15.59,15.59,0,0,0-8.07-7.11,26.59,26.59,0,0,0-13.09-1.65,59.82,59.82,0,0,0-15.33,4,143.35,143.35,0,0,0-20,10.17c-10.13,5.92-19.72,12.53-29.47,18.95-3.61,2.37-7.34,4.6-10.95,7a4.8,4.8,0,0,0-1.29,7.31c1.85,2.42,4.46,2.8,7.46.94q5.52-3.44,10.92-7c9.7-6.46,19.15-13.26,29.33-19.12a117.46,117.46,0,0,1,24.57-11,28.45,28.45,0,0,1,9.14-1.42c3.74.1,6.34,1.71,7.69,4.88a18.65,18.65,0,0,1,.7,2.07C851.16,119.87,851,123.92,850.52,128ZM565.32,228.84c-.07.84-.75,1.3-1.2,1.87a69.73,69.73,0,0,0-12.24,22.17c-1.76,5.37-2.87,10.81-2,16.45,1.31,8.2,8.08,13.58,17.25,13.67a42.37,42.37,0,0,0,15.31-3.18c13.68-5.13,25.35-13.1,36.75-21.41,2.27-1.67,2.33-4.14.4-6.12a6.54,6.54,0,0,0-8.6-.64c-4.51,3.23-9,6.46-13.75,9.44A90.15,90.15,0,0,1,576,271.4a28.5,28.5,0,0,1-8.4,1.62c-3.87,0-6-1.61-6.51-5a20.46,20.46,0,0,1,.21-7.76c2.22-10.16,7.36-19,14.77-26.84,2.23-2.36,4.62-4.39,8.39-4.21a.85.85,0,0,0,.23,0,27.27,27.27,0,0,0,13.49-6.19c1.55-1.36,2.2-3,1.42-4.92a5.39,5.39,0,0,0-4.71-3.54,23,23,0,0,0-6,.17,33,33,0,0,0-11.87,4.47,4.57,4.57,0,0,1-3.13.67A57.94,57.94,0,0,1,558,215.85c-4.7-1.94-9-4.47-12.16-8.23a10.17,10.17,0,0,1-2.57-5.06c-.7-4.56,2-8.58,7-10.45a31.57,31.57,0,0,1,12.48-1.64,93.52,93.52,0,0,1,25.51,4.67c6.67,2.22,13.32,4.52,18.24,9.58,1.36,1.4,3.49,1.38,5.31.42a5.13,5.13,0,0,0,1.63-8.21,22.82,22.82,0,0,0-6.2-4.73,100.69,100.69,0,0,0-31.36-10.32A73,73,0,0,0,554.7,181c-7.22.92-13.57,3.33-18.17,8.68s-5.82,11.43-3,17.93a26.38,26.38,0,0,0,6.28,8.63c6.19,5.85,13.84,9.45,22.34,11.71A15,15,0,0,1,565.32,228.84Zm514.07,53.55-.09-.14s-.13.07-.12.08a1.43,1.43,0,0,0,.14.2Z"/><path class="cls-2" d="M0,.09c1.28,0,2.56,0,3.84,0H250.79c-2.37,3-5.1,5.38-7.35,8s-4.72,5.35-7,8.07-4.42,5.35-6.52,8.08-4.12,5.65-6.19,8.46-3.95,5.72-5.78,8.64-3.65,5.84-5.37,8.79-3.3,5.83-4.84,8.77-3.12,6-4.54,9.08-2.7,6.14-4,9.23-2.5,6.19-3.61,9.32-2.09,6.27-3.1,9.42-1.73,6.21-2.57,9.32-1.52,6.38-2.18,9.58-1.07,6.43-1.7,9.64-.84,6.45-1.22,9.68-.7,6.35-.87,9.52-.13,6.51-.14,9.76,0,6.5.08,9.75.29,6.49.59,9.73.74,6.34,1.19,9.5,1,6.44,1.57,9.65,1.29,6.41,2.06,9.59,1.64,6.36,2.56,9.52,1.91,6.32,3,9.45,2.19,6.13,3.4,9.17,2.53,6.18,3.91,9.24,2.83,6.11,4.36,9.13,3.13,6,4.82,9,3.4,5.79,5.19,8.65,3.69,5.83,5.65,8.7,4,5.68,6.12,8.48,4.28,5.57,6.52,8.31,4.55,5.44,6.92,8.11,4.75,5.18,7.2,7.72,5,5.17,7.65,7.69,5.32,5,8.06,7.43,5.53,4.86,8.39,7.21,5.69,4.57,8.61,6.8,6,4.51,9.08,6.68,6.25,4.28,9.44,6.36,6.43,4.12,9.71,6.1,6.49,3.87,9.8,5.72,6.83,3.71,10.3,5.5,7,3.53,10.53,5.21,7.15,3.32,10.79,4.89,7.32,3.07,11,4.53,7.31,2.83,11,4.15,7.58,2.65,11.43,3.89,7.71,2.42,11.61,3.54,7.83,2.16,11.78,3.16,7.75,2,11.68,2.8,8,1.77,12.05,2.45,8,1.45,12,2.49h-2.44q-39.47,0-79,0a17.63,17.63,0,0,1-5.57-.86,326.16,326.16,0,0,1-41.83-17.07,308.73,308.73,0,0,1-27.54-15.3,287.45,287.45,0,0,1-32.37-23.4,271.27,271.27,0,0,1-36.28-36.51A250.34,250.34,0,0,1,193.7,273.4a238.87,238.87,0,0,1-13-27.59,210.53,210.53,0,0,1-8.46-26.49c-1.42-5.7-2.63-11.42-3.67-17.16-.66-3.64-1.08-7.31-1.53-11a208.67,208.67,0,0,1-1.39-32.95c.25-6.54.86-13.08,1.66-19.61,1-8.33,2.69-16.58,4.54-24.81.45-2,1.05-4,1.61-6a3.72,3.72,0,0,0,.2-1.72,49.6,49.6,0,0,0-4.09,7.69,229.23,229.23,0,0,0-14.87,39.85A216.42,216.42,0,0,0,150,175.93c-.77,4.82-1.28,9.67-1.71,14.53a212,212,0,0,0-.8,26.78c.21,5.61.56,11.22,1.25,16.81.57,4.73,1.17,9.45,2,14.14.63,3.46,1.32,6.9,2.11,10.34q1.59,6.81,3.55,13.56a227.21,227.21,0,0,0,10.45,28.21,231.59,231.59,0,0,0,18.64,33.88A257.22,257.22,0,0,0,220.08,376,276.06,276.06,0,0,0,252,402.93c.17.11.24.31.35.46-.38.53-1,.31-1.51.33-.72,0-1.44,0-2.16,0H1.45c-.47,0-.95,0-1.43.07Z"/><path class="cls-3" d="M990.18,386.34c5.13-1.65,10.07-3.61,15-5.61a356.31,356.31,0,0,0,34.47-16.16,326.19,326.19,0,0,0,35.77-22.24q11.73-8.4,22.39-17.61a277.86,277.86,0,0,0,27.42-27.37,242.3,242.3,0,0,0,21-27.82,223.46,223.46,0,0,0,21.31-41.83,210.4,210.4,0,0,0,9.26-31.23,187.14,187.14,0,0,0,3.11-19.93c.51-5.12.71-10.24,1-15.37a157,157,0,0,0-.32-19.52,187.8,187.8,0,0,0-3.05-23.89,205.62,205.62,0,0,0-15.86-49.23A235.16,235.16,0,0,0,1132.09,21,253.09,253.09,0,0,0,1114.57,1.2a8.12,8.12,0,0,1-.61-.76c.36-.61,1-.34,1.5-.39s1,0,1.45,0h245.3c1,0,1.93,0,2.9,0v404.6c-1,0-2.09-.05-3.14-.05H1112.26a.69.69,0,0,1,.39-.82c2.26-1.69,4.59-3.33,6.79-5.07,7.51-5.93,14.76-12,21.56-18.48a259,259,0,0,0,39.26-46.74,232.87,232.87,0,0,0,23-44.94,228.71,228.71,0,0,0,9.3-30.84,212.49,212.49,0,0,0,4.33-27.92c.52-6.06.93-12.13.92-18.21,0-7.45-.49-14.89-1.16-22.32-.53-5.75-1.26-11.48-2.29-17.17a216.77,216.77,0,0,0-7.43-29.43A230.86,230.86,0,0,0,1192.85,109a4.49,4.49,0,0,0-1.45-2,18.53,18.53,0,0,0,1,4.44c1.84,7.5,3.39,15,4.54,22.61a184.51,184.51,0,0,1,2.06,19.26,220.69,220.69,0,0,1-.21,28.17q-.69,8.63-1.9,17.2a203.45,203.45,0,0,1-4.6,22.79A220.21,220.21,0,0,1,1182,251.7a233.23,233.23,0,0,1-18.22,34.73A256.23,256.23,0,0,1,1138.26,320a280,280,0,0,1-35.32,33c-6.56,5.17-13.45,10.07-20.59,14.74A312.76,312.76,0,0,1,1040,391a347.07,347.07,0,0,1-34,13.23,10.07,10.07,0,0,1-3.28.43H969.4c-.8,0-1.6-.06-2.4-.09.15-.52.65-.84,1.12-1.17a222.72,222.72,0,0,0,18.09-14.1A20.75,20.75,0,0,1,990.18,386.34Z"/><path class="cls-4" d="M992.11,385.48a21,21,0,0,0-3.94,2.94,220.91,220.91,0,0,1-18,14.07,2.52,2.52,0,0,0-1.12,1.17,2.93,2.93,0,0,0-1.85,1.26H835.68c1.51-1.08,3.49-1.48,5.27-2.14a354.16,354.16,0,0,0,64.24-31c3.75-2.33,7.39-4.76,11.07-7.16.79-.52,1.48-1.13,2.22-1.7a5.27,5.27,0,0,0,1-.46c2.53-1.81,5.07-3.61,7.54-5.48,7-5.3,13.78-10.77,20.17-16.53,2-1.83,4.08-3.68,6-5.59,3.35-3.33,6.69-6.66,9.86-10.1a236.43,236.43,0,0,0,19.44-24c3.28-4.65,6.3-9.39,9.12-14.22,2.61-4.48,5.07-9,7.29-13.63a180.67,180.67,0,0,0,7.2-16.85c1.58-4.38,3.06-8.77,4.33-13.21,1.41-4.92,2.65-9.85,3.65-14.83.62-3.07,1.18-6.15,1.55-9.24s.78-6.44,1.15-9.66c.45-3.92.22-7.84.7-11.76.61-5-.41-10.1-.37-15.15a47.78,47.78,0,0,0-.63-7.27c-.69-4.75-1.28-9.51-2.18-14.25-1-5.23-2.2-10.43-3.67-15.58a198.66,198.66,0,0,0-9.87-27.12c-1.67-3.7-3.43-7.38-5.33-11q-4.25-8.14-9.2-16-4.1-6.56-8.66-12.91c-4.19-5.82-8.64-11.52-13.41-17a2.51,2.51,0,0,1-.84-1.53l0,0c.69.18,1.08.85,1.94.76l0,0,.48.48,4.36,3.58a1.43,1.43,0,0,0,1.37.87h0l.53.35,0,0a.61.61,0,0,0,.51.4l0,0a.62.62,0,0,0,.5.4l0,0a.66.66,0,0,0,.5.4l0,0a.64.64,0,0,0,.5.4l0,0a.74.74,0,0,0,.59.73l-.05,0a1.25,1.25,0,0,0,1,.79l0,0,.51.47c10.23,8.11,19.05,17.14,27.71,26.27a245.44,245.44,0,0,1,23.25,28.6,221.3,221.3,0,0,1,24.05,44.05,190.26,190.26,0,0,1,7.76,23.36,183.88,183.88,0,0,1,4.61,24.24,168.82,168.82,0,0,1,1.3,23.76,188.27,188.27,0,0,1-2.14,24.47,181.44,181.44,0,0,1-9.94,37.15,191,191,0,0,1-13.58,28.2,218.42,218.42,0,0,1-24.53,33.88,245.27,245.27,0,0,1-20.68,20.89C993.09,384.22,992.23,384.66,992.11,385.48Z"/><path class="cls-4" d="M416.26,60c-.1,2.21-1.09,4.28-1.63,6.42-1.62,6.37-3.18,12.73-4.29,19.17-1.28,7.36-2.35,14.73-2.93,22.15a203.49,203.49,0,0,0-.72,25.29c.32,7.18.76,14.35,1.7,21.5A236.3,236.3,0,0,0,416,190.74a240.91,240.91,0,0,0,17.66,43.51,268,268,0,0,0,29.76,45.07,305.72,305.72,0,0,0,34.68,36.09q12.06,10.69,25.41,20.41a363,363,0,0,0,39.71,25.06,398.18,398.18,0,0,0,52.59,23.91q19.08,7.08,39.08,12.38c10.67,2.83,21.5,5.21,32.42,7.36a1.78,1.78,0,0,1,1,.39H530.89a22,22,0,0,0-4.76-2.61,3.3,3.3,0,0,0-1.25-1.11c-3.65-2.22-7.13-4.59-10.74-6.84-5.18-3.23-10.05-6.74-14.84-10.3-8.85-6.57-17.32-13.45-25.31-20.69-4.38-4-8.62-8-12.79-12.09-5.16-5.07-9.91-10.38-14.56-15.75-3.72-4.28-7.2-8.68-10.61-13.12q-5.49-7.14-10.38-14.53c-4.28-6.42-8.27-12.95-11.9-19.62q-4.87-9-9-18.12c-2.64-5.81-4.87-11.73-7.05-17.66-1.31-3.59-2.46-7.21-3.54-10.85C393,237.82,392,234,391,230.14c-.82-3.29-1.58-6.59-2.18-9.91-.54-3-1.28-6-1.62-9s-.94-6-1.25-9.07c-.23-2.29-.35-4.61-.64-6.88-.5-3.85-.57-7.72-.73-11.56a210.06,210.06,0,0,1,.34-23.4c.17-2.49.35-5,.64-7.45.52-4.32.87-8.67,1.76-13,.63-3.07,1-6.17,1.6-9.23.82-3.86,1.79-7.7,2.77-11.54.83-3.29,1.66-6.58,2.67-9.84,1.24-4,2.57-8,4.05-11.91,1.88-5,3.79-10,6-15a200.65,200.65,0,0,1,9-18.12C414.23,62.82,414.48,61.09,416.26,60Z"/><path class="cls-1" d="M967.2,404.92a2.93,2.93,0,0,1,1.85-1.26c.8,0,1.6.08,2.4.08h33.11a10.29,10.29,0,0,0,3.27-.43,349.68,349.68,0,0,0,33.87-13.2,311.56,311.56,0,0,0,42.11-23.18q10.67-7,20.48-14.71a277.84,277.84,0,0,0,35.14-32.92,255.3,255.3,0,0,0,25.39-33.51,233.21,233.21,0,0,0,18.12-34.65,219.18,219.18,0,0,0,10.24-30.2,204.78,204.78,0,0,0,4.58-22.74q1.2-8.57,1.89-17.16a223.47,223.47,0,0,0,.21-28.11,186,186,0,0,0-2-19.21c-1.15-7.57-2.69-15.08-4.52-22.56a18.55,18.55,0,0,1-1-4.43,4.41,4.41,0,0,1,1.43,2,229.62,229.62,0,0,1,14,33.63,217.26,217.26,0,0,1,7.39,29.37c1,5.68,1.75,11.39,2.27,17.13.68,7.42,1.15,14.84,1.16,22.27,0,6.07-.39,12.12-.92,18.17a211.52,211.52,0,0,1-4.3,27.86,228.59,228.59,0,0,1-9.26,30.77,232.66,232.66,0,0,1-22.85,44.85,258.35,258.35,0,0,1-39.06,46.63c-6.77,6.43-14,12.53-21.45,18.44-2.19,1.74-4.51,3.37-6.76,5.06a.69.69,0,0,0-.38.82H1362c1,0,2.08,0,3.12.05,0,.62.29,1.45-1.21,1.13a5,5,0,0,0-1,0Zm68-.83c.2,0,.27.06.35.06q28.44,0,56.88,0a4.77,4.77,0,0,0,2.79-.9q9-6.06,17.46-12.57c4.16-3.2,8-6.6,12-10,4.81-4.1,9.33-8.39,13.68-12.79a254.18,254.18,0,0,0,26.28-31.08,236.78,236.78,0,0,0,18.41-30.27,211.67,211.67,0,0,0,11.15-26.1,206.18,206.18,0,0,0,9.69-39.08,163.08,163.08,0,0,0,1.94-18.65c0-.92.63-1.83.1-2.82a15.63,15.63,0,0,0-.61,1.67c-1.54,6-3.28,12-5.32,17.86a238.93,238.93,0,0,1-11.57,27.77,251.26,251.26,0,0,1-17,29.14,263.13,263.13,0,0,1-16.84,22.25q-9,10.65-19.21,20.58c-5,4.82-10.12,9.51-15.56,14a313.5,313.5,0,0,1-31.1,22.83q-13.47,8.6-28,16c-7.91,4-16,7.78-24.42,11.16C1035.93,403.43,1035.41,403.5,1035.22,404.09Z"/><path class="cls-2" d="M416.26,60c-1.78,1.06-2,2.79-2.86,4.23a200.65,200.65,0,0,0-9,18.12c-2.19,4.94-4.1,10-6,15-1.48,3.94-2.81,7.92-4.05,11.91-1,3.26-1.84,6.55-2.67,9.84-1,3.84-1.95,7.68-2.77,11.54-.65,3.06-1,6.16-1.6,9.23-.89,4.29-1.24,8.64-1.76,13-.29,2.47-.47,5-.64,7.45a210.06,210.06,0,0,0-.34,23.4c.16,3.84.23,7.71.73,11.56.29,2.27.41,4.59.64,6.88.31,3,.91,6,1.25,9.07s1.08,6,1.62,9c.6,3.32,1.36,6.62,2.18,9.91,1,3.84,2,7.68,3.11,11.49,1.08,3.64,2.23,7.26,3.54,10.85,2.18,5.93,4.41,11.85,7.05,17.66q4.15,9.17,9,18.12c3.63,6.67,7.62,13.2,11.9,19.62q4.91,7.38,10.38,14.53c3.41,4.44,6.89,8.84,10.61,13.12,4.65,5.37,9.4,10.68,14.56,15.75,4.17,4.08,8.41,8.13,12.79,12.09,8,7.24,16.46,14.12,25.31,20.69,4.79,3.56,9.66,7.07,14.84,10.3,3.61,2.25,7.09,4.62,10.74,6.84a3.3,3.3,0,0,1,1.25,1.11,102.69,102.69,0,0,1-11.9-2.05,376,376,0,0,1-40.46-10.44,356.8,356.8,0,0,1-35.22-13.2q-15-6.56-29.05-14.22c-9.11-5-17.82-10.36-26.25-16a311.26,311.26,0,0,1-25.34-19.15c-6.68-5.56-12.94-11.4-18.92-17.44a257.4,257.4,0,0,1-25.74-30.24A240.88,240.88,0,0,1,297,253.84a218.83,218.83,0,0,1-12.68-27.67c-1.63-4.3-3-8.68-4.42-13-.14-.42-.14-.88-.59-1.2a98.59,98.59,0,0,1,1.37-12.44c.59-4.39,1.64-8.72,2.5-13.08.49-2.45,1.21-4.88,1.85-7.31,1.51-5.73,3.39-11.39,5.47-17a173.38,173.38,0,0,1,6.79-16A220.12,220.12,0,0,1,313,118.85q7-10.25,15.1-20c4.15-5,8.77-9.79,13.43-14.54A218.37,218.37,0,0,1,358.2,69a289.19,289.19,0,0,1,29.94-22.08c7-4.41,14.19-8.67,21.61-12.66,9.34-5,19.13-9.47,29.08-13.71a8.34,8.34,0,0,1,3.09-1c-2.46,3.27-4.95,6.52-7.36,9.81-3.73,5.07-7.26,10.23-10.43,15.54-1.92,3.21-3.88,6.41-5.65,9.67a9,9,0,0,0-1.54,4.08C416.93,59.12,416.5,59.57,416.26,60Z"/><path class="cls-3" d="M965.31,60.11c-.86.09-1.25-.58-1.94-.76l-.24-.16.2.19a2.51,2.51,0,0,0,.84,1.53c4.77,5.53,9.22,11.23,13.41,17q4.57,6.35,8.66,12.91,4.95,7.91,9.2,16c1.9,3.64,3.66,7.32,5.33,11a198.66,198.66,0,0,1,9.87,27.12c1.47,5.15,2.67,10.35,3.67,15.58.9,4.74,1.49,9.5,2.18,14.25a47.78,47.78,0,0,1,.63,7.27c0,5,1,10.11.37,15.15-.48,3.92-.25,7.84-.7,11.76-.37,3.22-.76,6.44-1.15,9.66s-.93,6.17-1.55,9.24c-1,5-2.24,9.91-3.65,14.83-1.27,4.44-2.75,8.83-4.33,13.21a180.67,180.67,0,0,1-7.2,16.85c-2.22,4.61-4.68,9.15-7.29,13.63-2.82,4.83-5.84,9.57-9.12,14.22a236.43,236.43,0,0,1-19.44,24c-3.17,3.44-6.51,6.77-9.86,10.1-1.91,1.91-4,3.76-6,5.59-6.39,5.76-13.16,11.23-20.17,16.53-2.47,1.87-5,3.67-7.54,5.48a5.27,5.27,0,0,1-1,.46l4.79-8.17a220.17,220.17,0,0,0,18.05-39.46,205.82,205.82,0,0,0,7.43-27.84c1-4.93,1.67-9.9,2.25-14.88a214.88,214.88,0,0,0,1.39-24.7A180.54,180.54,0,0,0,951.27,227a209.74,209.74,0,0,0-7.84-38,222.67,222.67,0,0,0-20.24-46.18,253.54,253.54,0,0,0-39.72-51.38c-5.88-5.93-12.14-11.6-18.66-17.11a308.22,308.22,0,0,0-40.58-28.87,344.64,344.64,0,0,0-47.71-23.7,376.51,376.51,0,0,0-52.46-16.9C717.89,3.37,711.67,2,705.38.8a3.88,3.88,0,0,1-1.93-.66c.86,0,1.51-.09,2.17-.09H821.05c3.74,0,7.23,1,10.77,1.7a359,359,0,0,1,54.74,15.32,309.51,309.51,0,0,1,53.29,25.46,278.24,278.24,0,0,1,23.24,15.66A7.45,7.45,0,0,1,965.31,60.11Z"/><path class="cls-4" d="M337.21,358.65A3.26,3.26,0,0,1,335,358a322.44,322.44,0,0,1-31.8-19,293.66,293.66,0,0,1-23.45-17.71A258.46,258.46,0,0,1,239,278.73a219.47,219.47,0,0,1-29.25-51.63,200.31,200.31,0,0,1-12.85-51.53,191.6,191.6,0,0,1-.95-29,184.63,184.63,0,0,1,1.88-20.17,204.51,204.51,0,0,1,5-23.26,206.72,206.72,0,0,1,10.32-28.83A225.43,225.43,0,0,1,244.28,24,282.23,282.23,0,0,1,264.45,1.84,6.08,6.08,0,0,1,269.23,0q43.68.11,87.35.05a8.88,8.88,0,0,1,2.73.16C291.3,46.75,253.61,105,248.22,175.67,245,246.38,275.14,307.17,337.21,358.65Z"/><path class="cls-4" d="M1029.07,358.06c2.82-2.38,5.67-4.74,8.46-7.15a255.39,255.39,0,0,0,39.78-43.07,219.39,219.39,0,0,0,25.39-45,205.51,205.51,0,0,0,9.62-29.36c1.72-6.94,2.94-13.92,4-20.92.68-4.71,1-9.45,1.29-14.2.34-5.31.38-10.62.25-15.93a190.43,190.43,0,0,0-2.12-23.91,197.78,197.78,0,0,0-17.6-56.81,215.42,215.42,0,0,0-14-24.86,248.82,248.82,0,0,0-36.79-44,285.77,285.77,0,0,0-25.68-21.76c-4.5-3.37-9.12-6.65-13.88-9.8-.4-.26-1-.42-1-1,.5-.39,1.18-.22,1.76-.22q44.52,0,89,0a4.13,4.13,0,0,1,3.21,1.23,253.3,253.3,0,0,1,32.41,38.22,218.68,218.68,0,0,1,23,43,191.48,191.48,0,0,1,9.12,29.46,185.72,185.72,0,0,1,3.18,18.55c.78,6.59,1.14,13.2,1.52,19.82a139.65,139.65,0,0,1-.41,17.6,189.6,189.6,0,0,1-3.93,27.71,203.5,203.5,0,0,1-13.1,39.84,223.22,223.22,0,0,1-25.6,43.1,253,253,0,0,1-24.23,27.67A274.35,274.35,0,0,1,1073.85,331a315.28,315.28,0,0,1-41,25.91c-1.06.56-2.16,1.06-3.25,1.59Z"/><path class="cls-2" d="M465.67.1c.72,0,1.44-.06,2.15-.06h79.45c.18.82-.56,1.21-1,1.66A267.57,267.57,0,0,0,523.88,26.5c-5.11,6.42-9.81,13-14.2,19.77A237,237,0,0,0,491.22,80.6a217,217,0,0,0-12,35.82,185.74,185.74,0,0,0-4,21.83c-.66,5.6-1.16,11.19-1.55,16.8a189.94,189.94,0,0,0-.19,20.8c.21,5,.65,10,1.19,15,.72,6.53,1.81,13,3.08,19.48,1.16,5.86,2.75,11.65,4.44,17.43a211.66,211.66,0,0,0,8.58,23.76A226.26,226.26,0,0,0,501.27,273c3,5.45,6.26,10.81,9.79,16.07a259.41,259.41,0,0,0,25.83,32.64A269.72,269.72,0,0,0,556.7,341a5.76,5.76,0,0,1,.53.59c-.55.53-.9.08-1.21-.1q-11.52-6.58-22.24-13.95-11-7.55-21.06-15.86a281.49,281.49,0,0,1-28.86-27.51,252.27,252.27,0,0,1-29.46-39.44,229.77,229.77,0,0,1-16.24-32.41A215.09,215.09,0,0,1,428.84,184c-1.45-5.75-2.76-11.52-3.63-17.35-1-6.75-1.89-13.51-2.42-20.3a243.51,243.51,0,0,1-.23-27.55c.19-5.35.92-10.7,1.64-16q1.32-9.87,3.53-19.62t5.48-19.55c2-6.1,4.32-12.15,6.92-18.11a221.68,221.68,0,0,1,10.95-22c1.67-2.9,3.4-5.78,5.09-8.68a4.8,4.8,0,0,0,.34-.89c.52-.7,1.07-1.38,1.56-2.09,1.61-2.35,3.06-4.77,4.72-7.1C463.86,3.25,465.19,1.83,465.67.1Z"/><path class="cls-2" d="M1079.55,282.18c17.18-62.54,6.51-121.63-36.27-176.2S938.56,16.74,859.65.13c.74,0,1.47-.07,2.21-.07q60.95,0,121.91,0a7.18,7.18,0,0,1,3.93,1q10.17,6.14,19.66,12.86,8.46,6,16.26,12.48a258.37,258.37,0,0,1,24.21,22.75,232.34,232.34,0,0,1,27.47,35.58A209.44,209.44,0,0,1,1090.07,113a192.62,192.62,0,0,1,10.46,31.68,164.25,164.25,0,0,1,3.09,16.66c.6,4.59,1,9.19,1.44,13.8a169.6,169.6,0,0,1,.23,21.74c-.16,4.17-.65,8.34-1.15,12.51q-1.08,8.85-2.93,17.61a184.86,184.86,0,0,1-6.07,21.74,190.07,190.07,0,0,1-10.82,25.4c-1.1,2.14-2.26,4.27-3.43,6.39A3.85,3.85,0,0,1,1079.55,282.18Z"/><path class="cls-3" d="M465.67.1c-.48,1.73-1.81,3.15-2.88,4.65-1.66,2.33-3.11,4.75-4.72,7.1-.49.71-1,1.39-1.56,2.09-4.68,1.48-9.2,3.22-13.68,5a5.45,5.45,0,0,0-.91.59,8.34,8.34,0,0,0-3.09,1c-9.95,4.24-19.74,8.69-29.08,13.71-7.42,4-14.59,8.25-21.61,12.66A289.19,289.19,0,0,0,358.2,69a218.37,218.37,0,0,0-16.67,15.39c-4.66,4.75-9.28,9.52-13.43,14.54q-8.07,9.74-15.1,20a220.12,220.12,0,0,0-15.67,27.29,173.38,173.38,0,0,0-6.79,16c-2.08,5.62-4,11.28-5.47,17-.64,2.43-1.36,4.86-1.85,7.31-.86,4.36-1.91,8.69-2.5,13.08A98.59,98.59,0,0,0,279.35,212a2.54,2.54,0,0,0-.36,1.46,208.49,208.49,0,0,0-.45,21.36,193.45,193.45,0,0,0,1.94,20.91,184.39,184.39,0,0,0,5.82,25.78c.13.41.38.8.07,1.25a3.58,3.58,0,0,1-1.16-1.62,199.29,199.29,0,0,1-10.29-21.17,193.6,193.6,0,0,1-10-31.39c-1.33-5.9-2.43-11.83-3.17-17.79a131.31,131.31,0,0,1-1.16-13.26c-.08-3.75-.37-7.5-.27-11.24.17-6.49.45-13,1.15-19.45a185.81,185.81,0,0,1,8.34-38.13,200.67,200.67,0,0,1,18.53-40.31,229.1,229.1,0,0,1,28-37.46,259.68,259.68,0,0,1,25.26-24A291.92,291.92,0,0,1,366.1,8.67c4.07-2.73,8.28-5.31,12.49-7.9a6.54,6.54,0,0,1,3.6-.73Q408,0,433.77,0,449.72,0,465.67.1Z"/><path class="cls-5" d="M774.18,195.11c-.67,21.88-8.89,41-26.07,56.72a71.36,71.36,0,0,1-36.88,17.69c-24.22,4.14-46.71,0-67.36-12A57.58,57.58,0,0,1,625,240.25a31.82,31.82,0,0,1-5.44-16.14,52.36,52.36,0,0,1,3.65-22.47c8.87-23.17,24.5-42,45.87-57a74.41,74.41,0,0,1,27.73-12.32,57.3,57.3,0,0,1,33.51,2.85c11.87,4.7,21.16,12.26,28.95,21.43,5.22,6.14,9.71,12.65,12.09,20.19A57.43,57.43,0,0,1,774.18,195.11Zm-46.77-39.26a27.93,27.93,0,0,0,0-3.66,15.25,15.25,0,0,0-6-10.72,25.11,25.11,0,0,0-14.47-5A40.36,40.36,0,0,0,691.52,139c-10,3.57-18.32,9.34-25.95,16a138.3,138.3,0,0,0-26.21,30.69,87.32,87.32,0,0,0-10.06,20.68A31.93,31.93,0,0,0,627.57,218c.35,5.15,3.17,8.63,8.53,10.41a27.74,27.74,0,0,0,11.1,1.19,73.53,73.53,0,0,0,24.55-6.9,111.77,111.77,0,0,0,23.81-14.78c11.39-9.2,20.57-19.86,26.72-32.53C725.31,169.17,727.49,162.74,727.41,155.85Z"/><path class="cls-3" d="M160.21,220.75c.83,3,1.65,5.94,2.5,8.91a221.32,221.32,0,0,0,7.46,21.49,241.62,241.62,0,0,0,21.71,41.57,266.4,266.4,0,0,0,25.22,32.71,292.57,292.57,0,0,0,30.78,29.42c7.23,6,14.93,11.64,22.92,17a324.29,324.29,0,0,0,35.67,20.86q10.27,5.19,21.1,9.66a12.07,12.07,0,0,1,3.11,1.73h-2.3q-27,0-54,0a6.76,6.76,0,0,1-4.09-1.13,278.41,278.41,0,0,1-34.19-26.76,252.84,252.84,0,0,1-32.45-35.92,236,236,0,0,1-21.39-34.75,220.26,220.26,0,0,1-14.52-37,195.15,195.15,0,0,1-5.15-22.47,208.28,208.28,0,0,1-2.76-24.22c0-.38,0-.75,0-1.12Z"/><path class="cls-5" d="M850.44,127.76c.48-4,.64-8.05-.55-12a21.6,21.6,0,0,0-.71-2c-1.36-3.15-4-4.75-7.72-4.85a28.89,28.89,0,0,0-9.16,1.41,118.16,118.16,0,0,0-24.65,11c-10.21,5.82-19.68,12.57-29.42,19q-5.41,3.59-11,7c-3,1.86-5.63,1.48-7.48-.93a4.74,4.74,0,0,1,1.29-7.26c3.62-2.37,7.36-4.59,11-7,9.78-6.37,19.4-12.94,29.56-18.82a144.9,144.9,0,0,1,20.07-10.1,60.39,60.39,0,0,1,15.37-4,27,27,0,0,1,13.13,1.65,15.6,15.6,0,0,1,8.1,7A32.14,32.14,0,0,1,862,124a78.4,78.4,0,0,1-2,18.22,43,43,0,0,1-16.37,24.49,5.6,5.6,0,0,1-.74.54c-.92.51-1,1-.47,1.93,6,9.82,7.62,20.47,7.08,31.48a38.4,38.4,0,0,1-3.75,15.5c-2.3,4.64-5.89,8-11.62,9.15a34,34,0,0,1-17.9-1.33,52.17,52.17,0,0,1-16.11-9.58,133.61,133.61,0,0,1-16.5-17.08c-1.69-2-1.29-4.66.77-6.43a5.66,5.66,0,0,1,6.81-.34,11.22,11.22,0,0,1,2.46,2.35,120.16,120.16,0,0,0,13,13.53,48.78,48.78,0,0,0,12.71,8,20.46,20.46,0,0,0,12.16,1.18,4.81,4.81,0,0,0,3.08-1.87,12,12,0,0,0,2.1-3.86,46.49,46.49,0,0,0-2.15-32.57c-.18-.4-.36-.8-.57-1.19-1.79-3.26-1.8-3.28-5.73-2.37a38.67,38.67,0,0,1-16.86.06,5.47,5.47,0,0,1-4.49-3.75,3.94,3.94,0,0,1,1.59-4.84,43.18,43.18,0,0,1,6.79-4,21.73,21.73,0,0,1,16.91-.72,3,3,0,0,0,3.06-.29,31.58,31.58,0,0,0,7.48-6.94c5-6.41,7.76-13.49,7.75-21.38Z"/><path class="cls-5" d="M565.63,228.09a14.41,14.41,0,0,0-3.18-.88c-8.5-2.25-16.15-5.84-22.34-11.66a26.16,26.16,0,0,1-6.28-8.6c-2.81-6.46-1.67-12.42,3-17.84s10.95-7.73,18.17-8.64a73,73,0,0,1,21.23.87,100.72,100.72,0,0,1,31.35,10.27,22.46,22.46,0,0,1,6.2,4.71c2.41,2.68,1.65,6.45-1.63,8.17-1.82.95-3.95,1-5.31-.42-4.91-5-11.57-7.32-18.24-9.54a93.8,93.8,0,0,0-25.5-4.64,31.75,31.75,0,0,0-12.48,1.63c-5,1.86-7.71,5.86-7,10.4a10.2,10.2,0,0,0,2.58,5c3.2,3.74,7.46,6.26,12.16,8.19a58.31,58.31,0,0,0,15.88,3.93,4.71,4.71,0,0,0,3.14-.67A33,33,0,0,1,589.23,214a23.06,23.06,0,0,1,6-.17,5.38,5.38,0,0,1,4.7,3.52c.78,1.94.13,3.54-1.41,4.9A27.42,27.42,0,0,1,585,228.38a1,1,0,0,1-.24,0c-3.76-.17-6.15,1.85-8.38,4.19-7.41,7.8-12.55,16.61-14.77,26.72a20.51,20.51,0,0,0-.22,7.73c.56,3.43,2.65,5,6.52,5a28.36,28.36,0,0,0,8.39-1.61,89.88,89.88,0,0,0,21.27-10.26c4.72-3,9.23-6.18,13.75-9.4a6.56,6.56,0,0,1,8.6.64c1.92,2,1.87,4.43-.41,6.09-11.4,8.28-23.06,16.21-36.74,21.31A42.36,42.36,0,0,1,567.47,282c-9.17-.09-15.94-5.44-17.25-13.61-.9-5.61.21-11,2-16.37a69.22,69.22,0,0,1,12.24-22.08C564.88,229.38,565.56,228.92,565.63,228.09Z"/><path class="cls-2" d="M1029.07,358.06l.56.44a3.78,3.78,0,0,1-1.9,1A2,2,0,0,1,1029.07,358.06Z"/><path class="cls-3" d="M971.49,65a1.43,1.43,0,0,1-1.37-.87A1.66,1.66,0,0,1,971.49,65Z"/><path class="cls-3" d="M975.43,68.35a1.25,1.25,0,0,1-1-.79C975.07,67.59,975.38,67.87,975.43,68.35Z"/><path class="cls-2" d="M1079.39,283l-.07.15a2.43,2.43,0,0,1-.14-.2s.08,0,.12-.08Z"/><path class="cls-3" d="M974.48,67.6a.74.74,0,0,1-.59-.73C974.3,67,974.52,67.24,974.48,67.6Z"/><path class="cls-3" d="M975.89,68.8l-.51-.47C975.73,68.36,975.9,68.52,975.89,68.8Z"/><path class="cls-3" d="M973.92,66.89a.64.64,0,0,1-.5-.4Z"/><path class="cls-3" d="M973.44,66.51a.66.66,0,0,1-.5-.4A.57.57,0,0,1,973.44,66.51Z"/><path class="cls-3" d="M973,66.13a.62.62,0,0,1-.5-.4A.59.59,0,0,1,973,66.13Z"/><path class="cls-3" d="M972.5,65.75a.61.61,0,0,1-.51-.4A.57.57,0,0,1,972.5,65.75Z"/><path class="cls-3" d="M972,65.37l-.53-.35A.48.48,0,0,1,972,65.37Z"/><path class="cls-3" d="M965.76,60.57l-.48-.48Q965.79,60.17,965.76,60.57Z"/><path class="cls-4" d="M338,359.13c-.18.07-.45,0-.41-.07.26-.36.28,0,.37.1Z"/><path class="cls-4" d="M337.92,359.16l.34.16c-.33.16-.35,0-.3-.19Z"/><path class="cls-2" d="M1035.22,404.09c.19-.59.71-.66,1.11-.82,8.39-3.38,16.51-7.14,24.42-11.16q14.57-7.41,28-16a313.5,313.5,0,0,0,31.1-22.83c5.44-4.49,10.61-9.18,15.56-14q10.21-9.94,19.21-20.58a263.13,263.13,0,0,0,16.84-22.25,251.26,251.26,0,0,0,17-29.14A238.93,238.93,0,0,0,1200,239.5c2-5.91,3.78-11.87,5.32-17.86A15.63,15.63,0,0,1,1206,220c.53,1-.08,1.9-.1,2.82a163.08,163.08,0,0,1-1.94,18.65,206.18,206.18,0,0,1-9.69,39.08,211.67,211.67,0,0,1-11.15,26.1,236.78,236.78,0,0,1-18.41,30.27A254.18,254.18,0,0,1,1138.38,368c-4.35,4.4-8.87,8.69-13.68,12.79-4,3.36-7.84,6.76-12,10q-8.48,6.51-17.46,12.57a4.77,4.77,0,0,1-2.79.9q-28.44,0-56.88,0C1035.49,404.15,1035.42,404.12,1035.22,404.09Z"/><path class="cls-4" d="M963.33,59.38l-.2-.19.24.16Z"/><path class="cls-1" d="M727.41,155.8c.08,7-2.1,13.56-5.13,19.9-6.15,12.9-15.33,23.75-26.72,33.11a111.24,111.24,0,0,1-23.81,15.05,72.55,72.55,0,0,1-24.55,7,27.06,27.06,0,0,1-11.1-1.21c-5.36-1.81-8.18-5.36-8.53-10.59a33.07,33.07,0,0,1,1.73-11.91,89.81,89.81,0,0,1,10.06-21,139.89,139.89,0,0,1,26.21-31.23c7.63-6.76,16-12.63,25.95-16.26A39.65,39.65,0,0,1,707,136a24.86,24.86,0,0,1,14.47,5.13,15.58,15.58,0,0,1,6,10.91A29,29,0,0,1,727.41,155.8Z"/></g></g></svg>