<svg xmlns="http://www.w3.org/2000/svg" viewBox="0 0 329.65 183.02"><defs><style>.cls-1{fill:#83633f;}</style></defs><g id="Layer_2" data-name="Layer 2"><g id="Layer_1-2" data-name="Layer 1"><path class="cls-1" d="M241.87,96.14c-.67,21.87-8.89,41-26.07,56.72a71.35,71.35,0,0,1-36.88,17.68c-24.22,4.15-46.71,0-67.36-12a57.58,57.58,0,0,1-18.87-17.23,31.75,31.75,0,0,1-5.44-16.13,52.38,52.38,0,0,1,3.65-22.48c8.87-23.17,24.5-42,45.87-57A74.57,74.57,0,0,1,164.5,33.33,57.22,57.22,0,0,1,198,36.19c11.87,4.69,21.16,12.26,29,21.42,5.22,6.15,9.71,12.66,12.09,20.19A57.49,57.49,0,0,1,241.87,96.14ZM195.1,56.88a27.91,27.91,0,0,0,0-3.66,15.23,15.23,0,0,0-5.95-10.72,25.05,25.05,0,0,0-14.47-5A40.17,40.17,0,0,0,159.21,40c-10,3.56-18.32,9.33-26,16a138.25,138.25,0,0,0-26.21,30.68A87.51,87.51,0,0,0,97,107.34,32,32,0,0,0,95.26,119c.35,5.14,3.17,8.63,8.53,10.4a27.75,27.75,0,0,0,11.1,1.2,73.77,73.77,0,0,0,24.55-6.9A112.21,112.21,0,0,0,163.25,109c11.39-9.19,20.57-19.86,26.72-32.52C193,70.2,195.18,63.76,195.1,56.88Z"/><path class="cls-1" d="M318.13,28.78c.48-4,.64-8-.55-12a21.78,21.78,0,0,0-.71-2.06c-1.36-3.14-4-4.75-7.72-4.85A28.9,28.9,0,0,0,300,11.29a118.13,118.13,0,0,0-24.65,11c-10.21,5.83-19.68,12.57-29.42,19-3.6,2.38-7.26,4.71-10.95,7-3,1.85-5.63,1.47-7.48-.94a4.73,4.73,0,0,1,1.29-7.25c3.62-2.38,7.36-4.59,11-7,9.78-6.37,19.4-12.94,29.56-18.81a142.71,142.71,0,0,1,20.07-10.1,60.51,60.51,0,0,1,15.37-4,27,27,0,0,1,13.13,1.65A15.58,15.58,0,0,1,326,8.89,32.08,32.08,0,0,1,329.65,25a78.34,78.34,0,0,1-2,18.22,43,43,0,0,1-16.37,24.49,5.68,5.68,0,0,1-.74.55c-.92.5-1,1-.47,1.93,6.05,9.81,7.62,20.46,7.08,31.48a38.39,38.39,0,0,1-3.75,15.49c-2.3,4.65-5.89,8.06-11.62,9.15a34,34,0,0,1-17.9-1.33,52.14,52.14,0,0,1-16.11-9.57,134.27,134.27,0,0,1-16.5-17.08c-1.69-2-1.29-4.67.77-6.44a5.66,5.66,0,0,1,6.81-.34,11.45,11.45,0,0,1,2.46,2.35,119.31,119.31,0,0,0,13,13.53,48.78,48.78,0,0,0,12.71,8,20.31,20.31,0,0,0,12.16,1.18,4.77,4.77,0,0,0,3.08-1.87,11.86,11.86,0,0,0,2.1-3.86,46.46,46.46,0,0,0-2.15-32.56c-.18-.4-.36-.81-.57-1.19-1.79-3.27-1.8-3.29-5.73-2.38a38.82,38.82,0,0,1-16.86.07,5.5,5.5,0,0,1-4.49-3.76,3.94,3.94,0,0,1,1.59-4.84,43.13,43.13,0,0,1,6.79-4,21.73,21.73,0,0,1,16.91-.73,3,3,0,0,0,3.06-.29,31.79,31.79,0,0,0,7.49-6.93c5-6.42,7.75-13.5,7.74-21.38Z"/><path class="cls-1" d="M33.32,129.11a15,15,0,0,0-3.18-.88C21.64,126,14,122.4,7.8,116.57A26.13,26.13,0,0,1,1.52,108c-2.81-6.47-1.67-12.42,3-17.85s11-7.73,18.17-8.63a73,73,0,0,1,21.23.86A101,101,0,0,1,75.28,92.63a22.46,22.46,0,0,1,6.2,4.71c2.42,2.68,1.65,6.46-1.63,8.17-1.82,1-3.95,1-5.31-.41-4.91-5-11.57-7.33-18.24-9.54a93.42,93.42,0,0,0-25.5-4.64,31.39,31.39,0,0,0-12.48,1.63c-5,1.86-7.71,5.85-7,10.4a10.17,10.17,0,0,0,2.58,5c3.2,3.75,7.46,6.26,12.16,8.2a58.66,58.66,0,0,0,15.88,3.92,4.66,4.66,0,0,0,3.14-.67A33,33,0,0,1,56.92,115a22.63,22.63,0,0,1,6-.17,5.35,5.35,0,0,1,4.7,3.52c.78,1.93.13,3.54-1.41,4.9A27.4,27.4,0,0,1,52.7,129.4l-.24,0c-3.76-.18-6.15,1.84-8.38,4.19-7.41,7.79-12.55,16.6-14.77,26.71a20.52,20.52,0,0,0-.22,7.73c.56,3.43,2.65,5,6.52,5a28.82,28.82,0,0,0,8.4-1.61,90.42,90.42,0,0,0,21.26-10.27c4.72-3,9.23-6.18,13.75-9.39a6.56,6.56,0,0,1,8.6.63c1.92,2,1.87,4.44-.41,6.09-11.4,8.28-23.06,16.21-36.74,21.31A42.15,42.15,0,0,1,35.16,183c-9.17-.09-15.94-5.44-17.25-13.6-.9-5.62.21-11,2-16.38A69.18,69.18,0,0,1,32.12,131C32.57,130.41,33.25,129.94,33.32,129.11Z"/></g></g></svg>